<?xml version="1.0" standalone="no"?>
<!DOCTYPE svg PUBLIC "-//W3C//DTD SVG 20010904//EN"
 "http://www.w3.org/TR/2001/REC-SVG-20010904/DTD/svg10.dtd">
<svg version="1.0" xmlns="http://www.w3.org/2000/svg"
 width="632.000000pt" height="193.000000pt" viewBox="0 0 632.000000 193.000000"
 preserveAspectRatio="xMidYMid meet">
<metadata>
Created by potrace 1.16, written by Peter Selinger 2001-2019
</metadata>
<g transform="translate(0.000000,193.000000) scale(0.100000,-0.100000)"
fill="#000000" stroke="none">
<path d="M197 1822 c-120 -1 -197 -6 -197 -12 0 -6 73 -10 190 -10 166 0 191
-2 197 -16 3 -9 1 -19 -6 -23 -8 -6 -9 -15 -2 -34 l10 -26 -194 6 c-140 4
-195 2 -195 -6 0 -8 141 -11 505 -11 480 0 505 -1 505 -18 0 -10 -5 -23 -11
-29 -8 -8 -8 -17 0 -32 l12 -21 -506 0 c-368 0 -505 -3 -505 -11 0 -9 53 -10
195 -6 107 4 195 4 195 1 0 -3 -5 -14 -10 -25 -8 -13 -7 -19 0 -19 6 0 10 -10
8 -22 -3 -23 -4 -23 -195 -26 -117 -1 -193 -6 -193 -12 0 -6 76 -10 198 -10
108 0 563 0 1009 0 797 0 813 0 813 -19 0 -11 -5 -21 -11 -23 -9 -3 -9 -10 0
-26 l12 -22 -813 0 c-447 0 -902 0 -1010 0 -125 0 -198 -4 -198 -10 0 -6 70
-10 190 -10 166 0 191 -2 197 -16 3 -9 0 -19 -7 -24 -9 -6 -9 -13 -1 -28 6
-11 11 -23 11 -26 0 -3 -88 -2 -195 1 -140 4 -195 2 -195 -6 0 -8 141 -11 505
-11 l506 0 -12 -22 c-9 -16 -9 -23 0 -26 6 -2 11 -15 11 -28 l0 -24 -505 0
c-369 0 -505 -3 -505 -11 0 -9 53 -10 195 -6 107 4 195 4 195 1 0 -3 -5 -14
-10 -25 -8 -13 -7 -19 0 -19 6 0 10 -10 8 -22 -3 -23 -4 -23 -195 -26 -117 -1
-193 -6 -193 -12 0 -6 76 -10 198 -10 108 0 943 0 1854 0 1631 0 1658 0 1658
-19 0 -11 -5 -21 -11 -23 -9 -3 -9 -10 0 -26 l12 -22 -1658 0 c-912 0 -1747 0
-1855 0 -125 0 -198 -4 -198 -10 0 -6 72 -10 195 -10 l195 0 0 -25 c0 -14 -5
-25 -10 -25 -7 0 -7 -6 -1 -19 9 -16 6 -19 -22 -24 -17 -3 -105 -2 -194 1
-120 4 -163 2 -163 -6 0 -9 130 -12 505 -12 l505 0 0 -24 c0 -13 -5 -26 -11
-28 -9 -3 -9 -10 0 -26 l12 -22 -506 0 c-368 0 -505 -3 -505 -11 0 -9 53 -10
196 -5 171 5 195 4 190 -9 -3 -8 -9 -22 -12 -30 -3 -8 -1 -15 5 -15 6 0 11 -9
11 -20 0 -19 -7 -20 -195 -20 -123 0 -195 -4 -195 -10 0 -11 -30 -11 1208 -10
l813 0 -12 -22 c-9 -16 -9 -23 0 -26 6 -2 11 -12 11 -23 0 -19 -16 -19 -813
-19 -446 0 -901 0 -1009 0 -125 0 -198 -4 -198 -10 0 -6 70 -10 190 -10 166 0
191 -2 197 -16 3 -9 0 -19 -7 -24 -9 -5 -9 -13 -1 -28 9 -18 7 -20 -22 -25
-17 -3 -105 -2 -194 1 -120 4 -163 2 -163 -6 0 -9 130 -12 505 -12 l506 0 -12
-22 c-9 -16 -9 -23 0 -26 6 -2 11 -15 11 -28 l0 -24 -505 0 c-369 0 -505 -3
-505 -11 0 -9 53 -10 195 -6 107 4 195 4 195 1 0 -3 -5 -14 -10 -25 -8 -13 -7
-19 0 -19 6 0 10 -10 8 -22 -3 -23 -4 -23 -195 -26 -117 -1 -193 -6 -193 -12
0 -6 74 -10 193 -10 253 0 2510 0 4515 0 1061 0 1602 3 1602 10 0 6 -72 10
-195 10 -192 0 -195 0 -185 20 8 14 7 25 -2 40 -11 17 -11 22 1 29 8 5 97 7
198 4 130 -4 183 -2 183 6 0 8 -55 11 -180 11 -126 0 -187 4 -201 12 -17 10
-23 10 -26 1 -3 -10 -40 -13 -134 -13 l-130 0 3 48 3 47 333 3 c233 1 332 6
332 13 0 8 -56 10 -195 6 l-194 -6 11 25 c9 20 9 27 -2 34 -7 4 -10 15 -7 24
6 14 31 16 197 16 120 0 190 4 190 10 0 10 -85 12 -752 10 l-368 0 0 45 0 45
560 0 c367 0 560 3 560 10 0 6 -72 10 -195 10 -195 0 -196 0 -185 21 9 15 8
24 -1 35 -9 11 -9 17 0 28 10 12 45 14 197 9 131 -4 184 -2 184 6 0 8 -57 11
-188 11 -137 0 -192 3 -201 13 -11 9 -14 9 -18 0 -3 -10 -40 -13 -134 -13
l-130 0 3 48 3 47 333 3 c233 1 332 6 332 13 0 8 -56 10 -195 6 -107 -4 -195
-4 -195 -1 0 2 6 13 13 24 10 17 9 22 -2 29 -8 5 -11 16 -8 25 6 14 31 16 197
16 120 0 190 4 190 10 0 11 9 11 -1087 10 l-703 0 0 45 0 45 895 0 c590 0 895
3 895 10 0 6 -72 10 -195 10 l-196 0 12 21 c9 17 8 23 -2 30 -11 6 -11 13 -3
26 10 16 28 18 198 15 130 -3 186 -1 186 7 0 8 -59 11 -189 11 -116 0 -192 4
-196 10 -4 7 -12 7 -25 0 -10 -5 -73 -10 -140 -10 l-121 0 3 48 3 47 333 3
c233 1 332 6 332 13 0 8 -56 10 -195 6 -107 -4 -195 -4 -195 -1 0 3 5 15 11
26 8 15 8 22 -1 28 -7 5 -10 15 -7 24 6 14 31 16 197 16 120 0 190 4 190 10 0
10 -85 12 -752 10 l-368 0 0 45 0 45 560 0 c367 0 560 3 560 10 0 6 -72 10
-195 10 l-196 0 12 22 c9 16 9 23 0 26 -15 5 -14 39 2 45 8 3 96 3 195 0 129
-4 182 -2 182 6 0 8 -58 11 -189 11 -116 0 -192 4 -196 10 -4 7 -12 7 -25 0
-10 -5 -73 -10 -140 -10 l-121 0 3 48 3 47 333 3 c233 1 332 6 332 13 0 8 -56
10 -195 6 -107 -4 -195 -4 -195 -1 0 3 5 14 10 25 8 13 7 19 0 19 -6 0 -10 10
-8 23 3 22 4 22 196 25 116 1 192 6 192 12 0 6 -74 10 -192 10 -106 0 -1437 1
-2958 3 -1521 1 -2854 1 -2963 -1z m811 -73 l3 -45 -301 0 c-165 1 -300 2
-300 4 0 2 5 12 10 23 7 13 7 19 0 19 -11 0 -14 33 -3 43 4 4 137 6 297 5
l291 -3 3 -46z m389 35 c3 -9 0 -19 -7 -24 -9 -6 -9 -13 -1 -28 6 -11 11 -23
11 -25 0 -10 -244 -6 -257 5 -10 8 -17 8 -25 0 -7 -7 -29 -12 -50 -12 l-38 0
0 50 0 50 180 0 c156 0 181 -2 187 -16z m621 -35 l3 -46 -301 1 c-165 1 -300
2 -300 4 0 2 5 12 10 23 7 13 7 19 0 19 -11 0 -14 33 -3 43 4 4 137 6 297 5
l291 -3 3 -46z m677 1 l0 -45 -255 -3 c-185 -2 -261 1 -278 10 -17 9 -25 9
-34 0 -7 -7 -29 -12 -50 -12 l-38 0 0 43 c0 24 3 47 7 50 4 4 151 6 327 5
l321 -3 0 -45z m392 34 c3 -9 1 -19 -6 -23 -8 -5 -9 -15 -2 -33 l9 -25 -121
-1 c-75 -1 -125 3 -134 9 -9 9 -17 8 -27 0 -8 -7 -32 -11 -53 -9 -35 3 -38 6
-41 36 -6 63 -10 62 188 62 156 0 181 -2 187 -16z m621 -35 l3 -45 -301 0
c-165 1 -300 2 -300 4 0 2 5 12 10 23 7 13 7 19 0 19 -11 0 -14 33 -3 43 4 4
137 6 297 5 l291 -3 3 -46z m1122 2 l0 -50 -486 -1 c-360 0 -490 3 -501 11
-10 9 -17 9 -25 1 -7 -7 -29 -12 -50 -12 l-38 0 0 43 c0 24 3 47 7 50 3 4 251
7 550 7 l543 0 0 -49z m678 -3 l3 -46 -262 -1 c-186 -1 -266 2 -276 10 -10 9
-19 9 -37 0 -12 -7 -36 -11 -52 -9 -25 3 -29 8 -32 36 -6 66 -24 63 330 60
l323 -3 3 -47z m389 36 c3 -9 0 -19 -7 -24 -9 -6 -9 -13 -1 -28 6 -11 11 -23
11 -25 0 -10 -244 -6 -257 5 -10 8 -17 8 -25 0 -7 -7 -29 -12 -50 -12 l-38 0
0 50 0 50 180 0 c156 0 181 -2 187 -16z m-4779 -146 l3 -48 -45 0 c-50 0 -51
1 -36 31 7 13 7 19 0 19 -5 0 -10 12 -10 26 0 23 3 25 43 22 l42 -3 3 -47z
m902 2 l0 -50 -294 0 c-186 0 -297 4 -301 10 -4 7 -12 7 -25 0 -10 -5 -73 -10
-139 -10 l-121 0 0 43 c0 24 3 47 7 50 3 4 201 7 440 7 l433 0 0 -50z m108 -2
l3 -48 -45 0 -46 0 0 51 0 50 43 -3 42 -3 3 -47z m565 30 c-4 -13 -7 -35 -7
-50 l1 -28 -199 0 c-114 0 -207 4 -218 10 -13 7 -21 7 -25 0 -3 -5 -26 -10
-51 -10 l-44 0 0 43 c0 24 3 47 7 50 3 4 127 7 275 7 l269 0 -8 -22z m115 -30
l3 -48 -51 0 c-48 0 -50 1 -39 21 8 15 8 24 0 32 -6 6 -11 19 -11 30 0 15 7
18 48 15 l47 -3 3 -47z m902 2 l0 -50 -440 1 -440 0 0 43 c0 23 3 46 7 49 3 4
201 7 440 7 l433 0 0 -50z m108 -2 l3 -48 -45 0 -46 0 0 51 0 50 43 -3 42 -3
3 -47z m1012 2 l0 -50 -434 0 c-280 0 -437 4 -441 10 -4 7 -12 7 -25 0 -10 -5
-35 -10 -54 -10 -36 0 -36 0 -36 43 0 24 3 47 7 50 3 4 226 7 495 7 l488 0 0
-50z m118 -2 l3 -48 -50 0 -51 0 0 51 0 50 48 -3 47 -3 3 -47z m562 34 c0 -10
-5 -23 -11 -29 -8 -8 -8 -17 0 -32 l12 -21 -209 0 c-148 0 -211 3 -220 12 -9
9 -15 9 -24 0 -7 -7 -29 -12 -50 -12 l-38 0 0 50 0 50 270 0 c253 0 270 -1
270 -18z m108 -34 l3 -48 -45 0 c-50 0 -51 1 -36 31 7 13 7 19 0 19 -5 0 -10
12 -10 26 0 23 3 25 43 22 l42 -3 3 -47z m-4498 -83 c0 -13 -5 -25 -11 -27 -9
-3 -9 -10 0 -26 l12 -22 -353 2 -353 3 -3 23 c-2 12 2 22 8 22 7 0 8 6 0 19
-5 11 -10 21 -10 23 0 2 160 4 355 5 l355 1 0 -23z m278 -2 c2 -13 -2 -23 -8
-23 -7 0 -8 -6 0 -19 5 -11 10 -22 10 -25 0 -3 -58 -6 -130 -6 -71 0 -130 3
-130 6 0 3 5 14 10 25 7 13 7 19 0 19 -5 0 -10 11 -10 25 l0 25 128 -2 c123
-3 127 -4 130 -25z m622 -24 l0 -49 -300 0 -301 0 12 22 c9 16 9 23 0 26 -14
5 -15 39 -1 44 6 2 141 4 300 4 l290 1 0 -48z m110 1 l0 -50 -45 0 -45 0 0 50
0 50 45 0 45 0 0 -50z m108 38 c7 -7 12 -29 12 -50 l0 -38 -50 0 -50 0 0 43
c0 24 3 47 7 50 11 12 68 8 81 -5z m572 -12 c0 -14 -5 -26 -11 -28 -9 -3 -9
-10 0 -26 l12 -23 -270 2 -271 1 0 43 c0 23 3 45 6 48 4 3 125 6 270 6 l264 0
0 -23z m278 0 c2 -10 -1 -22 -8 -26 -9 -6 -9 -13 -1 -29 12 -21 11 -21 -119
-21 -71 0 -130 3 -130 6 0 3 5 14 10 25 7 13 7 19 0 19 -5 0 -10 11 -10 25 l0
25 127 -2 c116 -3 128 -5 131 -22z m622 -28 l0 -48 -300 0 c-165 0 -300 3
-300 6 0 3 5 14 10 25 7 13 7 19 0 19 -10 0 -14 32 -6 41 2 2 137 4 300 5
l296 0 0 -48z m110 2 l0 -50 -45 0 -45 0 0 50 0 50 45 0 45 0 0 -50z m108 -2
l3 -48 -45 0 -46 0 0 51 0 50 43 -3 42 -3 3 -47z m902 1 l0 -50 -440 1 -440 1
0 38 c0 20 5 42 12 49 9 9 116 12 440 11 l428 0 0 -50z m118 -1 l3 -48 -50 0
-51 0 0 51 0 50 48 -3 47 -3 3 -47z m110 0 l3 -48 -50 0 c-49 0 -51 1 -51 28
0 62 9 73 54 70 l41 -3 3 -47z m562 27 c0 -13 -5 -25 -11 -27 -9 -3 -9 -10 0
-26 l12 -23 -270 2 -271 1 0 43 c0 23 3 44 6 48 4 3 125 6 270 6 l264 0 0 -24z
m278 -2 c2 -13 -2 -23 -8 -23 -7 0 -8 -6 0 -19 5 -11 10 -22 10 -25 0 -3 -58
-6 -130 -6 -71 0 -130 4 -130 8 0 4 6 14 13 21 10 11 10 14 0 18 -7 3 -13 16
-13 29 l0 24 128 -2 c123 -3 127 -4 130 -25z m-3768 -138 l0 -45 -45 0 c-44 0
-45 1 -34 22 9 16 9 23 0 26 -6 2 -11 12 -11 23 0 16 7 19 45 19 l45 0 0 -45z
m120 0 l0 -45 -50 0 -50 0 0 45 0 45 50 0 50 0 0 -45z m108 -2 l3 -43 -50 0
c-50 0 -51 1 -51 29 0 53 9 62 54 59 41 -3 41 -3 44 -45z m1352 2 l0 -45 -665
1 -665 0 0 44 0 45 665 0 665 0 0 -45z m110 0 l0 -45 -45 0 -45 0 0 45 0 45
45 0 45 0 0 -45z m110 0 l0 -45 -45 0 -45 0 0 45 0 45 45 0 45 0 0 -45z m118
-2 l3 -43 -50 0 -51 0 0 46 0 45 48 -3 47 -3 3 -42z m782 27 c0 -11 -5 -20
-10 -20 -7 0 -7 -6 0 -19 5 -11 10 -22 10 -26 0 -3 -171 -5 -380 -5 l-380 2 0
44 0 44 380 0 c373 0 380 0 380 -20z m120 -25 l0 -45 -50 0 c-49 0 -50 1 -39
22 9 16 9 23 0 26 -6 2 -11 12 -11 23 0 16 7 19 50 19 l50 0 0 -45z m110 0 l0
-45 -50 0 -50 0 0 45 0 45 50 0 50 0 0 -45z m110 0 l0 -45 -45 0 -45 0 0 45 0
45 45 0 45 0 0 -45z m-4061 -87 c-9 -16 -9 -23 0 -26 6 -2 11 -14 11 -27 l0
-24 -355 2 c-195 1 -355 3 -355 5 0 2 5 13 11 24 8 15 8 22 -1 28 -7 5 -10 15
-7 24 6 14 45 16 357 16 l351 0 -12 -22z m291 16 c0 -3 -5 -14 -10 -25 -8 -13
-7 -19 0 -19 6 0 10 -10 8 -22 -3 -22 -7 -23 -130 -26 l-128 -2 0 24 c0 13 5
26 11 28 9 3 9 10 0 26 l-12 22 131 0 c71 0 130 -3 130 -6z m730 -14 c0 -11
-5 -20 -11 -20 -6 0 -8 -7 -5 -15 3 -8 9 -22 12 -30 5 -12 -40 -14 -342 -11
-314 3 -349 5 -358 20 -8 12 -7 19 3 25 10 7 11 13 2 30 l-12 21 356 0 c348 0
355 0 355 -20z m118 -27 l-3 -48 -48 -3 -47 -3 12 27 c10 22 10 28 0 32 -6 2
-12 12 -12 23 0 16 7 19 51 19 l50 0 -3 -47z m112 -4 l0 -50 -47 3 -48 3 -3
48 -3 47 50 0 51 0 0 -51z m335 1 l0 -45 -157 -2 -158 -2 0 50 0 50 158 -3
157 -3 0 -45z m392 34 c3 -9 0 -19 -7 -24 -9 -6 -9 -13 -1 -28 6 -11 11 -23
11 -25 0 -10 -244 -6 -257 5 -10 8 -17 8 -25 0 -13 -13 -84 -16 -91 -4 -2 4
-2 26 1 50 l4 42 179 0 c156 0 180 -2 186 -16z m623 -32 l0 -48 -300 0 c-165
1 -300 2 -300 4 0 2 5 13 11 24 8 15 8 22 -1 28 -7 5 -10 15 -7 24 6 14 40 16
302 16 l295 0 0 -48z m110 -2 l0 -50 -45 0 -45 0 0 50 0 50 45 0 45 0 0 -50z
m110 0 l0 -50 -45 0 -45 0 0 50 0 50 45 0 45 0 0 -50z m118 3 l-3 -48 -47 -3
-48 -3 0 50 0 51 51 0 50 0 -3 -47z m110 -5 l3 -48 -45 0 -46 0 0 51 0 50 43
-3 42 -3 3 -47z m792 32 c0 -11 -5 -20 -11 -20 -7 0 -8 -11 -4 -29 l6 -30
-317 0 c-222 0 -322 3 -331 11 -10 8 -17 8 -25 0 -7 -7 -29 -12 -50 -12 l-38
0 0 43 c0 24 3 47 7 50 3 4 177 7 385 7 371 0 378 0 378 -20z m110 -30 l0 -50
-46 0 c-45 0 -46 0 -39 30 4 19 3 30 -4 30 -6 0 -11 9 -11 20 0 17 7 20 50 20
l50 0 0 -50z m110 0 l0 -50 -45 0 -45 0 0 50 0 50 45 0 45 0 0 -50z m338 -2
l3 -46 -160 -1 -161 0 0 50 0 50 158 -3 157 -3 3 -47z m392 32 c0 -11 -5 -20
-11 -20 -6 0 -9 -6 -6 -12 19 -48 26 -45 -104 -46 -79 -1 -127 2 -136 10 -10
8 -17 8 -25 0 -7 -7 -29 -12 -50 -12 l-38 0 0 50 0 50 185 0 c178 0 185 -1
185 -20z m-4782 -137 l-3 -48 -42 -3 c-40 -3 -43 -1 -43 22 0 14 5 26 10 26 7
0 7 6 0 19 -15 30 -14 31 36 31 l45 0 -3 -47z m1132 29 c0 -10 -5 -23 -11 -29
-8 -8 -8 -17 0 -32 l12 -21 -553 2 -553 3 -3 47 -3 47 555 1 c530 0 556 -1
556 -18z m110 -32 l0 -50 -50 0 c-48 0 -50 1 -39 21 8 15 8 24 0 32 -6 6 -11
19 -11 29 0 15 9 18 50 18 l50 0 0 -50z m340 32 c0 -10 -5 -23 -11 -29 -8 -8
-8 -17 0 -32 12 -21 11 -21 -149 -21 l-160 0 0 50 0 50 160 0 c147 0 160 -1
160 -18z m108 -34 l3 -48 -51 0 c-48 0 -50 1 -39 21 8 15 8 24 0 32 -6 6 -11
19 -11 30 0 15 7 18 48 15 l47 -3 3 -47z m902 2 l0 -50 -293 0 c-215 0 -296 3
-305 12 -9 9 -15 9 -24 0 -8 -8 -53 -12 -135 -12 l-123 0 0 43 c0 24 3 47 7
50 3 4 201 7 440 7 l433 0 0 -50z m110 0 l0 -50 -45 0 -45 0 0 50 0 50 45 0
45 0 0 -50z m110 0 l0 -50 -45 0 -45 0 0 50 0 50 45 0 45 0 0 -50z m120 0 l0
-50 -50 0 -50 0 0 50 0 50 50 0 50 0 0 -50z m110 0 l0 -50 -51 0 c-48 0 -51 1
-45 23 3 12 6 34 6 50 0 25 3 27 45 27 l45 0 0 -50z m108 -2 l3 -48 -45 0 -46
0 0 51 0 50 43 -3 42 -3 3 -47z m792 28 c0 -13 -5 -26 -11 -28 -9 -3 -9 -10 0
-26 l12 -22 -325 0 c-206 0 -327 4 -331 10 -4 7 -12 7 -25 0 -10 -5 -35 -10
-54 -10 -36 0 -36 0 -36 43 0 24 3 47 7 50 3 4 177 7 385 7 l378 0 0 -24z
m110 -26 l0 -50 -45 0 c-49 0 -50 1 -35 31 7 13 7 19 0 19 -5 0 -10 11 -10 25
0 23 4 25 45 25 l45 0 0 -50z m340 26 c0 -13 -5 -26 -11 -28 -9 -3 -9 -10 0
-26 l12 -22 -161 0 -160 0 0 50 0 50 160 0 160 0 0 -24z m108 -28 l3 -48 -45
0 c-50 0 -51 1 -36 31 7 13 7 19 0 19 -5 0 -10 12 -10 26 0 23 3 25 43 22 l42
-3 3 -47z m-4610 -107 l-3 -46 -295 0 -295 0 -3 23 c-2 12 2 22 8 22 7 0 8 6
0 19 -5 11 -10 21 -10 23 0 2 135 3 300 4 l301 1 -3 -46z m110 37 c8 -8 15 -8
25 0 13 11 257 15 257 5 0 -2 -5 -13 -10 -24 -7 -13 -7 -19 0 -19 5 0 10 -11
10 -25 l0 -25 -182 2 -183 3 -3 48 -3 47 38 0 c22 0 44 -5 51 -12z m1242 -12
c0 -13 -5 -26 -11 -28 -9 -3 -9 -10 0 -26 l12 -22 -468 2 c-449 3 -468 4 -471
22 -2 10 1 22 8 26 9 5 9 13 2 26 -10 18 4 19 459 22 l469 3 0 -25z m450 0 c0
-14 -5 -26 -11 -28 -9 -3 -9 -10 0 -26 l12 -22 -216 0 c-118 0 -215 3 -215 6
0 3 5 14 10 25 7 13 7 19 0 19 -5 0 -10 11 -10 24 l0 25 215 0 215 1 0 -24z
m278 -3 c2 -13 -2 -23 -8 -23 -7 0 -8 -6 0 -19 5 -11 10 -22 10 -25 0 -3 -58
-6 -130 -6 -71 0 -130 3 -130 6 0 3 5 14 10 25 7 13 7 19 0 19 -5 0 -10 11
-10 25 l0 25 128 -2 c123 -3 127 -4 130 -25z m622 -25 l0 -48 -300 0 c-165 0
-300 3 -300 6 0 3 5 14 10 25 7 13 7 19 0 19 -10 0 -14 32 -6 41 2 2 137 4
300 5 l296 0 0 -48z m110 2 l0 -50 -45 0 -45 0 0 50 0 50 45 0 45 0 0 -50z
m110 0 l0 -50 -45 0 -45 0 0 50 0 50 45 0 45 0 0 -50z m118 -2 l3 -48 -50 0
-51 0 0 51 0 50 48 -3 47 -3 3 -47z m112 2 l0 -50 -50 0 -50 0 0 43 c0 24 3
47 7 50 3 4 26 7 50 7 l43 0 0 -50z m110 0 l0 -50 -45 0 -45 0 0 50 0 50 45 0
45 0 0 -50z m108 -2 l3 -48 -45 0 -46 0 0 51 0 50 43 -3 42 -3 3 -47z m792 28
c0 -13 -5 -26 -11 -28 -9 -3 -9 -10 0 -26 l12 -23 -386 1 -385 2 0 37 c0 20 5
42 11 48 8 8 120 12 385 12 l374 1 0 -24z m450 0 c0 -14 -5 -26 -11 -28 -9 -3
-9 -10 0 -26 l12 -22 -216 0 -216 0 12 22 c9 16 9 23 0 26 -6 2 -11 14 -11 27
l0 23 215 1 215 1 0 -24z m278 -3 c2 -13 -2 -23 -8 -23 -7 0 -8 -6 0 -19 5
-11 10 -22 10 -25 0 -3 -59 -6 -130 -6 l-131 0 12 22 c9 16 9 23 0 26 -6 2
-11 15 -11 28 l0 24 128 -2 c123 -3 127 -4 130 -25z m-2078 -138 l0 -45 -45 0
c-49 0 -50 1 -35 31 7 13 7 19 0 19 -5 0 -10 9 -10 20 0 17 7 20 45 20 l45 0
0 -45z m110 0 l0 -45 -45 0 -45 0 0 45 0 45 45 0 45 0 0 -45z m120 0 l0 -45
-50 0 -50 0 0 45 0 45 50 0 50 0 0 -45z m110 0 l0 -45 -50 0 -50 0 0 45 0 45
50 0 50 0 0 -45z m110 0 l0 -45 -45 0 -45 0 0 45 0 45 45 0 45 0 0 -45z m110
0 l0 -45 -45 0 -45 0 0 45 0 45 45 0 45 0 0 -45z m118 -2 l3 -43 -50 0 -51 0
0 46 0 45 48 -3 47 -3 3 -42z m-3490 -114 l3 -46 -278 3 c-153 1 -286 3 -296
3 -14 1 -17 6 -12 21 4 11 2 20 -4 20 -12 0 -15 33 -4 43 4 4 137 6 297 5
l291 -3 3 -46z m397 41 c4 -6 2 -17 -5 -24 -6 -8 -8 -25 -5 -39 l6 -24 -122
-1 c-79 -1 -127 2 -136 10 -10 8 -17 8 -25 0 -7 -7 -29 -12 -50 -12 l-38 0 0
43 c0 24 3 47 7 50 11 12 361 8 368 -3z m944 -12 c-9 -16 -9 -23 0 -26 6 -2
11 -15 11 -28 l0 -25 -465 3 -466 3 6 24 c4 14 1 27 -6 32 -6 4 -9 14 -6 23 6
14 54 16 472 16 l466 0 -12 -22z m450 0 c-9 -16 -9 -23 0 -26 6 -2 11 -14 11
-28 l0 -24 -215 1 -215 0 0 25 c0 13 5 24 10 24 7 0 7 6 0 19 -5 11 -10 22
-10 25 0 3 97 6 215 6 l216 0 -12 -22z m291 16 c0 -3 -5 -14 -10 -25 -8 -13
-7 -19 0 -19 6 0 10 -10 8 -22 -3 -22 -7 -23 -130 -26 l-128 -2 0 25 c0 14 5
25 10 25 7 0 7 6 0 19 -5 11 -10 22 -10 25 0 3 59 6 130 6 72 0 130 -3 130 -6z
m730 -14 c0 -11 -5 -20 -11 -20 -6 0 -8 -7 -5 -15 3 -8 9 -21 12 -29 5 -13
-43 -14 -343 -11 -191 2 -351 4 -355 4 -13 2 -9 39 3 43 9 3 9 10 0 26 l-12
22 356 0 c348 0 355 0 355 -20z m110 -30 l0 -50 -46 0 c-37 0 -45 3 -40 15 3
8 9 22 12 30 3 8 1 15 -5 15 -6 0 -11 9 -11 20 0 17 7 20 45 20 l45 0 0 -50z
m118 3 l-3 -48 -47 -3 -48 -3 0 50 0 51 51 0 50 0 -3 -47z m112 -4 l0 -50 -47
3 -48 3 -3 48 -3 47 50 0 51 0 0 -51z m110 1 l0 -50 -45 0 -45 0 0 50 0 50 45
0 45 0 0 -50z m110 0 l0 -50 -45 0 -45 0 0 50 0 50 45 0 45 0 0 -50z m118 3
l-3 -48 -47 -3 -48 -3 0 50 0 51 51 0 50 0 -3 -47z m332 -2 l0 -50 -155 0
-155 1 0 49 0 49 155 0 155 0 0 -49z m678 -3 l3 -46 -262 -1 c-186 -1 -266 2
-276 10 -10 9 -19 9 -37 0 -12 -7 -36 -11 -52 -9 -25 3 -29 8 -32 36 -6 66
-24 63 330 60 l323 -3 3 -47z m392 32 c0 -11 -5 -20 -10 -20 -7 0 -7 -6 0 -19
5 -11 10 -24 10 -29 0 -14 -241 -14 -257 0 -10 8 -17 8 -25 0 -7 -7 -29 -12
-50 -12 l-38 0 0 50 0 50 185 0 c178 0 185 -1 185 -20z m-4782 -142 l3 -48
-45 0 c-50 0 -51 1 -36 31 7 13 7 19 0 19 -5 0 -10 12 -10 26 0 23 3 25 43 22
l42 -3 3 -47z m1122 46 c0 -3 -5 -14 -10 -25 -8 -15 -7 -19 5 -19 9 0 15 -9
15 -25 l0 -25 -409 0 c-284 0 -412 3 -417 11 -4 8 -9 8 -17 0 -7 -7 -60 -11
-139 -11 l-128 0 0 43 c0 24 3 47 7 50 8 8 1093 9 1093 1z m120 -44 l0 -50
-50 0 c-47 0 -50 2 -50 25 0 16 6 25 15 25 12 0 13 4 5 19 -15 30 -14 31 35
31 l45 0 0 -50z m329 28 c-9 -16 -9 -23 0 -26 6 -2 11 -15 11 -28 l0 -24 -160
0 -160 0 0 50 0 50 160 0 161 0 -12 -22z m119 -25 l-3 -48 -42 -3 c-40 -3 -43
-1 -43 22 0 14 5 26 10 26 7 0 7 6 0 19 -15 30 -14 31 36 31 l45 0 -3 -47z
m288 36 c4 -8 9 -8 17 0 8 8 137 11 414 11 l403 0 0 -25 c0 -14 -5 -25 -10
-25 -7 0 -7 -6 0 -19 5 -11 10 -22 10 -25 0 -4 -246 -5 -547 -4 l-548 3 -3 48
-3 47 130 0 c83 0 132 -4 137 -11z m954 -39 l0 -50 -50 0 c-49 0 -50 1 -39 22
9 16 9 23 0 26 -6 2 -11 15 -11 28 0 22 4 24 50 24 l50 0 0 -50z m110 0 l0
-50 -50 0 -50 0 0 50 0 50 50 0 50 0 0 -50z m110 0 l0 -50 -45 0 -45 0 0 50 0
50 45 0 45 0 0 -50z m110 0 l0 -50 -45 0 -45 0 0 50 0 50 45 0 45 0 0 -50z
m120 0 l0 -50 -50 0 -50 0 0 50 0 50 50 0 50 0 0 -50z m330 0 l0 -50 -161 0
-161 0 6 23 c3 12 6 34 6 50 l0 27 155 0 155 0 0 -50z m118 -2 l3 -48 -50 0
-51 0 0 51 0 50 48 -3 47 -3 3 -47z m562 28 c0 -13 -5 -26 -11 -28 -9 -3 -9
-10 0 -26 l12 -22 -209 0 c-148 0 -211 3 -220 12 -9 9 -15 9 -24 0 -7 -7 -29
-12 -50 -12 l-38 0 0 50 0 50 270 0 270 0 0 -24z m108 -28 l3 -48 -45 0 c-50
0 -51 1 -36 31 7 13 7 19 0 19 -5 0 -10 12 -10 26 0 23 3 25 43 22 l42 -3 3
-47z m-4498 -84 c0 -13 -5 -24 -10 -24 -7 0 -7 -6 0 -19 5 -11 10 -22 10 -25
0 -3 -158 -6 -350 -6 -312 0 -351 2 -357 16 -3 9 0 19 7 24 9 6 9 13 1 28 -6
11 -11 22 -11 24 0 2 160 4 355 5 l355 1 0 -24z m284 3 c8 -13 8 -20 -3 -26
-10 -7 -11 -13 -2 -30 12 -21 11 -21 -124 -21 l-136 0 12 22 c9 16 9 23 0 26
-6 2 -11 15 -11 28 l0 24 126 -2 c109 -3 128 -6 138 -21z m726 17 c0 -3 -5
-14 -10 -25 -7 -13 -7 -19 0 -19 5 0 10 -11 10 -25 l0 -25 -355 0 -356 0 12
22 c9 16 9 23 0 26 -13 4 -14 25 -1 38 9 9 700 18 700 8z m118 -46 l3 -48 -50
0 c-47 0 -51 2 -51 24 0 13 5 26 11 28 9 3 9 10 0 27 -12 22 -11 22 36 19 l48
-3 3 -47z m112 2 l0 -50 -50 0 -50 0 0 43 c0 24 3 47 7 50 3 4 26 7 50 7 l43
0 0 -50z m335 0 l0 -45 -157 -3 -158 -3 0 50 0 50 158 -2 157 -2 0 -45z m113
38 c8 -8 15 -8 25 0 8 7 59 11 136 11 101 -1 121 -3 117 -15 -3 -8 -9 -21 -12
-29 -3 -8 -1 -15 5 -15 6 0 11 -9 11 -20 0 -19 -7 -20 -185 -20 l-185 0 0 50
0 50 38 0 c21 0 43 -5 50 -12z m1240 -15 c2 -16 -2 -23 -13 -23 -12 0 -14 -4
-5 -19 5 -11 10 -22 10 -25 0 -3 -207 -6 -460 -6 -413 0 -461 2 -467 16 -3 9
0 19 7 24 9 6 9 13 1 28 -6 11 -11 22 -11 24 0 2 210 3 468 3 l467 0 3 -22z
m112 -23 l0 -50 -45 0 c-49 0 -50 1 -35 31 8 15 7 19 -5 19 -15 0 -21 31 -8
43 3 4 26 7 50 7 l43 0 0 -50z m110 0 l0 -50 -45 0 -45 0 0 50 0 50 45 0 45 0
0 -50z m110 0 l0 -50 -45 0 -45 0 0 50 0 50 45 0 45 0 0 -50z m118 -2 l3 -48
-50 0 -51 0 0 51 0 50 48 -3 47 -3 3 -47z m332 1 l0 -49 -160 0 -160 0 0 43
c0 24 3 46 6 50 3 3 75 5 160 6 l154 0 0 -50z m118 -1 l3 -48 -50 0 -51 0 0
51 0 50 48 -3 47 -3 3 -47z m110 0 l3 -48 -50 0 c-49 0 -51 1 -51 28 0 62 9
73 54 70 l41 -3 3 -47z m562 27 c0 -14 -5 -25 -10 -25 -7 0 -7 -6 0 -19 5 -11
10 -22 10 -26 0 -3 -121 -5 -270 -4 l-270 1 0 43 c0 23 3 44 6 48 4 3 125 6
270 6 l264 0 0 -24z m278 -2 c2 -13 -2 -23 -8 -23 -7 0 -8 -6 0 -19 5 -11 10
-22 10 -25 0 -3 -59 -6 -130 -6 l-131 0 12 22 c9 16 9 23 0 26 -6 2 -11 15
-11 28 l0 24 128 -2 c123 -3 127 -4 130 -25z m-3768 -138 l0 -45 -45 0 c-38 0
-45 3 -45 19 0 11 5 21 11 23 9 3 9 10 0 26 -11 21 -10 22 34 22 l45 0 0 -45z
m120 0 l0 -45 -50 0 -50 0 0 45 0 45 50 0 50 0 0 -45z m108 3 c-3 -43 -3 -43
-44 -46 -44 -3 -54 8 -54 66 0 20 5 22 51 22 l50 0 -3 -42z m1802 23 c0 -11
-5 -21 -11 -23 -9 -3 -9 -10 0 -26 l12 -22 -891 0 -890 0 0 45 0 44 890 1
c871 0 890 0 890 -19z m110 -26 l0 -45 -45 0 c-49 0 -50 1 -35 31 7 13 7 19 0
19 -5 0 -10 9 -10 20 0 17 7 20 45 20 l45 0 0 -45z m110 0 l0 -45 -45 0 -45 0
0 45 0 45 45 0 45 0 0 -45z m120 0 l0 -45 -50 0 -50 0 0 45 0 45 50 0 50 0 0
-45z m330 25 c0 -11 -5 -20 -10 -20 -7 0 -7 -6 0 -19 5 -11 10 -22 10 -25 0
-3 -72 -6 -160 -6 l-160 0 0 45 0 45 160 0 c153 0 160 -1 160 -20z m120 -25
l0 -45 -50 0 c-49 0 -50 1 -39 22 9 16 9 23 0 26 -6 2 -11 12 -11 23 0 16 7
19 50 19 l50 0 0 -45z m110 0 l0 -45 -50 0 -50 0 0 45 0 45 50 0 50 0 0 -45z
m110 0 l0 -45 -45 0 -45 0 0 45 0 45 45 0 45 0 0 -45z m-4061 -87 c-9 -16 -9
-23 0 -26 6 -2 11 -14 11 -28 l0 -23 -332 4 c-183 2 -343 4 -356 4 -20 1 -21
4 -12 21 7 14 7 20 0 20 -11 0 -14 33 -3 43 3 4 163 7 355 7 l349 0 -12 -22z
m291 16 c0 -3 -5 -14 -10 -25 -8 -13 -7 -19 0 -19 6 0 10 -10 8 -22 -3 -22 -7
-23 -130 -26 l-128 -2 0 24 c0 13 5 26 11 28 9 3 9 10 0 26 l-12 22 131 0 c71
0 130 -3 130 -6z m620 -43 l0 -48 -292 2 c-263 1 -293 3 -302 18 -8 13 -8 20
3 26 10 7 11 13 2 30 l-12 21 301 0 300 0 0 -49z m110 -1 l0 -50 -45 0 -45 0
0 50 0 50 45 0 45 0 0 -50z m120 11 c0 -47 -18 -63 -62 -59 -32 3 -33 5 -36
51 l-3 47 50 0 51 0 0 -39z m549 17 c-9 -16 -9 -23 0 -26 6 -2 11 -14 11 -28
l0 -24 -267 3 -268 2 -3 47 -3 46 271 1 271 2 -12 -23z m291 16 c0 -3 -5 -14
-10 -25 -8 -13 -7 -19 0 -19 6 0 10 -10 8 -22 -3 -22 -7 -23 -130 -26 l-128
-2 0 25 c0 14 5 25 10 25 7 0 7 6 0 19 -5 11 -10 22 -10 25 0 3 59 6 130 6 72
0 130 -3 130 -6z m1180 -14 c0 -11 -5 -20 -11 -20 -6 0 -8 -7 -5 -15 20 -50
65 -47 -560 -42 -319 3 -580 6 -581 6 -9 3 -1 40 8 43 9 3 9 10 0 26 l-12 22
581 0 c573 0 580 0 580 -20z m110 -30 l0 -50 -46 0 c-37 0 -45 3 -40 15 3 8 9
22 12 30 3 8 1 15 -5 15 -6 0 -11 9 -11 20 0 17 7 20 45 20 l45 0 0 -50z m118
3 l-3 -48 -47 -3 -48 -3 0 50 0 51 51 0 50 0 -3 -47z m452 27 c0 -11 -5 -20
-11 -20 -7 0 -8 -11 -4 -30 l7 -30 -214 2 -213 3 -3 48 -3 47 220 0 c214 0
221 -1 221 -20z m110 -30 l0 -50 -46 0 c-45 0 -46 0 -39 30 4 19 3 30 -4 30
-6 0 -11 9 -11 20 0 17 7 20 50 20 l50 0 0 -50z m110 0 l0 -50 -45 0 -45 0 0
50 0 50 45 0 45 0 0 -50z m338 -2 l3 -46 -160 -1 -161 0 0 50 0 50 158 -3 157
-3 3 -47z m398 40 c4 -6 0 -16 -9 -23 -11 -7 -13 -16 -6 -26 5 -8 9 -19 9 -25
0 -16 -225 -17 -250 -1 -15 9 -22 9 -32 -1 -6 -6 -29 -12 -50 -12 l-38 0 0 50
0 50 184 0 c129 0 187 -4 192 -12z m-4788 -145 l-3 -48 -42 -3 c-40 -3 -43 -1
-43 22 0 14 5 26 10 26 7 0 7 6 0 19 -15 30 -14 31 36 31 l45 0 -3 -47z m902
-3 l0 -50 -437 2 -438 3 -3 47 -3 47 440 1 441 0 0 -50z m108 3 l-3 -48 -42
-3 -43 -3 0 50 0 51 46 0 45 0 -3 -47z m561 25 c-9 -16 -9 -23 0 -26 6 -2 11
-15 11 -28 l0 -24 -269 0 c-297 0 -281 -4 -281 65 l0 33 275 1 276 2 -12 -23z
m119 -25 l-3 -48 -42 -3 c-40 -3 -43 -1 -43 22 0 14 5 26 10 26 7 0 7 6 0 19
-15 30 -14 31 36 31 l45 0 -3 -47z m1572 22 c0 -14 -5 -25 -10 -25 -7 0 -7 -6
0 -19 5 -11 10 -22 10 -25 0 -4 -348 -5 -772 -4 l-773 3 -3 47 -3 47 775 1
776 0 0 -25z m120 -25 l0 -50 -50 0 c-49 0 -50 1 -39 22 9 16 9 23 0 26 -6 2
-11 15 -11 28 0 22 4 24 50 24 l50 0 0 -50z m560 26 c0 -13 -5 -26 -11 -28 -9
-3 -9 -10 0 -26 l12 -22 -276 0 -275 0 0 50 0 50 275 0 275 0 0 -24z m110 -26
l0 -50 -45 0 c-49 0 -50 1 -35 31 7 13 7 19 0 19 -5 0 -10 11 -10 25 0 23 4
25 45 25 l45 0 0 -50z m340 25 c0 -14 -5 -25 -10 -25 -7 0 -7 -6 0 -19 5 -11
10 -22 10 -25 0 -3 -72 -6 -160 -6 l-160 0 0 50 0 50 160 0 160 0 0 -25z m108
-27 l3 -48 -45 0 c-50 0 -51 1 -36 31 7 13 7 19 0 19 -5 0 -10 12 -10 26 0 23
3 25 43 22 l42 -3 3 -47z m-4610 -107 l-3 -46 -295 0 -295 0 -3 23 c-2 12 2
22 8 22 7 0 8 6 0 19 -5 11 -10 21 -10 23 0 2 135 3 300 4 l301 1 -3 -46z
m110 37 c8 -8 15 -8 25 0 13 11 257 16 257 5 0 -2 -5 -13 -10 -24 -7 -13 -7
-19 0 -19 5 0 10 -11 10 -25 l0 -25 -182 2 -183 3 -3 48 -3 47 38 0 c22 0 44
-5 51 -12z m900 -37 l-3 -46 -293 -3 c-255 -2 -293 0 -298 13 -4 8 -1 22 6 29
8 10 8 21 2 33 -10 17 3 18 289 19 l300 1 -3 -46z m112 39 c9 -5 19 -5 26 1 7
6 116 8 275 7 l264 -3 0 -45 0 -45 -325 0 -325 0 -3 48 -3 47 38 0 c21 0 45
-4 53 -10z m678 -2 c8 -8 15 -8 25 0 13 11 257 16 257 5 0 -2 -5 -13 -10 -24
-8 -13 -7 -19 0 -19 6 0 10 -10 8 -22 -3 -23 -5 -23 -185 -26 l-183 -2 0 50 0
50 38 0 c21 0 43 -5 50 -12z m1690 -15 c2 -16 -2 -23 -13 -23 -12 0 -14 -4 -5
-19 5 -11 10 -22 10 -25 0 -4 -309 -5 -687 -4 l-688 3 -3 23 c-2 12 2 22 8 22
7 0 8 6 0 19 -5 11 -10 21 -10 23 0 2 312 3 693 3 l692 0 3 -22z m672 3 c0
-13 -5 -26 -11 -28 -9 -3 -9 -10 0 -26 l12 -22 -326 0 c-179 0 -325 3 -325 6
0 3 5 14 10 25 8 15 7 19 -5 19 -14 0 -21 30 -9 42 3 4 151 7 330 7 l324 1 0
-24z m450 -1 c0 -14 -5 -25 -10 -25 -7 0 -7 -6 0 -19 5 -11 10 -22 10 -25 0
-3 -97 -6 -215 -6 l-216 0 12 22 c9 16 9 23 0 26 -6 2 -11 14 -11 27 l0 23
215 1 215 1 0 -25z m282 14 c11 -7 11 -12 0 -29 -9 -15 -10 -26 -2 -40 10 -19
7 -20 -125 -20 l-136 0 12 22 c9 16 9 23 0 26 -6 2 -11 15 -11 28 l0 24 125
-2 c68 -1 130 -5 137 -9z"/>
</g>
</svg>
