<?xml version="1.0" encoding="utf-8" standalone="no"?>
<!DOCTYPE svg PUBLIC "-//W3C//DTD SVG 1.1//EN"
  "http://www.w3.org/Graphics/SVG/1.1/DTD/svg11.dtd">
<svg xmlns:xlink="http://www.w3.org/1999/xlink" width="710.604692pt" height="424.574846pt" viewBox="0 0 710.604692 424.574846" xmlns="http://www.w3.org/2000/svg" version="1.1">
 <metadata>
  <rdf:RDF xmlns:dc="http://purl.org/dc/elements/1.1/" xmlns:cc="http://creativecommons.org/ns#" xmlns:rdf="http://www.w3.org/1999/02/22-rdf-syntax-ns#">
   <cc:Work>
    <dc:type rdf:resource="http://purl.org/dc/dcmitype/StillImage"/>
    <dc:date>1980-01-01T00:00:00+00:00</dc:date>
    <dc:format>image/svg+xml</dc:format>
    <dc:creator>
     <cc:Agent>
      <dc:title>Matplotlib v3.9.2, https://matplotlib.org/</dc:title>
     </cc:Agent>
    </dc:creator>
   </cc:Work>
  </rdf:RDF>
 </metadata>
 <defs>
  <style type="text/css">*{stroke-linejoin: round; stroke-linecap: butt}</style>
 </defs>
 <g id="figure_1">
  <g id="patch_1">
   <path d="M 0 424.574846 
L 710.604692 424.574846 
L 710.604692 0 
L 0 0 
z
" style="fill: #ffffff"/>
  </g>
  <g id="axes_1">
   <g id="patch_2">
    <path d="M 46.965625 348.7593 
L 691.103379 348.7593 
L 691.103379 22.318125 
L 46.965625 22.318125 
z
" style="fill: #ffffff"/>
   </g>
   <g id="matplotlib.axis_1">
    <g id="xtick_1">
     <g id="line2d_1">
      <path d="M 52.451575 348.7593 
L 52.451575 22.318125 
" clip-path="url(#p18b9995a2e)" style="fill: none; stroke-dasharray: 2.96,1.28; stroke-dashoffset: 0; stroke: #b0b0b0; stroke-opacity: 0.7; stroke-width: 0.8"/>
     </g>
     <g id="line2d_2">
      <defs>
       <path id="m376f20719a" d="M 0 0 
L 0 3.5 
" style="stroke: #000000; stroke-width: 0.8"/>
      </defs>
      <g>
       <use xlink:href="#m376f20719a" x="52.451575" y="348.7593" style="stroke: #000000; stroke-width: 0.8"/>
      </g>
     </g>
     <g id="text_1">
      <!-- 2025-02-15 -->
      <g transform="translate(33.855772 402.22616) rotate(-45) scale(0.1 -0.1)">
       <defs>
        <path id="DejaVuSans-32" d="M 1228 531 
L 3431 531 
L 3431 0 
L 469 0 
L 469 531 
Q 828 903 1448 1529 
Q 2069 2156 2228 2338 
Q 2531 2678 2651 2914 
Q 2772 3150 2772 3378 
Q 2772 3750 2511 3984 
Q 2250 4219 1831 4219 
Q 1534 4219 1204 4116 
Q 875 4013 500 3803 
L 500 4441 
Q 881 4594 1212 4672 
Q 1544 4750 1819 4750 
Q 2544 4750 2975 4387 
Q 3406 4025 3406 3419 
Q 3406 3131 3298 2873 
Q 3191 2616 2906 2266 
Q 2828 2175 2409 1742 
Q 1991 1309 1228 531 
z
" transform="scale(0.015625)"/>
        <path id="DejaVuSans-30" d="M 2034 4250 
Q 1547 4250 1301 3770 
Q 1056 3291 1056 2328 
Q 1056 1369 1301 889 
Q 1547 409 2034 409 
Q 2525 409 2770 889 
Q 3016 1369 3016 2328 
Q 3016 3291 2770 3770 
Q 2525 4250 2034 4250 
z
M 2034 4750 
Q 2819 4750 3233 4129 
Q 3647 3509 3647 2328 
Q 3647 1150 3233 529 
Q 2819 -91 2034 -91 
Q 1250 -91 836 529 
Q 422 1150 422 2328 
Q 422 3509 836 4129 
Q 1250 4750 2034 4750 
z
" transform="scale(0.015625)"/>
        <path id="DejaVuSans-35" d="M 691 4666 
L 3169 4666 
L 3169 4134 
L 1269 4134 
L 1269 2991 
Q 1406 3038 1543 3061 
Q 1681 3084 1819 3084 
Q 2600 3084 3056 2656 
Q 3513 2228 3513 1497 
Q 3513 744 3044 326 
Q 2575 -91 1722 -91 
Q 1428 -91 1123 -41 
Q 819 9 494 109 
L 494 744 
Q 775 591 1075 516 
Q 1375 441 1709 441 
Q 2250 441 2565 725 
Q 2881 1009 2881 1497 
Q 2881 1984 2565 2268 
Q 2250 2553 1709 2553 
Q 1456 2553 1204 2497 
Q 953 2441 691 2322 
L 691 4666 
z
" transform="scale(0.015625)"/>
        <path id="DejaVuSans-2d" d="M 313 2009 
L 1997 2009 
L 1997 1497 
L 313 1497 
L 313 2009 
z
" transform="scale(0.015625)"/>
        <path id="DejaVuSans-31" d="M 794 531 
L 1825 531 
L 1825 4091 
L 703 3866 
L 703 4441 
L 1819 4666 
L 2450 4666 
L 2450 531 
L 3481 531 
L 3481 0 
L 794 0 
L 794 531 
z
" transform="scale(0.015625)"/>
       </defs>
       <use xlink:href="#DejaVuSans-32"/>
       <use xlink:href="#DejaVuSans-30" x="63.623047"/>
       <use xlink:href="#DejaVuSans-32" x="127.246094"/>
       <use xlink:href="#DejaVuSans-35" x="190.869141"/>
       <use xlink:href="#DejaVuSans-2d" x="254.492188"/>
       <use xlink:href="#DejaVuSans-30" x="290.576172"/>
       <use xlink:href="#DejaVuSans-32" x="354.199219"/>
       <use xlink:href="#DejaVuSans-2d" x="417.822266"/>
       <use xlink:href="#DejaVuSans-31" x="453.90625"/>
       <use xlink:href="#DejaVuSans-35" x="517.529297"/>
      </g>
     </g>
    </g>
    <g id="xtick_2">
     <g id="line2d_3">
      <path d="M 135.260837 348.7593 
L 135.260837 22.318125 
" clip-path="url(#p18b9995a2e)" style="fill: none; stroke-dasharray: 2.96,1.28; stroke-dashoffset: 0; stroke: #b0b0b0; stroke-opacity: 0.7; stroke-width: 0.8"/>
     </g>
     <g id="line2d_4">
      <g>
       <use xlink:href="#m376f20719a" x="135.260837" y="348.7593" style="stroke: #000000; stroke-width: 0.8"/>
      </g>
     </g>
     <g id="text_2">
      <!-- 2025-03-01 -->
      <g transform="translate(116.665033 402.22616) rotate(-45) scale(0.1 -0.1)">
       <defs>
        <path id="DejaVuSans-33" d="M 2597 2516 
Q 3050 2419 3304 2112 
Q 3559 1806 3559 1356 
Q 3559 666 3084 287 
Q 2609 -91 1734 -91 
Q 1441 -91 1130 -33 
Q 819 25 488 141 
L 488 750 
Q 750 597 1062 519 
Q 1375 441 1716 441 
Q 2309 441 2620 675 
Q 2931 909 2931 1356 
Q 2931 1769 2642 2001 
Q 2353 2234 1838 2234 
L 1294 2234 
L 1294 2753 
L 1863 2753 
Q 2328 2753 2575 2939 
Q 2822 3125 2822 3475 
Q 2822 3834 2567 4026 
Q 2313 4219 1838 4219 
Q 1578 4219 1281 4162 
Q 984 4106 628 3988 
L 628 4550 
Q 988 4650 1302 4700 
Q 1616 4750 1894 4750 
Q 2613 4750 3031 4423 
Q 3450 4097 3450 3541 
Q 3450 3153 3228 2886 
Q 3006 2619 2597 2516 
z
" transform="scale(0.015625)"/>
       </defs>
       <use xlink:href="#DejaVuSans-32"/>
       <use xlink:href="#DejaVuSans-30" x="63.623047"/>
       <use xlink:href="#DejaVuSans-32" x="127.246094"/>
       <use xlink:href="#DejaVuSans-35" x="190.869141"/>
       <use xlink:href="#DejaVuSans-2d" x="254.492188"/>
       <use xlink:href="#DejaVuSans-30" x="290.576172"/>
       <use xlink:href="#DejaVuSans-33" x="354.199219"/>
       <use xlink:href="#DejaVuSans-2d" x="417.822266"/>
       <use xlink:href="#DejaVuSans-30" x="453.90625"/>
       <use xlink:href="#DejaVuSans-31" x="517.529297"/>
      </g>
     </g>
    </g>
    <g id="xtick_3">
     <g id="line2d_5">
      <path d="M 218.070098 348.7593 
L 218.070098 22.318125 
" clip-path="url(#p18b9995a2e)" style="fill: none; stroke-dasharray: 2.96,1.28; stroke-dashoffset: 0; stroke: #b0b0b0; stroke-opacity: 0.7; stroke-width: 0.8"/>
     </g>
     <g id="line2d_6">
      <g>
       <use xlink:href="#m376f20719a" x="218.070098" y="348.7593" style="stroke: #000000; stroke-width: 0.8"/>
      </g>
     </g>
     <g id="text_3">
      <!-- 2025-03-15 -->
      <g transform="translate(199.474295 402.22616) rotate(-45) scale(0.1 -0.1)">
       <use xlink:href="#DejaVuSans-32"/>
       <use xlink:href="#DejaVuSans-30" x="63.623047"/>
       <use xlink:href="#DejaVuSans-32" x="127.246094"/>
       <use xlink:href="#DejaVuSans-35" x="190.869141"/>
       <use xlink:href="#DejaVuSans-2d" x="254.492188"/>
       <use xlink:href="#DejaVuSans-30" x="290.576172"/>
       <use xlink:href="#DejaVuSans-33" x="354.199219"/>
       <use xlink:href="#DejaVuSans-2d" x="417.822266"/>
       <use xlink:href="#DejaVuSans-31" x="453.90625"/>
       <use xlink:href="#DejaVuSans-35" x="517.529297"/>
      </g>
     </g>
    </g>
    <g id="xtick_4">
     <g id="line2d_7">
      <path d="M 318.624201 348.7593 
L 318.624201 22.318125 
" clip-path="url(#p18b9995a2e)" style="fill: none; stroke-dasharray: 2.96,1.28; stroke-dashoffset: 0; stroke: #b0b0b0; stroke-opacity: 0.7; stroke-width: 0.8"/>
     </g>
     <g id="line2d_8">
      <g>
       <use xlink:href="#m376f20719a" x="318.624201" y="348.7593" style="stroke: #000000; stroke-width: 0.8"/>
      </g>
     </g>
     <g id="text_4">
      <!-- 2025-04-01 -->
      <g transform="translate(300.028397 402.22616) rotate(-45) scale(0.1 -0.1)">
       <defs>
        <path id="DejaVuSans-34" d="M 2419 4116 
L 825 1625 
L 2419 1625 
L 2419 4116 
z
M 2253 4666 
L 3047 4666 
L 3047 1625 
L 3713 1625 
L 3713 1100 
L 3047 1100 
L 3047 0 
L 2419 0 
L 2419 1100 
L 313 1100 
L 313 1709 
L 2253 4666 
z
" transform="scale(0.015625)"/>
       </defs>
       <use xlink:href="#DejaVuSans-32"/>
       <use xlink:href="#DejaVuSans-30" x="63.623047"/>
       <use xlink:href="#DejaVuSans-32" x="127.246094"/>
       <use xlink:href="#DejaVuSans-35" x="190.869141"/>
       <use xlink:href="#DejaVuSans-2d" x="254.492188"/>
       <use xlink:href="#DejaVuSans-30" x="290.576172"/>
       <use xlink:href="#DejaVuSans-34" x="354.199219"/>
       <use xlink:href="#DejaVuSans-2d" x="417.822266"/>
       <use xlink:href="#DejaVuSans-30" x="453.90625"/>
       <use xlink:href="#DejaVuSans-31" x="517.529297"/>
      </g>
     </g>
    </g>
    <g id="xtick_5">
     <g id="line2d_9">
      <path d="M 401.433462 348.7593 
L 401.433462 22.318125 
" clip-path="url(#p18b9995a2e)" style="fill: none; stroke-dasharray: 2.96,1.28; stroke-dashoffset: 0; stroke: #b0b0b0; stroke-opacity: 0.7; stroke-width: 0.8"/>
     </g>
     <g id="line2d_10">
      <g>
       <use xlink:href="#m376f20719a" x="401.433462" y="348.7593" style="stroke: #000000; stroke-width: 0.8"/>
      </g>
     </g>
     <g id="text_5">
      <!-- 2025-04-15 -->
      <g transform="translate(382.837659 402.22616) rotate(-45) scale(0.1 -0.1)">
       <use xlink:href="#DejaVuSans-32"/>
       <use xlink:href="#DejaVuSans-30" x="63.623047"/>
       <use xlink:href="#DejaVuSans-32" x="127.246094"/>
       <use xlink:href="#DejaVuSans-35" x="190.869141"/>
       <use xlink:href="#DejaVuSans-2d" x="254.492188"/>
       <use xlink:href="#DejaVuSans-30" x="290.576172"/>
       <use xlink:href="#DejaVuSans-34" x="354.199219"/>
       <use xlink:href="#DejaVuSans-2d" x="417.822266"/>
       <use xlink:href="#DejaVuSans-31" x="453.90625"/>
       <use xlink:href="#DejaVuSans-35" x="517.529297"/>
      </g>
     </g>
    </g>
    <g id="xtick_6">
     <g id="line2d_11">
      <path d="M 496.072618 348.7593 
L 496.072618 22.318125 
" clip-path="url(#p18b9995a2e)" style="fill: none; stroke-dasharray: 2.96,1.28; stroke-dashoffset: 0; stroke: #b0b0b0; stroke-opacity: 0.7; stroke-width: 0.8"/>
     </g>
     <g id="line2d_12">
      <g>
       <use xlink:href="#m376f20719a" x="496.072618" y="348.7593" style="stroke: #000000; stroke-width: 0.8"/>
      </g>
     </g>
     <g id="text_6">
      <!-- 2025-05-01 -->
      <g transform="translate(477.476815 402.22616) rotate(-45) scale(0.1 -0.1)">
       <use xlink:href="#DejaVuSans-32"/>
       <use xlink:href="#DejaVuSans-30" x="63.623047"/>
       <use xlink:href="#DejaVuSans-32" x="127.246094"/>
       <use xlink:href="#DejaVuSans-35" x="190.869141"/>
       <use xlink:href="#DejaVuSans-2d" x="254.492188"/>
       <use xlink:href="#DejaVuSans-30" x="290.576172"/>
       <use xlink:href="#DejaVuSans-35" x="354.199219"/>
       <use xlink:href="#DejaVuSans-2d" x="417.822266"/>
       <use xlink:href="#DejaVuSans-30" x="453.90625"/>
       <use xlink:href="#DejaVuSans-31" x="517.529297"/>
      </g>
     </g>
    </g>
    <g id="xtick_7">
     <g id="line2d_13">
      <path d="M 578.881879 348.7593 
L 578.881879 22.318125 
" clip-path="url(#p18b9995a2e)" style="fill: none; stroke-dasharray: 2.96,1.28; stroke-dashoffset: 0; stroke: #b0b0b0; stroke-opacity: 0.7; stroke-width: 0.8"/>
     </g>
     <g id="line2d_14">
      <g>
       <use xlink:href="#m376f20719a" x="578.881879" y="348.7593" style="stroke: #000000; stroke-width: 0.8"/>
      </g>
     </g>
     <g id="text_7">
      <!-- 2025-05-15 -->
      <g transform="translate(560.286076 402.22616) rotate(-45) scale(0.1 -0.1)">
       <use xlink:href="#DejaVuSans-32"/>
       <use xlink:href="#DejaVuSans-30" x="63.623047"/>
       <use xlink:href="#DejaVuSans-32" x="127.246094"/>
       <use xlink:href="#DejaVuSans-35" x="190.869141"/>
       <use xlink:href="#DejaVuSans-2d" x="254.492188"/>
       <use xlink:href="#DejaVuSans-30" x="290.576172"/>
       <use xlink:href="#DejaVuSans-35" x="354.199219"/>
       <use xlink:href="#DejaVuSans-2d" x="417.822266"/>
       <use xlink:href="#DejaVuSans-31" x="453.90625"/>
       <use xlink:href="#DejaVuSans-35" x="517.529297"/>
      </g>
     </g>
    </g>
    <g id="xtick_8">
     <g id="line2d_15">
      <path d="M 679.435982 348.7593 
L 679.435982 22.318125 
" clip-path="url(#p18b9995a2e)" style="fill: none; stroke-dasharray: 2.96,1.28; stroke-dashoffset: 0; stroke: #b0b0b0; stroke-opacity: 0.7; stroke-width: 0.8"/>
     </g>
     <g id="line2d_16">
      <g>
       <use xlink:href="#m376f20719a" x="679.435982" y="348.7593" style="stroke: #000000; stroke-width: 0.8"/>
      </g>
     </g>
     <g id="text_8">
      <!-- 2025-06-01 -->
      <g transform="translate(660.840179 402.22616) rotate(-45) scale(0.1 -0.1)">
       <defs>
        <path id="DejaVuSans-36" d="M 2113 2584 
Q 1688 2584 1439 2293 
Q 1191 2003 1191 1497 
Q 1191 994 1439 701 
Q 1688 409 2113 409 
Q 2538 409 2786 701 
Q 3034 994 3034 1497 
Q 3034 2003 2786 2293 
Q 2538 2584 2113 2584 
z
M 3366 4563 
L 3366 3988 
Q 3128 4100 2886 4159 
Q 2644 4219 2406 4219 
Q 1781 4219 1451 3797 
Q 1122 3375 1075 2522 
Q 1259 2794 1537 2939 
Q 1816 3084 2150 3084 
Q 2853 3084 3261 2657 
Q 3669 2231 3669 1497 
Q 3669 778 3244 343 
Q 2819 -91 2113 -91 
Q 1303 -91 875 529 
Q 447 1150 447 2328 
Q 447 3434 972 4092 
Q 1497 4750 2381 4750 
Q 2619 4750 2861 4703 
Q 3103 4656 3366 4563 
z
" transform="scale(0.015625)"/>
       </defs>
       <use xlink:href="#DejaVuSans-32"/>
       <use xlink:href="#DejaVuSans-30" x="63.623047"/>
       <use xlink:href="#DejaVuSans-32" x="127.246094"/>
       <use xlink:href="#DejaVuSans-35" x="190.869141"/>
       <use xlink:href="#DejaVuSans-2d" x="254.492188"/>
       <use xlink:href="#DejaVuSans-30" x="290.576172"/>
       <use xlink:href="#DejaVuSans-36" x="354.199219"/>
       <use xlink:href="#DejaVuSans-2d" x="417.822266"/>
       <use xlink:href="#DejaVuSans-30" x="453.90625"/>
       <use xlink:href="#DejaVuSans-31" x="517.529297"/>
      </g>
     </g>
    </g>
    <g id="text_9">
     <!-- Date -->
     <g transform="translate(357.083721 415.295158) scale(0.1 -0.1)">
      <defs>
       <path id="DejaVuSans-44" d="M 1259 4147 
L 1259 519 
L 2022 519 
Q 2988 519 3436 956 
Q 3884 1394 3884 2338 
Q 3884 3275 3436 3711 
Q 2988 4147 2022 4147 
L 1259 4147 
z
M 628 4666 
L 1925 4666 
Q 3281 4666 3915 4102 
Q 4550 3538 4550 2338 
Q 4550 1131 3912 565 
Q 3275 0 1925 0 
L 628 0 
L 628 4666 
z
" transform="scale(0.015625)"/>
       <path id="DejaVuSans-61" d="M 2194 1759 
Q 1497 1759 1228 1600 
Q 959 1441 959 1056 
Q 959 750 1161 570 
Q 1363 391 1709 391 
Q 2188 391 2477 730 
Q 2766 1069 2766 1631 
L 2766 1759 
L 2194 1759 
z
M 3341 1997 
L 3341 0 
L 2766 0 
L 2766 531 
Q 2569 213 2275 61 
Q 1981 -91 1556 -91 
Q 1019 -91 701 211 
Q 384 513 384 1019 
Q 384 1609 779 1909 
Q 1175 2209 1959 2209 
L 2766 2209 
L 2766 2266 
Q 2766 2663 2505 2880 
Q 2244 3097 1772 3097 
Q 1472 3097 1187 3025 
Q 903 2953 641 2809 
L 641 3341 
Q 956 3463 1253 3523 
Q 1550 3584 1831 3584 
Q 2591 3584 2966 3190 
Q 3341 2797 3341 1997 
z
" transform="scale(0.015625)"/>
       <path id="DejaVuSans-74" d="M 1172 4494 
L 1172 3500 
L 2356 3500 
L 2356 3053 
L 1172 3053 
L 1172 1153 
Q 1172 725 1289 603 
Q 1406 481 1766 481 
L 2356 481 
L 2356 0 
L 1766 0 
Q 1100 0 847 248 
Q 594 497 594 1153 
L 594 3053 
L 172 3053 
L 172 3500 
L 594 3500 
L 594 4494 
L 1172 4494 
z
" transform="scale(0.015625)"/>
       <path id="DejaVuSans-65" d="M 3597 1894 
L 3597 1613 
L 953 1613 
Q 991 1019 1311 708 
Q 1631 397 2203 397 
Q 2534 397 2845 478 
Q 3156 559 3463 722 
L 3463 178 
Q 3153 47 2828 -22 
Q 2503 -91 2169 -91 
Q 1331 -91 842 396 
Q 353 884 353 1716 
Q 353 2575 817 3079 
Q 1281 3584 2069 3584 
Q 2775 3584 3186 3129 
Q 3597 2675 3597 1894 
z
M 3022 2063 
Q 3016 2534 2758 2815 
Q 2500 3097 2075 3097 
Q 1594 3097 1305 2825 
Q 1016 2553 972 2059 
L 3022 2063 
z
" transform="scale(0.015625)"/>
      </defs>
      <use xlink:href="#DejaVuSans-44"/>
      <use xlink:href="#DejaVuSans-61" x="77.001953"/>
      <use xlink:href="#DejaVuSans-74" x="138.28125"/>
      <use xlink:href="#DejaVuSans-65" x="177.490234"/>
     </g>
    </g>
   </g>
   <g id="matplotlib.axis_2">
    <g id="ytick_1">
     <g id="line2d_17">
      <path d="M 46.965625 338.41574 
L 691.103379 338.41574 
" clip-path="url(#p18b9995a2e)" style="fill: none; stroke-dasharray: 2.96,1.28; stroke-dashoffset: 0; stroke: #b0b0b0; stroke-opacity: 0.7; stroke-width: 0.8"/>
     </g>
     <g id="line2d_18">
      <defs>
       <path id="m7249b6431d" d="M 0 0 
L -3.5 0 
" style="stroke: #000000; stroke-width: 0.8"/>
      </defs>
      <g>
       <use xlink:href="#m7249b6431d" x="46.965625" y="338.41574" style="stroke: #000000; stroke-width: 0.8"/>
      </g>
     </g>
     <g id="text_10">
      <!-- 75 -->
      <g transform="translate(27.240625 342.214958) scale(0.1 -0.1)">
       <defs>
        <path id="DejaVuSans-37" d="M 525 4666 
L 3525 4666 
L 3525 4397 
L 1831 0 
L 1172 0 
L 2766 4134 
L 525 4134 
L 525 4666 
z
" transform="scale(0.015625)"/>
       </defs>
       <use xlink:href="#DejaVuSans-37"/>
       <use xlink:href="#DejaVuSans-35" x="63.623047"/>
      </g>
     </g>
    </g>
    <g id="ytick_2">
     <g id="line2d_19">
      <path d="M 46.965625 294.062304 
L 691.103379 294.062304 
" clip-path="url(#p18b9995a2e)" style="fill: none; stroke-dasharray: 2.96,1.28; stroke-dashoffset: 0; stroke: #b0b0b0; stroke-opacity: 0.7; stroke-width: 0.8"/>
     </g>
     <g id="line2d_20">
      <g>
       <use xlink:href="#m7249b6431d" x="46.965625" y="294.062304" style="stroke: #000000; stroke-width: 0.8"/>
      </g>
     </g>
     <g id="text_11">
      <!-- 80 -->
      <g transform="translate(27.240625 297.861522) scale(0.1 -0.1)">
       <defs>
        <path id="DejaVuSans-38" d="M 2034 2216 
Q 1584 2216 1326 1975 
Q 1069 1734 1069 1313 
Q 1069 891 1326 650 
Q 1584 409 2034 409 
Q 2484 409 2743 651 
Q 3003 894 3003 1313 
Q 3003 1734 2745 1975 
Q 2488 2216 2034 2216 
z
M 1403 2484 
Q 997 2584 770 2862 
Q 544 3141 544 3541 
Q 544 4100 942 4425 
Q 1341 4750 2034 4750 
Q 2731 4750 3128 4425 
Q 3525 4100 3525 3541 
Q 3525 3141 3298 2862 
Q 3072 2584 2669 2484 
Q 3125 2378 3379 2068 
Q 3634 1759 3634 1313 
Q 3634 634 3220 271 
Q 2806 -91 2034 -91 
Q 1263 -91 848 271 
Q 434 634 434 1313 
Q 434 1759 690 2068 
Q 947 2378 1403 2484 
z
M 1172 3481 
Q 1172 3119 1398 2916 
Q 1625 2713 2034 2713 
Q 2441 2713 2670 2916 
Q 2900 3119 2900 3481 
Q 2900 3844 2670 4047 
Q 2441 4250 2034 4250 
Q 1625 4250 1398 4047 
Q 1172 3844 1172 3481 
z
" transform="scale(0.015625)"/>
       </defs>
       <use xlink:href="#DejaVuSans-38"/>
       <use xlink:href="#DejaVuSans-30" x="63.623047"/>
      </g>
     </g>
    </g>
    <g id="ytick_3">
     <g id="line2d_21">
      <path d="M 46.965625 249.708868 
L 691.103379 249.708868 
" clip-path="url(#p18b9995a2e)" style="fill: none; stroke-dasharray: 2.96,1.28; stroke-dashoffset: 0; stroke: #b0b0b0; stroke-opacity: 0.7; stroke-width: 0.8"/>
     </g>
     <g id="line2d_22">
      <g>
       <use xlink:href="#m7249b6431d" x="46.965625" y="249.708868" style="stroke: #000000; stroke-width: 0.8"/>
      </g>
     </g>
     <g id="text_12">
      <!-- 85 -->
      <g transform="translate(27.240625 253.508086) scale(0.1 -0.1)">
       <use xlink:href="#DejaVuSans-38"/>
       <use xlink:href="#DejaVuSans-35" x="63.623047"/>
      </g>
     </g>
    </g>
    <g id="ytick_4">
     <g id="line2d_23">
      <path d="M 46.965625 205.355432 
L 691.103379 205.355432 
" clip-path="url(#p18b9995a2e)" style="fill: none; stroke-dasharray: 2.96,1.28; stroke-dashoffset: 0; stroke: #b0b0b0; stroke-opacity: 0.7; stroke-width: 0.8"/>
     </g>
     <g id="line2d_24">
      <g>
       <use xlink:href="#m7249b6431d" x="46.965625" y="205.355432" style="stroke: #000000; stroke-width: 0.8"/>
      </g>
     </g>
     <g id="text_13">
      <!-- 90 -->
      <g transform="translate(27.240625 209.15465) scale(0.1 -0.1)">
       <defs>
        <path id="DejaVuSans-39" d="M 703 97 
L 703 672 
Q 941 559 1184 500 
Q 1428 441 1663 441 
Q 2288 441 2617 861 
Q 2947 1281 2994 2138 
Q 2813 1869 2534 1725 
Q 2256 1581 1919 1581 
Q 1219 1581 811 2004 
Q 403 2428 403 3163 
Q 403 3881 828 4315 
Q 1253 4750 1959 4750 
Q 2769 4750 3195 4129 
Q 3622 3509 3622 2328 
Q 3622 1225 3098 567 
Q 2575 -91 1691 -91 
Q 1453 -91 1209 -44 
Q 966 3 703 97 
z
M 1959 2075 
Q 2384 2075 2632 2365 
Q 2881 2656 2881 3163 
Q 2881 3666 2632 3958 
Q 2384 4250 1959 4250 
Q 1534 4250 1286 3958 
Q 1038 3666 1038 3163 
Q 1038 2656 1286 2365 
Q 1534 2075 1959 2075 
z
" transform="scale(0.015625)"/>
       </defs>
       <use xlink:href="#DejaVuSans-39"/>
       <use xlink:href="#DejaVuSans-30" x="63.623047"/>
      </g>
     </g>
    </g>
    <g id="ytick_5">
     <g id="line2d_25">
      <path d="M 46.965625 161.001996 
L 691.103379 161.001996 
" clip-path="url(#p18b9995a2e)" style="fill: none; stroke-dasharray: 2.96,1.28; stroke-dashoffset: 0; stroke: #b0b0b0; stroke-opacity: 0.7; stroke-width: 0.8"/>
     </g>
     <g id="line2d_26">
      <g>
       <use xlink:href="#m7249b6431d" x="46.965625" y="161.001996" style="stroke: #000000; stroke-width: 0.8"/>
      </g>
     </g>
     <g id="text_14">
      <!-- 95 -->
      <g transform="translate(27.240625 164.801214) scale(0.1 -0.1)">
       <use xlink:href="#DejaVuSans-39"/>
       <use xlink:href="#DejaVuSans-35" x="63.623047"/>
      </g>
     </g>
    </g>
    <g id="ytick_6">
     <g id="line2d_27">
      <path d="M 46.965625 116.64856 
L 691.103379 116.64856 
" clip-path="url(#p18b9995a2e)" style="fill: none; stroke-dasharray: 2.96,1.28; stroke-dashoffset: 0; stroke: #b0b0b0; stroke-opacity: 0.7; stroke-width: 0.8"/>
     </g>
     <g id="line2d_28">
      <g>
       <use xlink:href="#m7249b6431d" x="46.965625" y="116.64856" style="stroke: #000000; stroke-width: 0.8"/>
      </g>
     </g>
     <g id="text_15">
      <!-- 100 -->
      <g transform="translate(20.878125 120.447778) scale(0.1 -0.1)">
       <use xlink:href="#DejaVuSans-31"/>
       <use xlink:href="#DejaVuSans-30" x="63.623047"/>
       <use xlink:href="#DejaVuSans-30" x="127.246094"/>
      </g>
     </g>
    </g>
    <g id="ytick_7">
     <g id="line2d_29">
      <path d="M 46.965625 72.295124 
L 691.103379 72.295124 
" clip-path="url(#p18b9995a2e)" style="fill: none; stroke-dasharray: 2.96,1.28; stroke-dashoffset: 0; stroke: #b0b0b0; stroke-opacity: 0.7; stroke-width: 0.8"/>
     </g>
     <g id="line2d_30">
      <g>
       <use xlink:href="#m7249b6431d" x="46.965625" y="72.295124" style="stroke: #000000; stroke-width: 0.8"/>
      </g>
     </g>
     <g id="text_16">
      <!-- 105 -->
      <g transform="translate(20.878125 76.094342) scale(0.1 -0.1)">
       <use xlink:href="#DejaVuSans-31"/>
       <use xlink:href="#DejaVuSans-30" x="63.623047"/>
       <use xlink:href="#DejaVuSans-35" x="127.246094"/>
      </g>
     </g>
    </g>
    <g id="ytick_8">
     <g id="line2d_31">
      <path d="M 46.965625 27.941688 
L 691.103379 27.941688 
" clip-path="url(#p18b9995a2e)" style="fill: none; stroke-dasharray: 2.96,1.28; stroke-dashoffset: 0; stroke: #b0b0b0; stroke-opacity: 0.7; stroke-width: 0.8"/>
     </g>
     <g id="line2d_32">
      <g>
       <use xlink:href="#m7249b6431d" x="46.965625" y="27.941688" style="stroke: #000000; stroke-width: 0.8"/>
      </g>
     </g>
     <g id="text_17">
      <!-- 110 -->
      <g transform="translate(20.878125 31.740906) scale(0.1 -0.1)">
       <use xlink:href="#DejaVuSans-31"/>
       <use xlink:href="#DejaVuSans-31" x="63.623047"/>
       <use xlink:href="#DejaVuSans-30" x="127.246094"/>
      </g>
     </g>
    </g>
    <g id="text_18">
     <!-- Price -->
     <g transform="translate(14.798438 197.736369) rotate(-90) scale(0.1 -0.1)">
      <defs>
       <path id="DejaVuSans-50" d="M 1259 4147 
L 1259 2394 
L 2053 2394 
Q 2494 2394 2734 2622 
Q 2975 2850 2975 3272 
Q 2975 3691 2734 3919 
Q 2494 4147 2053 4147 
L 1259 4147 
z
M 628 4666 
L 2053 4666 
Q 2838 4666 3239 4311 
Q 3641 3956 3641 3272 
Q 3641 2581 3239 2228 
Q 2838 1875 2053 1875 
L 1259 1875 
L 1259 0 
L 628 0 
L 628 4666 
z
" transform="scale(0.015625)"/>
       <path id="DejaVuSans-72" d="M 2631 2963 
Q 2534 3019 2420 3045 
Q 2306 3072 2169 3072 
Q 1681 3072 1420 2755 
Q 1159 2438 1159 1844 
L 1159 0 
L 581 0 
L 581 3500 
L 1159 3500 
L 1159 2956 
Q 1341 3275 1631 3429 
Q 1922 3584 2338 3584 
Q 2397 3584 2469 3576 
Q 2541 3569 2628 3553 
L 2631 2963 
z
" transform="scale(0.015625)"/>
       <path id="DejaVuSans-69" d="M 603 3500 
L 1178 3500 
L 1178 0 
L 603 0 
L 603 3500 
z
M 603 4863 
L 1178 4863 
L 1178 4134 
L 603 4134 
L 603 4863 
z
" transform="scale(0.015625)"/>
       <path id="DejaVuSans-63" d="M 3122 3366 
L 3122 2828 
Q 2878 2963 2633 3030 
Q 2388 3097 2138 3097 
Q 1578 3097 1268 2742 
Q 959 2388 959 1747 
Q 959 1106 1268 751 
Q 1578 397 2138 397 
Q 2388 397 2633 464 
Q 2878 531 3122 666 
L 3122 134 
Q 2881 22 2623 -34 
Q 2366 -91 2075 -91 
Q 1284 -91 818 406 
Q 353 903 353 1747 
Q 353 2603 823 3093 
Q 1294 3584 2113 3584 
Q 2378 3584 2631 3529 
Q 2884 3475 3122 3366 
z
" transform="scale(0.015625)"/>
      </defs>
      <use xlink:href="#DejaVuSans-50"/>
      <use xlink:href="#DejaVuSans-72" x="58.552734"/>
      <use xlink:href="#DejaVuSans-69" x="99.666016"/>
      <use xlink:href="#DejaVuSans-63" x="127.449219"/>
      <use xlink:href="#DejaVuSans-65" x="182.429688"/>
     </g>
    </g>
   </g>
   <g id="line2d_33">
    <path d="M 76.244614 107.836168 
L 82.159561 110.289167 
L 88.074508 98.798282 
L 93.989456 71.777639 
L 99.904403 75.931842 
L 105.81935 80.085753 
L 111.734297 52.068347 
L 117.649244 38.453 
L 123.564192 46.782121 
L 129.479139 37.15636 
L 135.394086 45.378027 
L 141.309033 53.640713 
L 147.223981 49.34797 
L 153.138928 83.292191 
L 159.053875 113.894604 
L 164.968822 123.870357 
L 170.88377 141.839374 
L 176.798717 136.264194 
L 182.713664 152.373789 
L 188.628611 177.429998 
L 194.543558 151.427374 
L 200.458506 155.432956 
L 206.373453 154.234913 
L 212.2884 179.511904 
L 218.203347 189.170002 
L 224.118295 187.202083 
L 230.033242 207.62229 
L 235.948189 200.956891 
L 241.863136 211.613047 
L 247.778084 216.788095 
L 253.693031 227.463197 
L 259.607978 194.601237 
L 265.522925 194.840696 
L 271.437873 213.605942 
L 277.35282 199.012864 
L 283.267767 220.672309 
L 289.182714 216.966781 
L 295.097661 251.734023 
L 301.012609 275.297869 
L 306.927556 271.80528 
L 312.842503 258.703868 
L 318.75745 255.663559 
L 324.672398 257.715318 
L 330.587345 263.057312 
L 336.502292 289.288324 
L 342.417239 302.05935 
L 348.332187 310.231714 
L 354.247134 291.476913 
L 360.162081 285.380653 
L 366.077028 316.659408 
L 371.991976 310.909713 
L 377.906923 317.741602 
L 383.82187 329.751129 
L 389.736817 318.899151 
L 395.651764 300.607802 
L 401.566712 284.085613 
L 407.481659 298.974485 
L 413.396606 304.460338 
L 419.311553 298.583269 
L 425.226501 281.275758 
L 431.141448 289.776967 
L 437.056395 293.070813 
L 442.971342 312.698716 
L 448.88629 333.921065 
L 454.801237 319.50574 
L 460.716184 295.444178 
L 466.631131 296.721737 
L 472.546078 278.917684 
L 478.461026 272.501764 
L 484.375973 283.947075 
L 490.29092 277.53542 
L 496.205867 250.248538 
L 502.120815 250.884141 
L 508.035762 223.125212 
L 513.950709 269.603091 
L 519.865656 255.021411 
L 525.780604 253.477076 
L 531.695551 258.781877 
L 537.610498 257.153915 
L 543.525445 292.416119 
L 549.440393 296.3134 
L 555.35534 289.977733 
L 561.270287 263.757861 
L 567.185234 272.952687 
L 573.100181 287.296475 
L 579.015129 296.198334 
L 584.930076 279.957843 
L 590.845023 274.125346 
L 596.75997 283.52402 
L 602.674918 274.41795 
L 608.589865 272.695661 
L 614.504812 255.510568 
L 620.419759 267.965955 
L 626.334707 273.779131 
L 632.249654 280.735669 
L 638.164601 306.700436 
L 644.079548 301.446855 
L 649.994496 296.815376 
L 655.909443 296.724656 
L 661.82439 300.886554 
" clip-path="url(#p18b9995a2e)" style="fill: none; stroke: #2e86c1; stroke-opacity: 0.6; stroke-width: 1.5; stroke-linecap: square"/>
   </g>
   <g id="line2d_34">
    <path d="M 76.244614 107.836168 
L 82.159561 108.381279 
L 88.074508 106.251724 
L 93.989456 98.590816 
L 99.904403 93.555488 
L 105.81935 90.562214 
L 111.734297 82.008021 
L 117.649244 72.329128 
L 123.564192 66.652015 
L 129.479139 60.097425 
L 135.394086 56.826448 
L 141.309033 56.118507 
L 147.223981 54.613943 
L 153.138928 60.986887 
L 159.053875 72.744157 
L 164.968822 84.105535 
L 170.88377 96.935277 
L 176.798717 105.675036 
L 182.713664 116.052537 
L 188.628611 129.691973 
L 194.543558 134.522062 
L 200.458506 139.168927 
L 206.373453 142.516924 
L 212.2884 150.738031 
L 218.203347 159.278469 
L 224.118295 165.483716 
L 230.033242 174.847844 
L 235.948189 180.649854 
L 241.863136 187.530564 
L 247.778084 194.032238 
L 253.693031 201.46134 
L 259.607978 199.936872 
L 265.522925 198.804389 
L 271.437873 202.093623 
L 277.35282 201.40901 
L 283.267767 205.689743 
L 289.182714 208.195751 
L 295.097661 217.870923 
L 301.012609 230.632466 
L 306.927556 239.78198 
L 312.842503 243.986844 
L 318.75745 246.58167 
L 324.672398 249.055814 
L 330.587345 252.167258 
L 336.502292 260.416384 
L 342.417239 269.670376 
L 348.332187 278.684007 
L 354.247134 281.526875 
L 360.162081 282.38327 
L 366.077028 290.00019 
L 371.991976 294.64675 
L 377.906923 299.77894 
L 383.82187 306.439426 
L 389.736817 309.208254 
L 395.651764 307.297042 
L 401.566712 302.138947 
L 407.481659 301.435733 
L 413.396606 302.107867 
L 419.311553 301.324623 
L 425.226501 296.86932 
L 431.141448 295.293241 
L 437.056395 294.799368 
L 442.971342 298.777001 
L 448.88629 306.586793 
L 454.801237 309.45767 
L 460.716184 306.343561 
L 466.631131 304.205378 
L 472.546078 298.58589 
L 478.461026 292.789418 
L 484.375973 290.824453 
L 490.29092 287.871334 
L 496.205867 279.510713 
L 502.120815 273.149252 
L 508.035762 262.032799 
L 513.950709 263.715086 
L 519.865656 261.783158 
L 525.780604 259.937362 
L 531.695551 259.680588 
L 537.610498 259.119105 
L 543.525445 266.518441 
L 549.440393 273.139543 
L 555.35534 276.881363 
L 561.270287 273.965029 
L 567.185234 273.740064 
L 573.100181 276.7526 
L 579.015129 281.073874 
L 584.930076 280.825867 
L 590.845023 279.336863 
L 596.75997 280.267342 
L 602.674918 278.967477 
L 608.589865 277.57374 
L 614.504812 272.670813 
L 620.419759 271.625289 
L 626.334707 272.103921 
L 632.249654 274.022087 
L 638.164601 281.283942 
L 644.079548 285.76459 
L 649.994496 288.22032 
L 655.909443 290.110172 
L 661.82439 292.504924 
" clip-path="url(#p18b9995a2e)" style="fill: none; stroke: #e74c3c; stroke-width: 2; stroke-linecap: square"/>
   </g>
   <g id="line2d_35">
    <path d="M 76.244614 107.836168 
L 82.159561 108.186596 
L 88.074508 106.845408 
L 93.989456 101.835727 
L 99.904403 98.135172 
L 105.81935 95.556684 
L 111.734297 89.344064 
L 117.649244 82.073912 
L 123.564192 77.032228 
L 129.479139 71.335675 
L 135.394086 67.62744 
L 141.309033 65.629336 
L 147.223981 63.303426 
L 153.138928 66.158964 
L 159.053875 72.978341 
L 164.968822 80.248629 
L 170.88377 89.047307 
L 176.798717 95.792577 
L 182.713664 103.875607 
L 188.628611 114.383377 
L 194.543558 119.675377 
L 200.458506 124.783602 
L 206.373453 128.990932 
L 212.2884 136.208214 
L 218.203347 143.774184 
L 224.118295 149.978169 
L 230.033242 158.213044 
L 235.948189 164.319308 
L 241.863136 171.075556 
L 247.778084 177.605919 
L 253.693031 184.728387 
L 259.607978 186.138794 
L 265.522925 187.381923 
L 271.437873 191.128211 
L 277.35282 192.25459 
L 283.267767 196.314265 
L 289.182714 199.264624 
L 295.097661 206.760252 
L 301.012609 216.55134 
L 306.927556 224.44476 
L 312.842503 229.338919 
L 318.75745 233.099582 
L 324.672398 236.616115 
L 330.587345 240.393429 
L 336.502292 247.378414 
L 342.417239 255.189976 
L 348.332187 263.053082 
L 354.247134 267.113629 
L 360.162081 269.723204 
L 366.077028 276.428376 
L 371.991976 281.354281 
L 377.906923 286.55247 
L 383.82187 292.723707 
L 389.736817 296.463056 
L 395.651764 297.055163 
L 401.566712 295.20237 
L 407.481659 295.741243 
L 413.396606 296.986828 
L 419.311553 297.214891 
L 425.226501 294.937872 
L 431.141448 294.2006 
L 437.056395 294.039202 
L 442.971342 296.704847 
L 448.88629 302.021449 
L 454.801237 304.519205 
L 460.716184 303.222773 
L 466.631131 302.294053 
L 472.546078 298.954572 
L 478.461026 295.175599 
L 484.375973 293.571524 
L 490.29092 291.280652 
L 496.205867 285.418922 
L 502.120815 280.485382 
L 508.035762 272.291072 
L 513.950709 271.907074 
L 519.865656 269.494837 
L 525.780604 267.206585 
L 531.695551 266.003055 
L 537.610498 264.738892 
L 543.525445 268.692782 
L 549.440393 272.638585 
L 555.35534 275.115606 
L 561.270287 273.493071 
L 567.185234 273.415873 
L 573.100181 275.398816 
L 579.015129 278.370176 
L 584.930076 278.596985 
L 590.845023 277.95818 
L 596.75997 278.7533 
L 602.674918 278.133964 
L 608.589865 277.357064 
L 614.504812 274.236136 
L 620.419759 273.340396 
L 626.334707 273.403072 
L 632.249654 274.450586 
L 638.164601 279.057707 
L 644.079548 282.256157 
L 649.994496 284.336045 
L 655.909443 286.105847 
L 661.82439 288.217377 
" clip-path="url(#p18b9995a2e)" style="fill: none; stroke: #2ecc71; stroke-width: 2; stroke-linecap: square"/>
   </g>
   <g id="line2d_36">
    <path d="M 76.244614 107.836168 
L 82.159561 108.059168 
L 88.074508 107.217269 
L 93.989456 103.995484 
L 99.904403 101.444244 
L 105.81935 99.502563 
L 111.734297 95.190362 
L 117.649244 90.03242 
L 123.564192 86.100574 
L 129.479139 81.6511 
L 135.394086 78.353548 
L 141.309033 76.106927 
L 147.223981 73.674294 
L 153.138928 74.548649 
L 159.053875 78.125554 
L 164.968822 82.284172 
L 170.88377 87.698281 
L 176.798717 92.113364 
L 182.713664 97.591585 
L 188.628611 104.849622 
L 194.543558 109.083963 
L 200.458506 113.297508 
L 206.373453 117.01909 
L 212.2884 122.700255 
L 218.203347 128.74296 
L 224.118295 134.057425 
L 230.033242 140.74514 
L 235.948189 146.218936 
L 241.863136 152.163855 
L 247.778084 158.038786 
L 253.693031 164.350096 
L 259.607978 167.1002 
L 265.522925 169.622063 
L 271.437873 173.620598 
L 277.35282 175.928985 
L 283.267767 179.99656 
L 289.182714 183.357489 
L 295.097661 189.573538 
L 301.012609 197.366659 
L 306.927556 204.133806 
L 312.842503 209.094721 
L 318.75745 213.328252 
L 324.672398 217.36344 
L 330.587345 221.517428 
L 336.502292 227.678418 
L 342.417239 234.440321 
L 348.332187 241.330448 
L 354.247134 245.889218 
L 360.162081 249.479348 
L 366.077028 255.586626 
L 371.991976 260.615998 
L 377.906923 265.809234 
L 383.82187 271.622134 
L 389.736817 275.920045 
L 395.651764 278.164386 
L 401.566712 278.702679 
L 407.481659 280.545571 
L 413.396606 282.719641 
L 419.311553 284.161789 
L 425.226501 283.899422 
L 431.141448 284.433744 
L 437.056395 285.218932 
L 442.971342 287.717095 
L 448.88629 291.917455 
L 454.801237 294.425481 
L 460.716184 294.51809 
L 466.631131 294.718422 
L 472.546078 293.281991 
L 478.461026 291.392879 
L 484.375973 290.715988 
L 490.29092 289.517755 
L 496.205867 285.947826 
L 502.120815 282.760218 
L 508.035762 277.338854 
L 513.950709 276.635603 
L 519.865656 274.670676 
L 525.780604 272.743985 
L 531.695551 271.474703 
L 537.610498 270.172813 
L 543.525445 272.194932 
L 549.440393 274.38752 
L 555.35534 275.804812 
L 561.270287 274.709634 
L 567.185234 274.549912 
L 573.100181 275.70869 
L 579.015129 277.571385 
L 584.930076 277.788336 
L 590.845023 277.455337 
L 596.75997 278.007035 
L 602.674918 277.680755 
L 608.589865 277.227565 
L 614.504812 275.253292 
L 620.419759 274.590807 
L 626.334707 274.517018 
L 632.249654 275.08235 
L 638.164601 277.956722 
L 644.079548 280.092188 
L 649.994496 281.612478 
L 655.909443 282.986312 
L 661.82439 284.613607 
" clip-path="url(#p18b9995a2e)" style="fill: none; stroke: #f39c12; stroke-width: 2; stroke-linecap: square"/>
   </g>
   <g id="patch_3">
    <path d="M 46.965625 348.7593 
L 46.965625 22.318125 
" style="fill: none; stroke: #000000; stroke-width: 0.8; stroke-linejoin: miter; stroke-linecap: square"/>
   </g>
   <g id="patch_4">
    <path d="M 691.103379 348.7593 
L 691.103379 22.318125 
" style="fill: none; stroke: #000000; stroke-width: 0.8; stroke-linejoin: miter; stroke-linecap: square"/>
   </g>
   <g id="patch_5">
    <path d="M 46.965625 348.7593 
L 691.103379 348.7593 
" style="fill: none; stroke: #000000; stroke-width: 0.8; stroke-linejoin: miter; stroke-linecap: square"/>
   </g>
   <g id="patch_6">
    <path d="M 46.965625 22.318125 
L 691.103379 22.318125 
" style="fill: none; stroke: #000000; stroke-width: 0.8; stroke-linejoin: miter; stroke-linecap: square"/>
   </g>
   <g id="text_19">
    <!-- Price with Fibonacci EMAs -->
    <g transform="translate(291.842627 16.318125) scale(0.12 -0.12)">
     <defs>
      <path id="DejaVuSans-20" transform="scale(0.015625)"/>
      <path id="DejaVuSans-77" d="M 269 3500 
L 844 3500 
L 1563 769 
L 2278 3500 
L 2956 3500 
L 3675 769 
L 4391 3500 
L 4966 3500 
L 4050 0 
L 3372 0 
L 2619 2869 
L 1863 0 
L 1184 0 
L 269 3500 
z
" transform="scale(0.015625)"/>
      <path id="DejaVuSans-68" d="M 3513 2113 
L 3513 0 
L 2938 0 
L 2938 2094 
Q 2938 2591 2744 2837 
Q 2550 3084 2163 3084 
Q 1697 3084 1428 2787 
Q 1159 2491 1159 1978 
L 1159 0 
L 581 0 
L 581 4863 
L 1159 4863 
L 1159 2956 
Q 1366 3272 1645 3428 
Q 1925 3584 2291 3584 
Q 2894 3584 3203 3211 
Q 3513 2838 3513 2113 
z
" transform="scale(0.015625)"/>
      <path id="DejaVuSans-46" d="M 628 4666 
L 3309 4666 
L 3309 4134 
L 1259 4134 
L 1259 2759 
L 3109 2759 
L 3109 2228 
L 1259 2228 
L 1259 0 
L 628 0 
L 628 4666 
z
" transform="scale(0.015625)"/>
      <path id="DejaVuSans-62" d="M 3116 1747 
Q 3116 2381 2855 2742 
Q 2594 3103 2138 3103 
Q 1681 3103 1420 2742 
Q 1159 2381 1159 1747 
Q 1159 1113 1420 752 
Q 1681 391 2138 391 
Q 2594 391 2855 752 
Q 3116 1113 3116 1747 
z
M 1159 2969 
Q 1341 3281 1617 3432 
Q 1894 3584 2278 3584 
Q 2916 3584 3314 3078 
Q 3713 2572 3713 1747 
Q 3713 922 3314 415 
Q 2916 -91 2278 -91 
Q 1894 -91 1617 61 
Q 1341 213 1159 525 
L 1159 0 
L 581 0 
L 581 4863 
L 1159 4863 
L 1159 2969 
z
" transform="scale(0.015625)"/>
      <path id="DejaVuSans-6f" d="M 1959 3097 
Q 1497 3097 1228 2736 
Q 959 2375 959 1747 
Q 959 1119 1226 758 
Q 1494 397 1959 397 
Q 2419 397 2687 759 
Q 2956 1122 2956 1747 
Q 2956 2369 2687 2733 
Q 2419 3097 1959 3097 
z
M 1959 3584 
Q 2709 3584 3137 3096 
Q 3566 2609 3566 1747 
Q 3566 888 3137 398 
Q 2709 -91 1959 -91 
Q 1206 -91 779 398 
Q 353 888 353 1747 
Q 353 2609 779 3096 
Q 1206 3584 1959 3584 
z
" transform="scale(0.015625)"/>
      <path id="DejaVuSans-6e" d="M 3513 2113 
L 3513 0 
L 2938 0 
L 2938 2094 
Q 2938 2591 2744 2837 
Q 2550 3084 2163 3084 
Q 1697 3084 1428 2787 
Q 1159 2491 1159 1978 
L 1159 0 
L 581 0 
L 581 3500 
L 1159 3500 
L 1159 2956 
Q 1366 3272 1645 3428 
Q 1925 3584 2291 3584 
Q 2894 3584 3203 3211 
Q 3513 2838 3513 2113 
z
" transform="scale(0.015625)"/>
      <path id="DejaVuSans-45" d="M 628 4666 
L 3578 4666 
L 3578 4134 
L 1259 4134 
L 1259 2753 
L 3481 2753 
L 3481 2222 
L 1259 2222 
L 1259 531 
L 3634 531 
L 3634 0 
L 628 0 
L 628 4666 
z
" transform="scale(0.015625)"/>
      <path id="DejaVuSans-4d" d="M 628 4666 
L 1569 4666 
L 2759 1491 
L 3956 4666 
L 4897 4666 
L 4897 0 
L 4281 0 
L 4281 4097 
L 3078 897 
L 2444 897 
L 1241 4097 
L 1241 0 
L 628 0 
L 628 4666 
z
" transform="scale(0.015625)"/>
      <path id="DejaVuSans-41" d="M 2188 4044 
L 1331 1722 
L 3047 1722 
L 2188 4044 
z
M 1831 4666 
L 2547 4666 
L 4325 0 
L 3669 0 
L 3244 1197 
L 1141 1197 
L 716 0 
L 50 0 
L 1831 4666 
z
" transform="scale(0.015625)"/>
      <path id="DejaVuSans-73" d="M 2834 3397 
L 2834 2853 
Q 2591 2978 2328 3040 
Q 2066 3103 1784 3103 
Q 1356 3103 1142 2972 
Q 928 2841 928 2578 
Q 928 2378 1081 2264 
Q 1234 2150 1697 2047 
L 1894 2003 
Q 2506 1872 2764 1633 
Q 3022 1394 3022 966 
Q 3022 478 2636 193 
Q 2250 -91 1575 -91 
Q 1294 -91 989 -36 
Q 684 19 347 128 
L 347 722 
Q 666 556 975 473 
Q 1284 391 1588 391 
Q 1994 391 2212 530 
Q 2431 669 2431 922 
Q 2431 1156 2273 1281 
Q 2116 1406 1581 1522 
L 1381 1569 
Q 847 1681 609 1914 
Q 372 2147 372 2553 
Q 372 3047 722 3315 
Q 1072 3584 1716 3584 
Q 2034 3584 2315 3537 
Q 2597 3491 2834 3397 
z
" transform="scale(0.015625)"/>
     </defs>
     <use xlink:href="#DejaVuSans-50"/>
     <use xlink:href="#DejaVuSans-72" x="58.552734"/>
     <use xlink:href="#DejaVuSans-69" x="99.666016"/>
     <use xlink:href="#DejaVuSans-63" x="127.449219"/>
     <use xlink:href="#DejaVuSans-65" x="182.429688"/>
     <use xlink:href="#DejaVuSans-20" x="243.953125"/>
     <use xlink:href="#DejaVuSans-77" x="275.740234"/>
     <use xlink:href="#DejaVuSans-69" x="357.527344"/>
     <use xlink:href="#DejaVuSans-74" x="385.310547"/>
     <use xlink:href="#DejaVuSans-68" x="424.519531"/>
     <use xlink:href="#DejaVuSans-20" x="487.898438"/>
     <use xlink:href="#DejaVuSans-46" x="519.685547"/>
     <use xlink:href="#DejaVuSans-69" x="569.955078"/>
     <use xlink:href="#DejaVuSans-62" x="597.738281"/>
     <use xlink:href="#DejaVuSans-6f" x="661.214844"/>
     <use xlink:href="#DejaVuSans-6e" x="722.396484"/>
     <use xlink:href="#DejaVuSans-61" x="785.775391"/>
     <use xlink:href="#DejaVuSans-63" x="847.054688"/>
     <use xlink:href="#DejaVuSans-63" x="902.035156"/>
     <use xlink:href="#DejaVuSans-69" x="957.015625"/>
     <use xlink:href="#DejaVuSans-20" x="984.798828"/>
     <use xlink:href="#DejaVuSans-45" x="1016.585938"/>
     <use xlink:href="#DejaVuSans-4d" x="1079.769531"/>
     <use xlink:href="#DejaVuSans-41" x="1166.048828"/>
     <use xlink:href="#DejaVuSans-73" x="1234.457031"/>
    </g>
   </g>
   <g id="legend_1">
    <g id="patch_7">
     <path d="M 589.278379 89.030625 
L 684.103379 89.030625 
Q 686.103379 89.030625 686.103379 87.030625 
L 686.103379 29.318125 
Q 686.103379 27.318125 684.103379 27.318125 
L 589.278379 27.318125 
Q 587.278379 27.318125 587.278379 29.318125 
L 587.278379 87.030625 
Q 587.278379 89.030625 589.278379 89.030625 
z
" style="fill: #ffffff; opacity: 0.8; stroke: #cccccc; stroke-linejoin: miter"/>
    </g>
    <g id="line2d_37">
     <path d="M 591.278379 35.416562 
L 601.278379 35.416562 
L 611.278379 35.416562 
" style="fill: none; stroke: #2e86c1; stroke-opacity: 0.6; stroke-width: 1.5; stroke-linecap: square"/>
    </g>
    <g id="text_20">
     <!-- Price -->
     <g transform="translate(619.278379 38.916562) scale(0.1 -0.1)">
      <use xlink:href="#DejaVuSans-50"/>
      <use xlink:href="#DejaVuSans-72" x="58.552734"/>
      <use xlink:href="#DejaVuSans-69" x="99.666016"/>
      <use xlink:href="#DejaVuSans-63" x="127.449219"/>
      <use xlink:href="#DejaVuSans-65" x="182.429688"/>
     </g>
    </g>
    <g id="line2d_38">
     <path d="M 591.278379 50.094688 
L 601.278379 50.094688 
L 611.278379 50.094688 
" style="fill: none; stroke: #e74c3c; stroke-width: 2; stroke-linecap: square"/>
    </g>
    <g id="text_21">
     <!-- Fib EMA (8) -->
     <g transform="translate(619.278379 53.594688) scale(0.1 -0.1)">
      <defs>
       <path id="DejaVuSans-28" d="M 1984 4856 
Q 1566 4138 1362 3434 
Q 1159 2731 1159 2009 
Q 1159 1288 1364 580 
Q 1569 -128 1984 -844 
L 1484 -844 
Q 1016 -109 783 600 
Q 550 1309 550 2009 
Q 550 2706 781 3412 
Q 1013 4119 1484 4856 
L 1984 4856 
z
" transform="scale(0.015625)"/>
       <path id="DejaVuSans-29" d="M 513 4856 
L 1013 4856 
Q 1481 4119 1714 3412 
Q 1947 2706 1947 2009 
Q 1947 1309 1714 600 
Q 1481 -109 1013 -844 
L 513 -844 
Q 928 -128 1133 580 
Q 1338 1288 1338 2009 
Q 1338 2731 1133 3434 
Q 928 4138 513 4856 
z
" transform="scale(0.015625)"/>
      </defs>
      <use xlink:href="#DejaVuSans-46"/>
      <use xlink:href="#DejaVuSans-69" x="50.269531"/>
      <use xlink:href="#DejaVuSans-62" x="78.052734"/>
      <use xlink:href="#DejaVuSans-20" x="141.529297"/>
      <use xlink:href="#DejaVuSans-45" x="173.316406"/>
      <use xlink:href="#DejaVuSans-4d" x="236.5"/>
      <use xlink:href="#DejaVuSans-41" x="322.779297"/>
      <use xlink:href="#DejaVuSans-20" x="391.1875"/>
      <use xlink:href="#DejaVuSans-28" x="422.974609"/>
      <use xlink:href="#DejaVuSans-38" x="461.988281"/>
      <use xlink:href="#DejaVuSans-29" x="525.611328"/>
     </g>
    </g>
    <g id="line2d_39">
     <path d="M 591.278379 64.772812 
L 601.278379 64.772812 
L 611.278379 64.772812 
" style="fill: none; stroke: #2ecc71; stroke-width: 2; stroke-linecap: square"/>
    </g>
    <g id="text_22">
     <!-- Fib EMA (13) -->
     <g transform="translate(619.278379 68.272812) scale(0.1 -0.1)">
      <use xlink:href="#DejaVuSans-46"/>
      <use xlink:href="#DejaVuSans-69" x="50.269531"/>
      <use xlink:href="#DejaVuSans-62" x="78.052734"/>
      <use xlink:href="#DejaVuSans-20" x="141.529297"/>
      <use xlink:href="#DejaVuSans-45" x="173.316406"/>
      <use xlink:href="#DejaVuSans-4d" x="236.5"/>
      <use xlink:href="#DejaVuSans-41" x="322.779297"/>
      <use xlink:href="#DejaVuSans-20" x="391.1875"/>
      <use xlink:href="#DejaVuSans-28" x="422.974609"/>
      <use xlink:href="#DejaVuSans-31" x="461.988281"/>
      <use xlink:href="#DejaVuSans-33" x="525.611328"/>
      <use xlink:href="#DejaVuSans-29" x="589.234375"/>
     </g>
    </g>
    <g id="line2d_40">
     <path d="M 591.278379 79.450938 
L 601.278379 79.450938 
L 611.278379 79.450938 
" style="fill: none; stroke: #f39c12; stroke-width: 2; stroke-linecap: square"/>
    </g>
    <g id="text_23">
     <!-- Fib EMA (21) -->
     <g transform="translate(619.278379 82.950938) scale(0.1 -0.1)">
      <use xlink:href="#DejaVuSans-46"/>
      <use xlink:href="#DejaVuSans-69" x="50.269531"/>
      <use xlink:href="#DejaVuSans-62" x="78.052734"/>
      <use xlink:href="#DejaVuSans-20" x="141.529297"/>
      <use xlink:href="#DejaVuSans-45" x="173.316406"/>
      <use xlink:href="#DejaVuSans-4d" x="236.5"/>
      <use xlink:href="#DejaVuSans-41" x="322.779297"/>
      <use xlink:href="#DejaVuSans-20" x="391.1875"/>
      <use xlink:href="#DejaVuSans-28" x="422.974609"/>
      <use xlink:href="#DejaVuSans-32" x="461.988281"/>
      <use xlink:href="#DejaVuSans-31" x="525.611328"/>
      <use xlink:href="#DejaVuSans-29" x="589.234375"/>
     </g>
    </g>
   </g>
  </g>
 </g>
 <defs>
  <clipPath id="p18b9995a2e">
   <rect x="46.965625" y="22.318125" width="644.137754" height="326.441175"/>
  </clipPath>
 </defs>
</svg>
