<?xml version="1.0" standalone="no"?>
<!DOCTYPE svg PUBLIC "-//W3C//DTD SVG 20010904//EN"
 "http://www.w3.org/TR/2001/REC-SVG-20010904/DTD/svg10.dtd">
<svg version="1.0" xmlns="http://www.w3.org/2000/svg"
 width="432.000000pt" height="432.000000pt" viewBox="0 0 432.000000 432.000000"
 preserveAspectRatio="xMidYMid meet">
<metadata>
Created by potrace 1.16, written by Peter Selinger 2001-2019
</metadata>
<g transform="translate(0.000000,432.000000) scale(0.100000,-0.100000)"
fill="#000000" stroke="none">
<path d="M882 4185 c-7 -9 -8 -15 -2 -15 5 0 10 -13 10 -30 0 -20 -5 -30 -15
-30 -8 0 -15 -4 -15 -10 0 -5 21 -10 46 -10 27 0 43 4 39 10 -3 6 -13 10 -21
10 -10 0 -14 12 -14 45 0 47 -6 54 -28 30z"/>
<path d="M960 4159 c0 -50 18 -69 63 -69 39 0 47 11 47 71 0 28 -4 39 -15 39
-11 0 -15 -12 -15 -45 0 -41 -2 -45 -25 -45 -23 0 -25 4 -25 45 0 33 -4 45
-15 45 -11 0 -15 -11 -15 -41z"/>
<path d="M1090 4145 c0 -42 3 -55 15 -55 8 0 15 9 15 20 0 16 7 20 34 20 40 0
50 11 42 46 -6 21 -12 24 -56 24 l-50 0 0 -55z m80 15 c0 -15 -7 -20 -25 -20
-18 0 -25 5 -25 20 0 15 7 20 25 20 18 0 25 -5 25 -20z"/>
<path d="M1530 4145 c0 -48 2 -55 20 -55 15 0 20 7 20 25 0 18 5 25 20 25 15
0 20 -7 20 -25 0 -17 5 -25 18 -25 15 0 18 9 17 55 0 46 -3 55 -17 55 -13 0
-18 -8 -18 -25 0 -18 -5 -25 -20 -25 -15 0 -20 7 -20 25 0 18 -5 25 -20 25
-18 0 -20 -7 -20 -55z"/>
<path d="M1660 4190 c0 -5 9 -10 20 -10 16 0 20 -7 20 -35 0 -28 -4 -35 -20
-35 -11 0 -20 -4 -20 -10 0 -5 23 -10 50 -10 28 0 50 5 50 10 0 6 -7 10 -15
10 -10 0 -15 11 -15 35 0 24 5 35 15 35 8 0 15 5 15 10 0 6 -22 10 -50 10 -27
0 -50 -4 -50 -10z"/>
<path d="M1798 4181 c-38 -37 -4 -91 56 -91 33 0 36 2 36 30 0 26 -3 30 -27
29 -16 0 -22 -3 -15 -6 19 -8 14 -33 -8 -33 -12 0 -22 9 -26 24 -8 35 2 46 42
46 19 0 34 5 34 10 0 17 -74 10 -92 -9z"/>
<path d="M1910 4145 c0 -42 3 -55 15 -55 9 0 15 9 15 25 0 20 5 25 25 25 20 0
25 -5 25 -25 0 -16 6 -25 15 -25 12 0 15 13 15 55 0 42 -3 55 -15 55 -9 0 -15
-9 -15 -25 0 -20 -5 -25 -25 -25 -20 0 -25 5 -25 25 0 16 -6 25 -15 25 -12 0
-15 -13 -15 -55z"/>
<path d="M2133 4185 c-25 -28 -8 -45 43 -45 15 0 24 -6 24 -15 0 -9 -9 -15
-25 -15 -14 0 -25 5 -25 10 0 6 -7 10 -15 10 -8 0 -15 -4 -15 -8 0 -18 26 -32
61 -32 29 0 39 5 44 20 9 29 -2 40 -41 40 -24 0 -34 5 -34 15 0 13 7 15 37 9
35 -7 36 -6 21 9 -20 21 -58 21 -75 2z"/>
<path d="M2268 4179 c-19 -20 -24 -49 -9 -49 5 0 13 -9 16 -20 8 -25 70 -29
79 -4 9 22 8 24 -9 24 -8 0 -15 -4 -15 -10 0 -15 -19 -12 -36 4 -31 32 -6 62
42 50 19 -5 23 -3 18 10 -9 22 -65 19 -86 -5z"/>
<path d="M2393 4185 c-16 -18 -17 -67 -1 -83 16 -16 66 -15 84 2 8 8 14 26 14
41 0 15 -6 33 -14 41 -19 18 -67 18 -83 -1z m67 -40 c0 -31 -3 -35 -25 -35
-22 0 -25 4 -25 35 0 31 3 35 25 35 22 0 25 -4 25 -35z"/>
<path d="M2510 4145 c0 -42 3 -55 15 -55 8 0 15 9 15 20 0 11 4 20 9 20 5 0
13 -9 16 -20 3 -11 15 -20 26 -20 23 0 24 13 3 34 -14 15 -14 16 0 16 17 0 20
17 10 44 -4 11 -19 16 -50 16 l-44 0 0 -55z m68 18 c-5 -26 -38 -29 -38 -4 0
15 6 21 21 21 14 0 19 -5 17 -17z"/>
<path d="M2640 4145 l0 -55 50 0 c28 0 50 5 50 10 0 6 -16 10 -35 10 -46 0
-48 27 -2 33 l32 4 -32 1 c-47 3 -45 32 2 32 19 0 35 5 35 10 0 6 -22 10 -50
10 l-50 0 0 -55z"/>
<path d="M3007 4186 c-5 -12 1 -13 29 -9 29 5 33 3 28 -11 -3 -9 -14 -16 -23
-16 -22 0 -41 -19 -41 -42 0 -15 9 -18 50 -18 28 0 50 5 50 10 0 6 -13 10 -30
10 -16 0 -30 5 -30 10 0 6 6 10 13 10 27 0 50 26 43 48 -6 18 -15 22 -46 22
-24 0 -40 -5 -43 -14z"/>
<path d="M3120 4159 c0 -50 18 -69 63 -69 39 0 47 11 47 71 0 28 -4 39 -15 39
-11 0 -15 -12 -15 -45 0 -41 -2 -45 -25 -45 -23 0 -25 4 -25 45 0 33 -4 45
-15 45 -11 0 -15 -11 -15 -41z"/>
<path d="M3250 4145 c0 -42 3 -55 15 -55 8 0 15 9 15 20 0 16 7 20 34 20 40 0
50 11 42 46 -6 21 -12 24 -56 24 l-50 0 0 -55z m80 15 c0 -15 -7 -20 -25 -20
-18 0 -25 5 -25 20 0 15 7 20 25 20 18 0 25 -5 25 -20z"/>
<path d="M993 4049 c-36 -11 -44 -29 -13 -29 11 0 20 5 20 10 0 6 9 10 20 10
28 0 25 -19 -6 -30 -29 -12 -54 -34 -54 -49 0 -7 23 -11 55 -11 30 0 55 5 55
10 0 6 -12 10 -27 10 l-26 0 26 23 c15 12 27 28 27 34 0 11 -32 35 -42 32 -2
0 -18 -5 -35 -10z"/>
<path d="M2113 4053 c-7 -2 -13 -13 -13 -24 0 -16 7 -19 40 -19 34 0 40 -3 40
-21 0 -19 -4 -20 -42 -14 -39 7 -41 6 -26 -9 20 -20 74 -21 94 -2 30 31 11 56
-42 56 -13 0 -24 5 -24 10 0 6 14 10 32 10 17 0 29 2 27 4 -8 7 -74 14 -86 9z"/>
<path d="M2381 4034 c-26 -30 -26 -39 -1 -64 25 -25 45 -25 72 -1 28 27 18 66
-21 79 -25 9 -32 7 -50 -14z m53 -10 c9 -23 7 -54 -3 -54 -27 0 -41 15 -41 41
0 22 5 29 19 29 10 0 22 -7 25 -16z"/>
<path d="M3124 4048 c-3 -4 6 -8 20 -8 30 0 33 -8 9 -26 -17 -12 -16 -13 5
-14 13 0 22 -6 22 -16 0 -13 -7 -15 -42 -9 -39 7 -41 6 -26 -9 9 -9 32 -16 52
-16 27 0 36 5 42 22 4 15 1 25 -10 34 -10 6 -13 14 -7 15 5 2 11 10 13 18 2
10 -8 15 -35 16 -21 1 -40 -2 -43 -7z"/>
<path d="M3243 4053 c-7 -3 -13 -13 -13 -24 0 -16 7 -19 40 -19 34 0 40 -3 40
-21 0 -19 -4 -20 -42 -14 -39 7 -41 6 -26 -9 9 -9 33 -16 52 -16 29 0 37 4 42
24 8 34 -2 46 -37 46 -16 0 -29 5 -29 10 0 6 14 10 32 10 17 0 29 2 27 5 -7 6
-72 12 -86 8z"/>
<path d="M3385 4039 c-4 -10 -11 -19 -16 -19 -16 0 -10 -29 11 -50 25 -25 44
-25 70 -3 35 31 23 68 -28 82 -26 8 -32 6 -37 -10z m49 -15 c9 -23 7 -54 -3
-54 -27 0 -41 15 -41 41 0 22 5 29 19 29 10 0 22 -7 25 -16z"/>
<path d="M1103 4043 c-18 -7 -16 -23 2 -23 8 0 15 5 15 10 0 6 12 10 26 10 30
0 28 -23 -2 -29 -21 -4 -54 -34 -54 -51 0 -6 24 -10 55 -10 58 0 79 19 23 21
-18 0 -26 3 -18 6 27 11 53 42 47 57 -6 16 -65 21 -94 9z"/>
<path d="M1237 4030 c-22 -26 -21 -36 3 -60 25 -25 44 -25 70 -3 24 21 26 46
4 67 -21 22 -56 20 -77 -4z m57 -6 c9 -23 7 -54 -3 -54 -27 0 -41 15 -41 41 0
22 5 29 19 29 10 0 22 -7 25 -16z"/>
<path d="M2020 4039 c-11 -8 -12 -12 -2 -16 6 -2 12 -16 12 -29 0 -17 -6 -24
-20 -24 -11 0 -20 -4 -20 -10 0 -5 23 -10 50 -10 28 0 50 5 50 10 0 6 -7 10
-15 10 -11 0 -15 11 -15 40 0 41 -11 49 -40 29z"/>
<path d="M2252 4031 c-27 -23 -28 -48 -2 -56 11 -3 20 -11 20 -16 0 -5 9 -9
20 -9 11 0 20 4 20 9 0 5 9 13 20 16 11 3 20 13 20 22 0 20 -38 53 -60 53 -9
0 -27 -8 -38 -19z m52 -7 c12 -31 7 -56 -11 -52 -23 4 -32 68 -10 68 8 0 18
-7 21 -16z"/>
<path d="M620 3843 c-46 -18 -45 -7 -48 -537 -2 -276 0 -516 3 -533 4 -24 13
-35 30 -39 14 -3 25 -10 25 -15 0 -5 106 -9 239 -9 132 0 246 -3 255 -6 24 -9
24 -309 0 -318 -9 -3 -137 -6 -285 -6 -232 0 -269 -2 -269 -15 0 -13 37 -15
275 -15 163 0 275 4 275 9 0 5 9 13 20 16 19 6 20 15 20 165 0 150 -1 159 -20
165 -11 3 -20 10 -20 15 0 5 -114 10 -254 12 -140 2 -258 7 -263 11 -11 11
-11 1063 0 1074 10 9 3033 17 3085 8 19 -4 32 -12 32 -20 0 -8 5 -15 10 -15 7
0 10 -177 10 -510 0 -333 -3 -510 -10 -510 -5 0 -10 -6 -10 -14 0 -23 -34 -26
-277 -26 -206 0 -235 -2 -253 -17 -18 -16 -20 -30 -20 -173 0 -143 2 -157 20
-173 18 -15 49 -17 295 -17 237 0 275 2 275 15 0 13 -41 15 -282 17 l-283 3 0
160 0 160 248 3 c179 2 252 6 263 15 58 48 54 2 54 559 0 332 -3 508 -10 508
-5 0 -10 5 -10 11 0 7 -10 20 -22 30 -20 18 -71 19 -1552 18 -842 0 -1538 -3
-1546 -6z"/>
<path d="M633 3791 l-23 -19 0 -486 c0 -445 1 -487 17 -506 17 -19 29 -20 265
-20 159 0 248 -4 248 -10 0 -5 7 -10 15 -10 8 0 17 -14 20 -33 9 -46 2 -354
-8 -364 -5 -4 -141 -9 -303 -11 -178 -2 -294 -7 -294 -12 0 -6 110 -10 285
-10 160 0 285 4 285 9 0 5 11 12 25 15 33 8 37 38 33 232 -3 143 -5 163 -22
180 -18 18 -38 19 -269 22 -196 2 -252 6 -263 17 -21 21 -21 970 0 991 12 12
123 14 729 14 643 0 715 -2 721 -16 3 -9 6 -103 6 -210 0 -181 1 -195 20 -214
11 -11 32 -20 46 -20 49 0 53 18 54 233 0 158 3 201 14 213 12 12 123 14 729
14 643 0 715 -2 721 -16 8 -20 8 -968 0 -988 -5 -14 -37 -16 -248 -16 -132 0
-251 -3 -264 -6 -12 -4 -25 -17 -28 -30 -3 -13 -10 -24 -15 -24 -5 0 -9 -76
-9 -170 0 -93 4 -170 9 -170 5 0 11 -9 14 -20 3 -11 12 -20 21 -20 9 0 16 -4
16 -10 0 -6 103 -10 290 -10 187 0 290 4 290 10 0 6 -103 10 -287 10 -164 0
-294 4 -303 10 -12 8 -15 41 -15 198 0 163 2 191 17 205 15 15 46 17 265 17
237 0 249 1 266 20 16 19 17 61 17 503 l0 484 -23 21 -23 22 -717 0 c-704 0
-717 0 -737 -20 -19 -19 -20 -33 -20 -214 0 -107 -3 -201 -6 -210 -8 -20 -41
-21 -60 -2 -11 12 -14 55 -14 213 -1 149 -4 202 -14 216 -12 16 -59 17 -732
17 -688 -1 -720 -1 -741 -19z"/>
<path d="M730 3675 c0 -8 7 -15 15 -15 8 0 15 7 15 15 0 8 -7 15 -15 15 -8 0
-15 -7 -15 -15z"/>
<path d="M840 3675 c0 -8 7 -15 15 -15 8 0 15 7 15 15 0 8 -7 15 -15 15 -8 0
-15 -7 -15 -15z"/>
<path d="M950 3675 c0 -8 9 -15 20 -15 11 0 20 7 20 15 0 8 -9 15 -20 15 -11
0 -20 -7 -20 -15z"/>
<path d="M1070 3675 c0 -8 7 -15 15 -15 8 0 15 7 15 15 0 8 -7 15 -15 15 -8 0
-15 -7 -15 -15z"/>
<path d="M1180 3675 c0 -8 9 -15 20 -15 11 0 20 7 20 15 0 8 -9 15 -20 15 -11
0 -20 -7 -20 -15z"/>
<path d="M1300 3675 c0 -8 5 -15 10 -15 6 0 10 7 10 15 0 8 -4 15 -10 15 -5 0
-10 -7 -10 -15z"/>
<path d="M1402 3678 c7 -19 38 -22 38 -4 0 10 -9 16 -21 16 -12 0 -19 -5 -17
-12z"/>
<path d="M1520 3675 c0 -8 9 -15 20 -15 11 0 20 7 20 15 0 8 -9 15 -20 15 -11
0 -20 -7 -20 -15z"/>
<path d="M1630 3675 c0 -8 9 -15 20 -15 11 0 20 7 20 15 0 8 -9 15 -20 15 -11
0 -20 -7 -20 -15z"/>
<path d="M1750 3675 c0 -8 9 -15 20 -15 11 0 20 7 20 15 0 8 -9 15 -20 15 -11
0 -20 -7 -20 -15z"/>
<path d="M1860 3675 c0 -8 7 -15 15 -15 8 0 15 7 15 15 0 8 -7 15 -15 15 -8 0
-15 -7 -15 -15z"/>
<path d="M1980 3675 c0 -8 7 -15 15 -15 8 0 15 7 15 15 0 8 -7 15 -15 15 -8 0
-15 -7 -15 -15z"/>
<path d="M2316 3675 c-4 -10 1 -15 14 -15 11 0 20 7 20 15 0 8 -6 15 -14 15
-8 0 -16 -7 -20 -15z"/>
<path d="M2430 3675 c0 -8 7 -15 15 -15 8 0 15 7 15 15 0 8 -7 15 -15 15 -8 0
-15 -7 -15 -15z"/>
<path d="M2540 3675 c0 -8 9 -15 20 -15 11 0 20 7 20 15 0 8 -9 15 -20 15 -11
0 -20 -7 -20 -15z"/>
<path d="M2660 3675 c0 -8 7 -15 15 -15 8 0 15 7 15 15 0 8 -7 15 -15 15 -8 0
-15 -7 -15 -15z"/>
<path d="M2770 3675 c0 -8 7 -15 15 -15 8 0 15 7 15 15 0 8 -7 15 -15 15 -8 0
-15 -7 -15 -15z"/>
<path d="M2890 3675 c0 -8 7 -15 15 -15 8 0 15 7 15 15 0 8 -7 15 -15 15 -8 0
-15 -7 -15 -15z"/>
<path d="M3000 3675 c0 -8 7 -15 15 -15 8 0 15 7 15 15 0 8 -7 15 -15 15 -8 0
-15 -7 -15 -15z"/>
<path d="M3110 3675 c0 -8 9 -15 20 -15 11 0 20 7 20 15 0 8 -9 15 -20 15 -11
0 -20 -7 -20 -15z"/>
<path d="M3230 3675 c0 -8 7 -15 15 -15 8 0 15 7 15 15 0 8 -7 15 -15 15 -8 0
-15 -7 -15 -15z"/>
<path d="M3340 3675 c0 -8 7 -15 15 -15 8 0 15 7 15 15 0 8 -7 15 -15 15 -8 0
-15 -7 -15 -15z"/>
<path d="M3460 3675 c0 -8 5 -15 10 -15 6 0 10 7 10 15 0 8 -4 15 -10 15 -5 0
-10 -7 -10 -15z"/>
<path d="M3560 3675 c0 -8 9 -15 20 -15 11 0 20 7 20 15 0 8 -9 15 -20 15 -11
0 -20 -7 -20 -15z"/>
<path d="M730 3565 c0 -8 7 -15 15 -15 8 0 15 7 15 15 0 8 -7 15 -15 15 -8 0
-15 -7 -15 -15z"/>
<path d="M1300 3565 c0 -8 5 -15 10 -15 6 0 10 7 10 15 0 8 -4 15 -10 15 -5 0
-10 -7 -10 -15z"/>
<path d="M1980 3560 c0 -11 7 -20 15 -20 8 0 15 9 15 20 0 11 -7 20 -15 20 -8
0 -15 -9 -15 -20z"/>
<path d="M2320 3560 c0 -11 7 -20 15 -20 8 0 15 9 15 20 0 11 -7 20 -15 20 -8
0 -15 -9 -15 -20z"/>
<path d="M3000 3565 c0 -8 7 -15 15 -15 8 0 15 7 15 15 0 8 -7 15 -15 15 -8 0
-15 -7 -15 -15z"/>
<path d="M3560 3565 c0 -8 9 -15 20 -15 11 0 20 7 20 15 0 8 -9 15 -20 15 -11
0 -20 -7 -20 -15z"/>
<path d="M877 3552 c-13 -14 -17 -38 -17 -103 0 -117 2 -119 170 -119 168 0
170 1 170 121 0 119 0 119 -172 119 -118 0 -137 -2 -151 -18z m301 -82 c5
-127 14 -120 -144 -120 -104 0 -139 3 -150 14 -19 19 -20 172 -1 180 6 2 75 4
152 3 l140 -2 3 -75z"/>
<path d="M1437 3552 c-13 -14 -17 -38 -17 -103 0 -122 -6 -119 230 -119 234 0
230 -2 230 120 0 124 7 120 -231 120 -177 0 -197 -2 -212 -18z m421 -82 c5
-131 23 -120 -207 -120 -172 0 -200 2 -205 16 -8 22 -8 169 1 178 4 3 97 5
207 4 l201 -3 3 -75z"/>
<path d="M2465 3554 c-11 -12 -15 -38 -15 -102 0 -126 -7 -122 230 -122 234 0
230 -2 230 121 0 119 3 118 -237 118 -160 0 -195 -2 -208 -15z m409 -10 c22
-8 23 -158 2 -180 -21 -21 -381 -21 -402 0 -19 19 -20 172 -1 179 18 8 382 8
401 1z"/>
<path d="M3143 3551 c-20 -17 -23 -28 -23 -100 0 -119 4 -121 175 -121 174 0
175 1 175 122 0 120 2 118 -168 118 -119 -1 -140 -3 -159 -19z m301 -7 c22 -8
23 -158 2 -180 -22 -22 -281 -20 -290 2 -8 21 -8 169 1 177 8 9 266 9 287 1z"/>
<path d="M698 3489 c-24 -25 -23 -54 2 -79 11 -11 29 -20 40 -20 11 0 29 9 40
20 11 11 20 29 20 40 0 27 -35 60 -62 59 -13 0 -31 -9 -40 -20z"/>
<path d="M3560 3501 c0 -5 -9 -13 -20 -16 -14 -4 -20 -15 -20 -35 0 -20 6 -31
20 -35 11 -3 20 -11 20 -16 0 -15 38 -10 60 8 39 34 12 103 -40 103 -11 0 -20
-4 -20 -9z"/>
<path d="M1300 3450 c0 -11 5 -20 10 -20 6 0 10 9 10 20 0 11 -4 20 -10 20 -5
0 -10 -9 -10 -20z"/>
<path d="M3006 3463 c-12 -12 -6 -33 9 -33 8 0 15 6 15 14 0 17 -14 28 -24 19z"/>
<path d="M1980 3445 c0 -8 7 -15 15 -15 8 0 15 7 15 15 0 8 -7 15 -15 15 -8 0
-15 -7 -15 -15z"/>
<path d="M2317 3454 c-9 -10 2 -24 19 -24 8 0 14 7 14 15 0 15 -21 21 -33 9z"/>
<path d="M730 3340 c0 -11 7 -20 15 -20 8 0 15 9 15 20 0 11 -7 20 -15 20 -8
0 -15 -9 -15 -20z"/>
<path d="M1300 3340 c0 -11 5 -20 10 -20 6 0 10 9 10 20 0 11 -4 20 -10 20 -5
0 -10 -9 -10 -20z"/>
<path d="M1987 3353 c-13 -12 -7 -33 8 -33 8 0 15 9 15 20 0 20 -11 26 -23 13z"/>
<path d="M2317 3346 c-7 -16 1 -26 20 -26 7 0 13 9 13 20 0 23 -25 27 -33 6z"/>
<path d="M3000 3340 c0 -11 7 -20 15 -20 8 0 15 9 15 20 0 11 -7 20 -15 20 -8
0 -15 -9 -15 -20z"/>
<path d="M3565 3350 c-8 -14 3 -30 21 -30 8 0 14 9 14 20 0 21 -24 28 -35 10z"/>
<path d="M730 3220 c0 -11 7 -20 15 -20 8 0 15 9 15 20 0 11 -7 20 -15 20 -8
0 -15 -9 -15 -20z"/>
<path d="M840 3220 c0 -11 7 -20 15 -20 8 0 15 9 15 20 0 11 -7 20 -15 20 -8
0 -15 -9 -15 -20z"/>
<path d="M952 3223 c5 -26 38 -29 38 -4 0 15 -6 21 -21 21 -14 0 -19 -5 -17
-17z"/>
<path d="M1070 3220 c0 -11 7 -20 15 -20 8 0 15 9 15 20 0 11 -7 20 -15 20 -8
0 -15 -9 -15 -20z"/>
<path d="M1180 3220 c0 -13 7 -20 20 -20 13 0 20 7 20 20 0 13 -7 20 -20 20
-13 0 -20 -7 -20 -20z"/>
<path d="M1300 3220 c0 -11 5 -20 10 -20 6 0 10 9 10 20 0 11 -4 20 -10 20 -5
0 -10 -9 -10 -20z"/>
<path d="M1410 3220 c0 -11 7 -20 15 -20 8 0 15 9 15 20 0 11 -7 20 -15 20 -8
0 -15 -9 -15 -20z"/>
<path d="M1520 3220 c0 -13 7 -20 20 -20 13 0 20 7 20 20 0 13 -7 20 -20 20
-13 0 -20 -7 -20 -20z"/>
<path d="M1630 3220 c0 -13 7 -20 20 -20 13 0 20 7 20 20 0 13 -7 20 -20 20
-13 0 -20 -7 -20 -20z"/>
<path d="M1750 3220 c0 -13 7 -20 20 -20 13 0 20 7 20 20 0 13 -7 20 -20 20
-13 0 -20 -7 -20 -20z"/>
<path d="M1860 3220 c0 -11 7 -20 15 -20 8 0 15 9 15 20 0 11 -7 20 -15 20 -8
0 -15 -9 -15 -20z"/>
<path d="M1980 3220 c0 -11 7 -20 15 -20 8 0 15 9 15 20 0 11 -7 20 -15 20 -8
0 -15 -9 -15 -20z"/>
<path d="M2092 3223 c5 -25 28 -28 28 -4 0 12 -6 21 -16 21 -9 0 -14 -7 -12
-17z"/>
<path d="M2200 3220 c0 -11 7 -20 15 -20 8 0 15 9 15 20 0 11 -7 20 -15 20 -8
0 -15 -9 -15 -20z"/>
<path d="M2320 3220 c0 -11 7 -20 15 -20 8 0 15 9 15 20 0 11 -7 20 -15 20 -8
0 -15 -9 -15 -20z"/>
<path d="M2430 3220 c0 -11 7 -20 15 -20 8 0 15 9 15 20 0 11 -7 20 -15 20 -8
0 -15 -9 -15 -20z"/>
<path d="M2540 3220 c0 -13 7 -20 20 -20 13 0 20 7 20 20 0 13 -7 20 -20 20
-13 0 -20 -7 -20 -20z"/>
<path d="M2660 3220 c0 -11 7 -20 15 -20 8 0 15 9 15 20 0 11 -7 20 -15 20 -8
0 -15 -9 -15 -20z"/>
<path d="M2770 3220 c0 -11 7 -20 15 -20 8 0 15 9 15 20 0 11 -7 20 -15 20 -8
0 -15 -9 -15 -20z"/>
<path d="M2890 3220 c0 -11 7 -20 15 -20 8 0 15 9 15 20 0 11 -7 20 -15 20 -8
0 -15 -9 -15 -20z"/>
<path d="M3000 3220 c0 -11 7 -20 15 -20 8 0 15 9 15 20 0 11 -7 20 -15 20 -8
0 -15 -9 -15 -20z"/>
<path d="M3110 3220 c0 -13 7 -20 20 -20 13 0 20 7 20 20 0 13 -7 20 -20 20
-13 0 -20 -7 -20 -20z"/>
<path d="M3230 3220 c0 -11 7 -20 15 -20 8 0 15 9 15 20 0 11 -7 20 -15 20 -8
0 -15 -9 -15 -20z"/>
<path d="M3340 3220 c0 -11 7 -20 15 -20 8 0 15 9 15 20 0 11 -7 20 -15 20 -8
0 -15 -9 -15 -20z"/>
<path d="M3460 3220 c0 -11 5 -20 10 -20 6 0 10 9 10 20 0 11 -4 20 -10 20 -5
0 -10 -9 -10 -20z"/>
<path d="M3562 3223 c5 -26 38 -29 38 -4 0 15 -6 21 -21 21 -14 0 -19 -5 -17
-17z"/>
<path d="M730 3110 c0 -5 7 -10 15 -10 8 0 15 5 15 10 0 6 -7 10 -15 10 -8 0
-15 -4 -15 -10z"/>
<path d="M1300 3110 c0 -5 5 -10 10 -10 6 0 10 5 10 10 0 6 -4 10 -10 10 -5 0
-10 -4 -10 -10z"/>
<path d="M1630 3110 c0 -5 9 -10 20 -10 11 0 20 5 20 10 0 6 -9 10 -20 10 -11
0 -20 -4 -20 -10z"/>
<path d="M2660 3110 c0 -5 7 -10 15 -10 8 0 15 5 15 10 0 6 -7 10 -15 10 -8 0
-15 -4 -15 -10z"/>
<path d="M3000 3110 c0 -5 7 -10 15 -10 8 0 15 5 15 10 0 6 -7 10 -15 10 -8 0
-15 -4 -15 -10z"/>
<path d="M3560 3110 c0 -5 9 -10 20 -10 11 0 20 5 20 10 0 6 -9 10 -20 10 -11
0 -20 -4 -20 -10z"/>
<path d="M876 3094 c-23 -22 -20 -71 3 -84 11 -5 79 -10 151 -10 72 0 140 5
151 10 23 13 26 62 3 84 -12 13 -41 16 -154 16 -113 0 -142 -3 -154 -16z m299
-24 c4 -16 4 -34 0 -40 -7 -11 -262 -14 -289 -4 -17 7 -22 44 -6 44 6 0 10 7
10 15 0 13 22 15 139 15 l139 0 7 -30z"/>
<path d="M1436 3094 c-14 -13 -16 -62 -16 -382 0 -356 1 -368 20 -385 11 -9
27 -17 35 -17 8 0 24 8 35 17 18 16 20 30 20 164 0 125 2 148 16 153 9 3 80 6
158 6 129 0 143 2 159 20 9 11 17 29 17 40 0 11 -8 29 -17 40 -16 18 -30 20
-161 20 -111 0 -147 3 -158 14 -11 11 -14 47 -14 155 0 151 -6 171 -55 171
-13 0 -31 -7 -39 -16z m64 -9 c0 -8 5 -15 10 -15 6 0 10 -55 10 -144 0 -118 3
-147 16 -160 13 -13 42 -16 165 -16 162 0 168 -2 155 -55 l-6 -25 -149 0
c-123 0 -152 -3 -165 -16 -13 -13 -16 -42 -16 -165 l0 -149 -25 -6 c-57 -14
-55 -26 -55 363 0 197 3 368 6 381 7 26 54 32 54 7z"/>
<path d="M1777 3090 c-9 -11 -17 -30 -17 -42 0 -41 25 -47 181 -48 125 0 148
-2 153 -16 3 -9 6 -78 6 -155 0 -117 3 -142 17 -159 23 -27 78 -27 93 -1 5 11
10 83 10 161 0 109 3 145 14 156 11 11 46 14 151 14 75 0 145 5 156 10 23 13
26 62 3 84 -13 14 -62 16 -382 16 -356 0 -368 -1 -385 -20z m757 -16 c15 -58
10 -59 -153 -56 -144 3 -149 3 -156 -17 -3 -12 -11 -21 -16 -21 -5 0 -9 -60
-9 -139 0 -77 -3 -146 -6 -155 -8 -20 -41 -21 -60 -2 -11 11 -14 46 -14 153 0
192 9 183 -181 183 -163 0 -174 4 -151 56 l12 24 364 0 364 0 6 -26z"/>
<path d="M2806 3094 c-13 -13 -16 -42 -16 -158 0 -97 -4 -146 -12 -154 -8 -8
-57 -12 -153 -12 -127 0 -144 -2 -165 -20 -16 -14 -21 -26 -16 -44 13 -52 27
-56 176 -56 76 0 145 -3 154 -6 14 -5 16 -28 16 -153 0 -134 2 -148 20 -164
27 -23 55 -22 80 3 19 19 20 33 20 380 0 326 -2 362 -17 380 -21 24 -65 26
-87 4z m64 -9 c0 -8 5 -15 10 -15 6 0 10 -128 10 -365 l0 -365 -25 -6 c-53
-13 -55 -7 -55 151 0 194 9 185 -178 185 -111 0 -147 3 -158 14 -19 19 -18 52
2 60 9 3 80 6 158 6 183 0 176 -7 176 173 0 158 4 177 36 177 15 0 24 -6 24
-15z"/>
<path d="M3137 3090 c-22 -26 -22 -59 1 -76 21 -16 283 -19 313 -4 23 13 26
62 3 84 -13 13 -42 16 -157 16 -130 0 -144 -2 -160 -20z m306 -10 c21 -25 22
-46 1 -54 -9 -3 -78 -6 -155 -6 -151 0 -148 -1 -133 58 6 21 10 22 138 22 119
0 133 -2 149 -20z"/>
<path d="M730 2995 c0 -8 7 -15 15 -15 8 0 15 7 15 15 0 8 -7 15 -15 15 -8 0
-15 -7 -15 -15z"/>
<path d="M1300 2995 c0 -8 5 -15 10 -15 6 0 10 7 10 15 0 8 -4 15 -10 15 -5 0
-10 -7 -10 -15z"/>
<path d="M1630 2995 c0 -8 9 -15 20 -15 11 0 20 7 20 15 0 8 -9 15 -20 15 -11
0 -20 -7 -20 -15z"/>
<path d="M2660 2995 c0 -8 7 -15 15 -15 8 0 15 7 15 15 0 8 -7 15 -15 15 -8 0
-15 -7 -15 -15z"/>
<path d="M3000 2995 c0 -8 7 -15 15 -15 8 0 15 7 15 15 0 8 -7 15 -15 15 -8 0
-15 -7 -15 -15z"/>
<path d="M3560 2995 c0 -8 9 -15 20 -15 11 0 20 7 20 15 0 8 -9 15 -20 15 -11
0 -20 -7 -20 -15z"/>
<path d="M730 2885 c0 -8 7 -15 15 -15 8 0 15 7 15 15 0 8 -7 15 -15 15 -8 0
-15 -7 -15 -15z"/>
<path d="M840 2885 c0 -8 7 -15 15 -15 8 0 15 7 15 15 0 8 -7 15 -15 15 -8 0
-15 -7 -15 -15z"/>
<path d="M957 2893 c-13 -12 -7 -23 13 -23 11 0 20 7 20 15 0 15 -21 21 -33 8z"/>
<path d="M1070 2886 c0 -9 7 -16 16 -16 9 0 14 5 12 12 -6 18 -28 21 -28 4z"/>
<path d="M1180 2886 c0 -10 9 -16 21 -16 24 0 21 23 -4 28 -10 2 -17 -3 -17
-12z"/>
<path d="M1267 2894 c-28 -9 -47 -58 -47 -124 0 -62 13 -77 42 -47 10 12 15
12 26 0 7 -7 17 -13 22 -13 5 0 15 6 22 13 11 12 16 12 27 0 7 -8 20 -13 29
-11 13 2 18 17 20 64 2 51 -1 64 -21 88 -24 28 -79 41 -120 30z m17 -40 c9 -3
16 -14 16 -24 0 -13 -8 -17 -30 -16 -20 1 -30 6 -30 17 0 27 14 34 44 23z m94
-19 c2 -16 -3 -20 -28 -21 -22 -1 -30 3 -30 17 0 33 53 37 58 4z"/>
<path d="M1637 2893 c-13 -12 -7 -23 13 -23 11 0 20 7 20 15 0 15 -21 21 -33
8z"/>
<path d="M1750 2886 c0 -10 9 -16 21 -16 24 0 21 23 -4 28 -10 2 -17 -3 -17
-12z"/>
<path d="M1860 2885 c0 -8 7 -15 15 -15 8 0 15 7 15 15 0 8 -7 15 -15 15 -8 0
-15 -7 -15 -15z"/>
<path d="M1980 2885 c0 -8 7 -15 15 -15 8 0 15 7 15 15 0 8 -7 15 -15 15 -8 0
-15 -7 -15 -15z"/>
<path d="M2317 2894 c-9 -10 2 -24 19 -24 8 0 14 7 14 15 0 15 -21 21 -33 9z"/>
<path d="M2430 2885 c0 -8 7 -15 15 -15 8 0 15 7 15 15 0 8 -7 15 -15 15 -8 0
-15 -7 -15 -15z"/>
<path d="M2540 2885 c0 -8 9 -15 20 -15 11 0 20 7 20 15 0 8 -9 15 -20 15 -11
0 -20 -7 -20 -15z"/>
<path d="M2660 2885 c0 -8 7 -15 15 -15 8 0 15 7 15 15 0 8 -7 15 -15 15 -8 0
-15 -7 -15 -15z"/>
<path d="M3000 2885 c0 -8 7 -15 15 -15 8 0 15 7 15 15 0 8 -7 15 -15 15 -8 0
-15 -7 -15 -15z"/>
<path d="M3117 2893 c-13 -12 -7 -23 13 -23 11 0 20 7 20 15 0 15 -21 21 -33
8z"/>
<path d="M3230 2885 c0 -8 7 -15 15 -15 8 0 15 7 15 15 0 8 -7 15 -15 15 -8 0
-15 -7 -15 -15z"/>
<path d="M3340 2885 c0 -8 7 -15 15 -15 8 0 15 7 15 15 0 8 -7 15 -15 15 -8 0
-15 -7 -15 -15z"/>
<path d="M3460 2885 c0 -8 5 -15 10 -15 6 0 10 7 10 15 0 8 -4 15 -10 15 -5 0
-10 -7 -10 -15z"/>
<path d="M3567 2893 c-13 -12 -7 -23 13 -23 11 0 20 7 20 15 0 15 -21 21 -33
8z"/>
<path d="M3000 2770 c0 -11 7 -20 15 -20 8 0 15 9 15 20 0 11 -7 20 -15 20 -8
0 -15 -9 -15 -20z"/>
<path d="M1300 2655 c0 -8 5 -15 10 -15 6 0 10 7 10 15 0 8 -4 15 -10 15 -5 0
-10 -7 -10 -15z"/>
<path d="M3000 2655 c0 -8 7 -15 15 -15 8 0 15 7 15 15 0 8 -7 15 -15 15 -8 0
-15 -7 -15 -15z"/>
<path d="M1300 2545 c0 -8 5 -15 10 -15 6 0 10 7 10 15 0 8 -4 15 -10 15 -5 0
-10 -7 -10 -15z"/>
<path d="M3000 2545 c0 -8 7 -15 15 -15 8 0 15 7 15 15 0 8 -7 15 -15 15 -8 0
-15 -7 -15 -15z"/>
<path d="M1300 2430 c0 -11 5 -20 10 -20 6 0 10 9 10 20 0 11 -4 20 -10 20 -5
0 -10 -9 -10 -20z"/>
<path d="M3007 2443 c-13 -12 -7 -33 8 -33 8 0 15 9 15 20 0 20 -11 26 -23 13z"/>
<path d="M1760 2200 l0 -230 400 0 400 0 0 230 0 230 -140 0 c-87 0 -140 -4
-140 -10 0 -6 -47 -10 -120 -10 -73 0 -120 4 -120 10 0 6 -53 10 -140 10
l-140 0 0 -230z m270 200 c0 -19 -7 -20 -110 -20 l-110 0 2 -180 3 -181 348
-2 347 -2 0 183 0 182 -105 0 c-98 0 -105 1 -105 20 0 19 7 20 120 20 l120 0
0 -215 0 -215 -380 0 -380 0 0 208 c0 115 3 212 7 215 3 4 60 7 125 7 111 0
118 -1 118 -20z m250 -20 c0 -6 43 -10 110 -10 l110 0 0 -170 0 -170 -335 0
-335 0 0 170 0 170 105 0 c63 0 105 4 105 10 0 6 47 10 120 10 73 0 120 -4
120 -10z"/>
<path d="M1920 2235 c0 -9 -9 -15 -24 -15 -29 0 -46 -40 -46 -106 0 -71 18
-93 46 -56 13 16 15 16 28 0 7 -10 17 -18 21 -18 4 0 14 8 21 18 13 16 15 16
28 0 28 -37 46 -15 46 56 0 66 -17 106 -46 106 -15 0 -24 6 -24 15 0 9 -9 15
-25 15 -16 0 -25 -6 -25 -15z m8 -60 c2 -16 -3 -20 -28 -21 -22 -1 -30 3 -30
17 0 33 53 37 58 4z m76 19 c9 -3 16 -14 16 -24 0 -13 -8 -17 -30 -16 -20 1
-30 6 -30 17 0 27 14 34 44 23z"/>
<path d="M2350 2235 c0 -8 -9 -15 -20 -15 -13 0 -22 -9 -26 -25 -3 -14 -10
-25 -15 -25 -15 0 -10 -100 5 -116 19 -19 32 -18 41 4 6 16 7 16 19 0 7 -10
17 -18 21 -18 4 0 14 8 21 18 13 16 15 16 28 0 16 -22 23 -22 42 -4 15 16 20
116 5 116 -5 0 -12 11 -15 25 -5 18 -13 25 -31 25 -16 0 -25 6 -25 15 0 9 -9
15 -25 15 -16 0 -25 -6 -25 -15z m8 -61 c2 -14 -4 -19 -23 -20 -18 -1 -25 3
-25 16 0 33 43 37 48 4z m76 20 c9 -3 16 -14 16 -24 0 -13 -8 -17 -30 -16 -20
1 -30 6 -30 17 0 27 14 34 44 23z"/>
<path d="M1300 2315 c0 -8 5 -15 10 -15 6 0 10 7 10 15 0 8 -4 15 -10 15 -5 0
-10 -7 -10 -15z"/>
<path d="M3000 2315 c0 -8 7 -15 15 -15 8 0 15 7 15 15 0 8 -7 15 -15 15 -8 0
-15 -7 -15 -15z"/>
<path d="M1496 2267 c-27 -23 -27 -24 -4 -23 14 1 24 -6 26 -16 4 -20 -25 -54
-36 -43 -4 4 -1 10 6 12 21 8 13 23 -13 23 -24 0 -25 -3 -25 -54 0 -47 3 -56
21 -61 13 -5 25 -2 29 6 7 10 11 10 25 -1 11 -10 21 -10 38 -3 14 7 30 7 39 2
33 -18 48 0 48 57 0 30 -3 54 -8 54 -4 0 -13 13 -20 29 -20 46 -83 55 -126 18z
m98 -23 c20 -8 21 -31 2 -50 -17 -16 -36 -19 -36 -4 0 6 5 10 10 10 6 0 10 5
10 10 0 6 -7 10 -15 10 -16 0 -20 12 -8 23 8 9 17 9 37 1z"/>
<path d="M1300 2200 c0 -11 5 -20 10 -20 6 0 10 9 10 20 0 11 -4 20 -10 20 -5
0 -10 -9 -10 -20z"/>
<path d="M3000 2200 c0 -11 7 -20 15 -20 8 0 15 9 15 20 0 11 -7 20 -15 20 -8
0 -15 -9 -15 -20z"/>
<path d="M570 2085 c0 -12 45 -15 295 -17 250 -3 297 -5 306 -18 11 -18 8
-375 -4 -387 -5 -4 -122 -10 -260 -13 -200 -4 -257 -8 -274 -20 -23 -15 -23
-16 -23 -277 0 -317 -6 -303 119 -303 93 0 111 -5 111 -32 0 -38 -24 -48 -112
-48 -124 0 -118 16 -118 -300 0 -231 2 -262 17 -280 17 -20 27 -20 1534 -20
1466 0 1517 1 1537 19 21 18 22 25 22 280 0 315 6 301 -121 301 -85 0 -109 10
-109 48 0 27 18 32 108 32 60 1 82 5 100 19 22 19 22 22 22 281 0 259 0 262
-22 281 -21 17 -43 18 -268 19 -136 0 -252 5 -260 10 -12 8 -16 43 -18 193 -3
160 -1 187 13 201 14 14 52 16 306 16 250 0 289 2 289 15 0 13 -39 15 -290 15
-161 0 -290 -4 -290 -9 0 -5 -9 -11 -20 -14 -11 -3 -20 -12 -20 -21 0 -9 -4
-16 -10 -16 -6 0 -10 -65 -10 -176 0 -138 3 -178 14 -190 8 -7 16 -19 18 -26
4 -10 66 -14 266 -16 260 -3 262 -3 267 -25 3 -12 4 -137 3 -277 l-3 -255 -88
-3 c-65 -2 -93 -7 -107 -20 -25 -20 -26 -53 -2 -81 15 -18 30 -21 107 -23 l90
-3 0 -275 0 -275 -1505 -3 c-828 -1 -1515 0 -1527 3 l-23 5 0 269 c0 236 2
270 16 275 9 3 51 6 94 6 69 0 82 3 100 22 26 28 26 65 0 73 -11 3 -20 11 -20
16 0 5 -36 9 -79 9 -44 0 -86 3 -95 6 -14 5 -16 38 -16 266 0 207 3 262 14
273 11 11 68 15 264 17 319 4 292 -17 292 227 0 144 -3 181 -16 199 -8 12 -22
22 -30 22 -8 0 -14 5 -14 10 0 6 -102 10 -285 10 -243 0 -285 -2 -285 -15z"/>
<path d="M1300 2085 c0 -8 5 -15 10 -15 6 0 10 7 10 15 0 8 -4 15 -10 15 -5 0
-10 -7 -10 -15z"/>
<path d="M3000 2085 c0 -8 7 -15 15 -15 8 0 15 7 15 15 0 8 -7 15 -15 15 -8 0
-15 -7 -15 -15z"/>
<path d="M1436 2064 c-13 -13 -16 -46 -16 -207 0 -181 1 -194 20 -210 11 -9
27 -17 35 -17 8 0 24 8 35 17 19 16 20 29 20 210 0 207 -4 223 -55 223 -13 0
-31 -7 -39 -16z m70 -8 c21 -21 21 -371 0 -392 -19 -19 -52 -18 -60 2 -8 20
-8 368 0 388 8 20 41 21 60 2z"/>
<path d="M2806 2064 c-13 -13 -16 -46 -16 -207 0 -181 1 -194 20 -210 27 -23
55 -22 80 3 19 19 20 33 20 205 0 160 -2 187 -17 205 -21 24 -65 26 -87 4z
m70 -8 c21 -21 21 -371 0 -392 -19 -19 -52 -18 -60 2 -3 9 -6 96 -6 194 0 98
3 185 6 194 8 20 41 21 60 2z"/>
<path d="M570 2040 c0 -6 96 -10 269 -10 148 0 276 -3 285 -6 14 -5 16 -29 16
-156 0 -114 -3 -153 -14 -163 -11 -11 -67 -15 -263 -17 -231 -3 -251 -4 -269
-22 -18 -19 -19 -43 -22 -635 -2 -339 0 -631 3 -648 4 -24 13 -35 30 -39 14
-3 25 -10 25 -15 0 -5 643 -9 1535 -9 943 0 1535 4 1535 9 0 5 9 13 20 16 11
3 20 13 20 21 0 8 5 14 10 14 7 0 10 215 10 625 0 410 -3 625 -10 625 -5 0
-10 5 -10 11 0 7 -10 20 -22 30 -19 17 -41 19 -269 19 l-249 0 -5 23 c-3 12
-4 87 -3 167 l3 145 283 3 c176 1 282 6 282 12 0 6 -103 10 -279 10 -241 0
-282 -2 -295 -16 -13 -13 -16 -43 -16 -173 0 -140 2 -160 18 -174 16 -15 49
-17 253 -17 245 0 279 -3 279 -26 0 -8 5 -14 10 -14 7 0 10 -214 10 -621 0
-567 -1 -622 -17 -637 -15 -16 -129 -17 -1565 -17 -1366 0 -1550 2 -1558 15
-12 19 -9 1275 3 1287 5 4 125 10 267 13 244 5 260 6 274 25 12 16 15 52 16
169 0 140 -1 150 -22 167 -19 18 -42 19 -295 19 -175 0 -273 -4 -273 -10z"/>
<path d="M1300 1975 c0 -8 5 -15 10 -15 6 0 10 7 10 15 0 8 -4 15 -10 15 -5 0
-10 -7 -10 -15z"/>
<path d="M3000 1975 c0 -8 7 -15 15 -15 8 0 15 7 15 15 0 8 -7 15 -15 15 -8 0
-15 -7 -15 -15z"/>
<path d="M1300 1855 c0 -8 5 -15 10 -15 6 0 10 7 10 15 0 8 -4 15 -10 15 -5 0
-10 -7 -10 -15z"/>
<path d="M3000 1855 c0 -8 7 -15 15 -15 8 0 15 7 15 15 0 8 -7 15 -15 15 -8 0
-15 -7 -15 -15z"/>
<path d="M1300 1745 c0 -8 5 -15 10 -15 6 0 10 7 10 15 0 8 -4 15 -10 15 -5 0
-10 -7 -10 -15z"/>
<path d="M3000 1745 c0 -8 7 -15 15 -15 8 0 15 7 15 15 0 8 -7 15 -15 15 -8 0
-15 -7 -15 -15z"/>
<path d="M1777 1730 c-22 -27 -22 -55 3 -80 17 -17 36 -20 167 -22 l148 -3 3
-148 c2 -121 6 -151 19 -167 23 -27 79 -27 93 -1 5 11 10 84 10 164 0 123 2
146 16 151 9 3 76 6 150 6 148 0 174 9 174 62 0 58 3 58 -398 58 -356 0 -368
-1 -385 -20z m758 -20 c3 -11 3 -29 0 -40 -6 -19 -15 -20 -151 -20 -192 0
-184 7 -184 -179 0 -77 -3 -146 -6 -155 -8 -20 -41 -21 -60 -2 -11 11 -14 47
-14 158 -1 103 -4 148 -14 161 -12 15 -32 17 -164 17 -142 0 -151 1 -157 20
-3 11 -3 29 0 40 6 20 15 20 375 20 360 0 369 0 375 -20z"/>
<path d="M1300 1630 c0 -11 5 -20 10 -20 6 0 10 9 10 20 0 11 -4 20 -10 20 -5
0 -10 -9 -10 -20z"/>
<path d="M3000 1630 c0 -11 7 -20 15 -20 8 0 15 9 15 20 0 11 -7 20 -15 20 -8
0 -15 -9 -15 -20z"/>
<path d="M730 1515 c0 -8 7 -15 15 -15 8 0 15 7 15 15 0 8 -7 15 -15 15 -8 0
-15 -7 -15 -15z"/>
<path d="M840 1515 c0 -8 7 -15 15 -15 8 0 15 7 15 15 0 8 -7 15 -15 15 -8 0
-15 -7 -15 -15z"/>
<path d="M950 1515 c0 -8 9 -15 20 -15 11 0 20 7 20 15 0 8 -9 15 -20 15 -11
0 -20 -7 -20 -15z"/>
<path d="M1070 1515 c0 -8 7 -15 15 -15 8 0 15 7 15 15 0 8 -7 15 -15 15 -8 0
-15 -7 -15 -15z"/>
<path d="M1180 1515 c0 -8 9 -15 20 -15 11 0 20 7 20 15 0 8 -9 15 -20 15 -11
0 -20 -7 -20 -15z"/>
<path d="M1300 1515 c0 -8 5 -15 10 -15 6 0 10 7 10 15 0 8 -4 15 -10 15 -5 0
-10 -7 -10 -15z"/>
<path d="M1400 1515 c0 -8 9 -15 20 -15 11 0 20 7 20 15 0 8 -9 15 -20 15 -11
0 -20 -7 -20 -15z"/>
<path d="M1520 1515 c0 -8 9 -15 20 -15 11 0 20 7 20 15 0 8 -9 15 -20 15 -11
0 -20 -7 -20 -15z"/>
<path d="M1630 1515 c0 -8 9 -15 20 -15 11 0 20 7 20 15 0 8 -9 15 -20 15 -11
0 -20 -7 -20 -15z"/>
<path d="M1750 1515 c0 -8 9 -15 20 -15 11 0 20 7 20 15 0 8 -9 15 -20 15 -11
0 -20 -7 -20 -15z"/>
<path d="M1860 1515 c0 -8 7 -15 15 -15 8 0 15 7 15 15 0 8 -7 15 -15 15 -8 0
-15 -7 -15 -15z"/>
<path d="M1970 1515 c0 -8 9 -15 20 -15 11 0 20 7 20 15 0 8 -9 15 -20 15 -11
0 -20 -7 -20 -15z"/>
<path d="M2320 1515 c0 -8 7 -15 15 -15 8 0 15 7 15 15 0 8 -7 15 -15 15 -8 0
-15 -7 -15 -15z"/>
<path d="M2430 1515 c0 -8 7 -15 15 -15 8 0 15 7 15 15 0 8 -7 15 -15 15 -8 0
-15 -7 -15 -15z"/>
<path d="M2540 1515 c0 -8 9 -15 20 -15 11 0 20 7 20 15 0 8 -9 15 -20 15 -11
0 -20 -7 -20 -15z"/>
<path d="M2660 1515 c0 -8 7 -15 15 -15 8 0 15 7 15 15 0 8 -7 15 -15 15 -8 0
-15 -7 -15 -15z"/>
<path d="M2770 1515 c0 -8 7 -15 15 -15 8 0 15 7 15 15 0 8 -7 15 -15 15 -8 0
-15 -7 -15 -15z"/>
<path d="M2890 1515 c0 -8 7 -15 15 -15 8 0 15 7 15 15 0 8 -7 15 -15 15 -8 0
-15 -7 -15 -15z"/>
<path d="M3000 1515 c0 -8 7 -15 15 -15 8 0 15 7 15 15 0 8 -7 15 -15 15 -8 0
-15 -7 -15 -15z"/>
<path d="M3110 1515 c0 -8 9 -15 20 -15 11 0 20 7 20 15 0 8 -9 15 -20 15 -11
0 -20 -7 -20 -15z"/>
<path d="M3230 1515 c0 -8 7 -15 15 -15 8 0 15 7 15 15 0 8 -7 15 -15 15 -8 0
-15 -7 -15 -15z"/>
<path d="M3340 1515 c0 -8 7 -15 15 -15 8 0 15 7 15 15 0 8 -7 15 -15 15 -8 0
-15 -7 -15 -15z"/>
<path d="M3460 1515 c0 -8 5 -15 10 -15 6 0 10 7 10 15 0 8 -4 15 -10 15 -5 0
-10 -7 -10 -15z"/>
<path d="M3570 1515 c0 -8 7 -15 15 -15 8 0 15 7 15 15 0 8 -7 15 -15 15 -8 0
-15 -7 -15 -15z"/>
<path d="M730 1405 c0 -8 7 -15 15 -15 8 0 15 7 15 15 0 8 -7 15 -15 15 -8 0
-15 -7 -15 -15z"/>
<path d="M1300 1405 c0 -8 5 -15 10 -15 6 0 10 7 10 15 0 8 -4 15 -10 15 -5 0
-10 -7 -10 -15z"/>
<path d="M1970 1405 c0 -8 9 -15 20 -15 11 0 20 7 20 15 0 8 -9 15 -20 15 -11
0 -20 -7 -20 -15z"/>
<path d="M2320 1405 c0 -8 7 -15 15 -15 8 0 15 7 15 15 0 8 -7 15 -15 15 -8 0
-15 -7 -15 -15z"/>
<path d="M3000 1405 c0 -8 7 -15 15 -15 8 0 15 7 15 15 0 8 -7 15 -15 15 -8 0
-15 -7 -15 -15z"/>
<path d="M3570 1405 c0 -8 7 -15 15 -15 8 0 15 7 15 15 0 8 -7 15 -15 15 -8 0
-15 -7 -15 -15z"/>
<path d="M878 1389 c-22 -13 -24 -62 -2 -83 12 -12 37 -16 104 -16 71 0 89 -3
94 -16 3 -9 6 -80 6 -158 0 -129 2 -143 20 -159 26 -22 54 -22 80 0 19 16 20
29 20 220 0 190 -1 203 -19 213 -25 13 -280 13 -303 -1z m296 -15 c8 -20 8
-378 0 -398 -8 -20 -41 -21 -60 -2 -11 11 -14 47 -14 155 0 173 2 171 -116
171 -88 0 -114 10 -114 45 0 39 20 44 161 45 116 0 138 -2 143 -16z"/>
<path d="M1438 1389 c-22 -13 -24 -62 -2 -83 13 -14 47 -16 212 -16 186 0 199
1 215 20 22 26 22 59 0 76 -22 17 -398 19 -425 3z m418 -23 c3 -14 3 -34 -1
-45 -6 -20 -13 -21 -205 -21 -192 0 -199 1 -205 21 -4 11 -4 31 -1 45 l6 24
200 0 200 0 6 -24z"/>
<path d="M2458 1386 c-24 -18 -22 -55 4 -77 19 -17 40 -19 217 -19 185 0 198
1 214 20 22 26 22 59 0 76 -26 19 -410 19 -435 0z m418 -10 c8 -8 14 -22 14
-31 0 -41 -20 -45 -215 -45 -194 0 -215 4 -215 45 0 41 17 44 213 45 150 0
191 -3 203 -14z"/>
<path d="M3138 1386 c-16 -12 -18 -34 -18 -210 0 -183 1 -197 20 -216 25 -25
53 -26 80 -3 18 16 20 30 20 161 0 111 3 147 14 158 10 10 39 14 100 14 64 0
88 4 100 16 23 22 20 71 -3 84 -30 15 -292 12 -313 -4z m308 -10 c18 -19 18
-43 0 -62 -11 -10 -40 -14 -105 -14 -79 0 -92 -2 -101 -19 -5 -11 -10 -81 -10
-156 0 -105 -3 -140 -14 -151 -19 -19 -52 -18 -60 2 -3 9 -6 98 -6 199 0 101
3 190 6 199 9 22 268 24 290 2z"/>
<path d="M730 1285 c0 -8 7 -15 15 -15 8 0 15 7 15 15 0 8 -7 15 -15 15 -8 0
-15 -7 -15 -15z"/>
<path d="M1300 1285 c0 -8 5 -15 10 -15 6 0 10 7 10 15 0 8 -4 15 -10 15 -5 0
-10 -7 -10 -15z"/>
<path d="M1970 1285 c0 -8 9 -15 20 -15 11 0 20 7 20 15 0 8 -9 15 -20 15 -11
0 -20 -7 -20 -15z"/>
<path d="M2320 1285 c0 -8 7 -15 15 -15 8 0 15 7 15 15 0 8 -7 15 -15 15 -8 0
-15 -7 -15 -15z"/>
<path d="M3000 1285 c0 -8 7 -15 15 -15 8 0 15 7 15 15 0 8 -7 15 -15 15 -8 0
-15 -7 -15 -15z"/>
<path d="M3570 1285 c0 -8 7 -15 15 -15 8 0 15 7 15 15 0 8 -7 15 -15 15 -8 0
-15 -7 -15 -15z"/>
<path d="M1237 1267 c-14 -16 -17 -33 -14 -67 3 -24 10 -46 16 -48 6 -2 18
-10 25 -18 16 -16 86 -19 86 -4 0 6 7 10 15 10 30 0 45 77 23 125 -12 27 -38
34 -38 10 0 -8 -4 -15 -9 -15 -5 0 -11 -13 -14 -30 -4 -16 -11 -30 -17 -30 -6
0 -13 14 -16 30 -4 17 -10 30 -15 30 -5 0 -9 7 -9 15 0 21 -12 18 -33 -8z"/>
<path d="M697 1210 c-35 -41 -11 -89 43 -89 33 0 60 21 60 47 0 31 -30 62 -60
62 -14 0 -33 -9 -43 -20z"/>
<path d="M3544 1213 c-15 -13 -18 -26 -14 -48 11 -61 110 -58 110 4 0 55 -56
80 -96 44z"/>
<path d="M840 1180 c0 -11 7 -20 15 -20 8 0 15 9 15 20 0 11 -7 20 -15 20 -8
0 -15 -9 -15 -20z"/>
<path d="M957 1193 c-14 -13 -6 -33 13 -33 13 0 20 7 20 20 0 19 -20 27 -33
13z"/>
<path d="M2320 1180 c0 -11 7 -20 15 -20 8 0 15 9 15 20 0 11 -7 20 -15 20 -8
0 -15 -9 -15 -20z"/>
<path d="M2430 1180 c0 -11 7 -20 15 -20 8 0 15 9 15 20 0 11 -7 20 -15 20 -8
0 -15 -9 -15 -20z"/>
<path d="M2540 1180 c0 -13 7 -20 20 -20 13 0 20 7 20 20 0 13 -7 20 -20 20
-13 0 -20 -7 -20 -20z"/>
<path d="M2660 1180 c0 -11 7 -20 15 -20 8 0 15 9 15 20 0 11 -7 20 -15 20 -8
0 -15 -9 -15 -20z"/>
<path d="M2770 1180 c0 -11 7 -20 15 -20 8 0 15 9 15 20 0 11 -7 20 -15 20 -8
0 -15 -9 -15 -20z"/>
<path d="M2890 1180 c0 -11 7 -20 15 -20 8 0 15 9 15 20 0 11 -7 20 -15 20 -8
0 -15 -9 -15 -20z"/>
<path d="M3000 1180 c0 -11 7 -20 15 -20 8 0 15 9 15 20 0 11 -7 20 -15 20 -8
0 -15 -9 -15 -20z"/>
<path d="M3340 1180 c0 -11 7 -20 15 -20 8 0 15 9 15 20 0 11 -7 20 -15 20 -8
0 -15 -9 -15 -20z"/>
<path d="M3460 1180 c0 -11 5 -20 10 -20 6 0 10 9 10 20 0 11 -4 20 -10 20 -5
0 -10 -9 -10 -20z"/>
<path d="M950 1060 c0 -13 7 -20 20 -20 13 0 20 7 20 20 0 13 -7 20 -20 20
-13 0 -20 -7 -20 -20z"/>
<path d="M1300 1060 c0 -11 5 -20 10 -20 6 0 10 9 10 20 0 11 -4 20 -10 20 -5
0 -10 -9 -10 -20z"/>
<path d="M1630 1060 c0 -13 7 -20 20 -20 13 0 20 7 20 20 0 13 -7 20 -20 20
-13 0 -20 -7 -20 -20z"/>
<path d="M2660 1060 c0 -11 7 -20 15 -20 8 0 15 9 15 20 0 11 -7 20 -15 20 -8
0 -15 -9 -15 -20z"/>
<path d="M3000 1060 c0 -11 7 -20 15 -20 8 0 15 9 15 20 0 11 -7 20 -15 20 -8
0 -15 -9 -15 -20z"/>
<path d="M3340 1060 c0 -11 7 -20 15 -20 8 0 15 9 15 20 0 11 -7 20 -15 20 -8
0 -15 -9 -15 -20z"/>
<path d="M1442 1050 c-8 -13 -12 -66 -12 -164 0 -122 -2 -145 -16 -150 -9 -3
-128 -6 -265 -6 -221 0 -251 -2 -269 -17 -26 -23 -26 -73 0 -96 19 -16 60 -17
490 -17 457 0 471 1 490 20 25 25 26 64 0 90 -17 17 -36 20 -167 22 l-148 3
-3 150 c-2 132 -5 151 -22 167 -25 24 -62 23 -78 -2z m62 -6 c14 -5 16 -29 16
-160 0 -141 2 -154 19 -164 11 -5 84 -10 165 -10 l146 0 6 -25 c14 -58 37 -55
-480 -55 -261 0 -481 3 -490 6 -20 8 -21 41 -2 60 12 11 61 14 266 14 154 0
259 4 271 10 17 10 19 23 19 164 0 84 3 156 7 159 8 9 36 9 57 1z"/>
<path d="M1778 1049 c-23 -24 -23 -55 0 -79 16 -17 35 -20 167 -22 l150 -3 3
-154 c2 -144 4 -154 25 -172 29 -24 58 -24 80 1 14 17 17 43 17 169 0 127 2
150 16 155 9 3 78 6 154 6 113 0 142 3 154 16 22 22 20 66 -4 87 -18 15 -53
17 -383 16 -343 -1 -363 -2 -379 -20z m758 -14 c4 -8 3 -26 0 -40 l-6 -25
-148 0 c-192 0 -182 10 -182 -185 0 -158 -2 -164 -55 -151 l-25 6 0 146 c0 81
-5 154 -10 165 -10 17 -23 19 -165 19 l-155 0 -6 25 c-14 57 -27 55 376 55
320 0 371 -2 376 -15z"/>
<path d="M2808 1051 c-16 -15 -18 -38 -18 -163 0 -124 -2 -147 -16 -152 -9 -3
-77 -6 -153 -6 -130 0 -139 -1 -158 -22 -26 -29 -25 -61 4 -87 22 -21 32 -21
492 -21 431 0 472 1 491 17 12 11 20 30 20 48 0 62 -12 65 -289 65 -137 0
-256 3 -265 6 -14 5 -16 28 -16 153 0 134 -2 148 -20 164 -25 21 -50 21 -72
-2z m66 -7 c14 -5 16 -29 16 -160 0 -141 2 -154 19 -164 12 -6 117 -10 271
-10 205 0 254 -3 266 -14 19 -19 18 -52 -2 -60 -20 -8 -948 -8 -968 0 -20 8
-21 41 -2 60 11 11 47 14 158 14 103 1 148 4 161 14 15 12 17 32 17 163 0 82
3 153 7 156 8 9 36 9 57 1z"/>
<path d="M950 945 c0 -8 9 -15 20 -15 11 0 20 7 20 15 0 8 -9 15 -20 15 -11 0
-20 -7 -20 -15z"/>
<path d="M1300 951 c0 -6 5 -13 10 -16 6 -3 10 1 10 9 0 9 -4 16 -10 16 -5 0
-10 -4 -10 -9z"/>
<path d="M1630 950 c0 -5 9 -10 20 -10 11 0 20 5 20 10 0 6 -9 10 -20 10 -11
0 -20 -4 -20 -10z"/>
<path d="M2660 945 c0 -9 6 -12 15 -9 8 4 15 10 15 15 0 5 -7 9 -15 9 -8 0
-15 -7 -15 -15z"/>
<path d="M3000 951 c0 -5 7 -11 15 -15 9 -3 15 0 15 9 0 8 -7 15 -15 15 -8 0
-15 -4 -15 -9z"/>
<path d="M3340 945 c0 -8 7 -15 15 -15 8 0 15 7 15 15 0 8 -7 15 -15 15 -8 0
-15 -7 -15 -15z"/>
<path d="M730 835 c0 -8 7 -15 15 -15 8 0 15 7 15 15 0 8 -7 15 -15 15 -8 0
-15 -7 -15 -15z"/>
<path d="M840 835 c0 -8 7 -15 15 -15 8 0 15 7 15 15 0 8 -7 15 -15 15 -8 0
-15 -7 -15 -15z"/>
<path d="M950 835 c0 -8 9 -15 20 -15 11 0 20 7 20 15 0 8 -9 15 -20 15 -11 0
-20 -7 -20 -15z"/>
<path d="M1070 835 c0 -8 7 -15 15 -15 8 0 15 7 15 15 0 8 -7 15 -15 15 -8 0
-15 -7 -15 -15z"/>
<path d="M1180 835 c0 -8 9 -15 20 -15 11 0 20 7 20 15 0 8 -9 15 -20 15 -11
0 -20 -7 -20 -15z"/>
<path d="M1300 835 c0 -8 5 -15 10 -15 6 0 10 7 10 15 0 8 -4 15 -10 15 -5 0
-10 -7 -10 -15z"/>
<path d="M1630 835 c0 -8 9 -15 20 -15 11 0 20 7 20 15 0 8 -9 15 -20 15 -11
0 -20 -7 -20 -15z"/>
<path d="M1750 835 c0 -8 9 -15 20 -15 11 0 20 7 20 15 0 8 -9 15 -20 15 -11
0 -20 -7 -20 -15z"/>
<path d="M1860 835 c0 -8 7 -15 15 -15 8 0 15 7 15 15 0 8 -7 15 -15 15 -8 0
-15 -7 -15 -15z"/>
<path d="M1970 835 c0 -8 9 -15 20 -15 11 0 20 7 20 15 0 8 -9 15 -20 15 -11
0 -20 -7 -20 -15z"/>
<path d="M2320 835 c0 -8 7 -15 15 -15 8 0 15 7 15 15 0 8 -7 15 -15 15 -8 0
-15 -7 -15 -15z"/>
<path d="M2430 835 c0 -8 7 -15 15 -15 8 0 15 7 15 15 0 8 -7 15 -15 15 -8 0
-15 -7 -15 -15z"/>
<path d="M2540 835 c0 -8 9 -15 20 -15 11 0 20 7 20 15 0 8 -9 15 -20 15 -11
0 -20 -7 -20 -15z"/>
<path d="M2660 835 c0 -8 7 -15 15 -15 8 0 15 7 15 15 0 8 -7 15 -15 15 -8 0
-15 -7 -15 -15z"/>
<path d="M3000 835 c0 -8 7 -15 15 -15 8 0 15 7 15 15 0 8 -7 15 -15 15 -8 0
-15 -7 -15 -15z"/>
<path d="M3110 835 c0 -8 9 -15 20 -15 11 0 20 7 20 15 0 8 -9 15 -20 15 -11
0 -20 -7 -20 -15z"/>
<path d="M3230 835 c0 -8 7 -15 15 -15 8 0 15 7 15 15 0 8 -7 15 -15 15 -8 0
-15 -7 -15 -15z"/>
<path d="M3340 835 c0 -8 7 -15 15 -15 8 0 15 7 15 15 0 8 -7 15 -15 15 -8 0
-15 -7 -15 -15z"/>
<path d="M3460 835 c0 -8 5 -15 10 -15 6 0 10 7 10 15 0 8 -4 15 -10 15 -5 0
-10 -7 -10 -15z"/>
<path d="M3570 835 c0 -8 7 -15 15 -15 8 0 15 7 15 15 0 8 -7 15 -15 15 -8 0
-15 -7 -15 -15z"/>
<path d="M730 720 c0 -5 7 -10 15 -10 8 0 15 5 15 10 0 6 -7 10 -15 10 -8 0
-15 -4 -15 -10z"/>
<path d="M1970 720 c0 -5 9 -10 20 -10 11 0 20 5 20 10 0 6 -9 10 -20 10 -11
0 -20 -4 -20 -10z"/>
<path d="M2320 720 c0 -5 7 -10 15 -10 8 0 15 5 15 10 0 6 -7 10 -15 10 -8 0
-15 -4 -15 -10z"/>
<path d="M3570 720 c0 -5 7 -10 15 -10 8 0 15 5 15 10 0 6 -7 10 -15 10 -8 0
-15 -4 -15 -10z"/>
<path d="M730 610 c0 -11 7 -20 15 -20 8 0 15 9 15 20 0 11 -7 20 -15 20 -8 0
-15 -9 -15 -20z"/>
<path d="M1977 623 c-14 -13 -6 -33 13 -33 13 0 20 7 20 20 0 19 -20 27 -33
13z"/>
<path d="M2320 610 c0 -11 7 -20 15 -20 8 0 15 9 15 20 0 11 -7 20 -15 20 -8
0 -15 -9 -15 -20z"/>
<path d="M3570 610 c0 -11 7 -20 15 -20 8 0 15 9 15 20 0 11 -7 20 -15 20 -8
0 -15 -9 -15 -20z"/>
<path d="M730 495 c0 -8 7 -15 15 -15 8 0 15 7 15 15 0 8 -7 15 -15 15 -8 0
-15 -7 -15 -15z"/>
<path d="M840 495 c0 -8 7 -15 15 -15 8 0 15 7 15 15 0 8 -7 15 -15 15 -8 0
-15 -7 -15 -15z"/>
<path d="M950 495 c0 -8 9 -15 20 -15 11 0 20 7 20 15 0 8 -9 15 -20 15 -11 0
-20 -7 -20 -15z"/>
<path d="M1070 495 c0 -8 7 -15 15 -15 8 0 15 7 15 15 0 8 -7 15 -15 15 -8 0
-15 -7 -15 -15z"/>
<path d="M1180 495 c0 -8 9 -15 20 -15 11 0 20 7 20 15 0 8 -9 15 -20 15 -11
0 -20 -7 -20 -15z"/>
<path d="M1300 495 c0 -8 5 -15 10 -15 6 0 10 7 10 15 0 8 -4 15 -10 15 -5 0
-10 -7 -10 -15z"/>
<path d="M1400 495 c0 -8 9 -15 20 -15 11 0 20 7 20 15 0 8 -9 15 -20 15 -11
0 -20 -7 -20 -15z"/>
<path d="M1520 495 c0 -8 9 -15 20 -15 11 0 20 7 20 15 0 8 -9 15 -20 15 -11
0 -20 -7 -20 -15z"/>
<path d="M1630 495 c0 -8 9 -15 20 -15 11 0 20 7 20 15 0 8 -9 15 -20 15 -11
0 -20 -7 -20 -15z"/>
<path d="M1750 496 c0 -10 9 -16 21 -16 24 0 21 23 -4 28 -10 2 -17 -3 -17
-12z"/>
<path d="M1860 495 c0 -8 7 -15 15 -15 8 0 15 7 15 15 0 8 -7 15 -15 15 -8 0
-15 -7 -15 -15z"/>
<path d="M1970 495 c0 -8 9 -15 20 -15 11 0 20 7 20 15 0 8 -9 15 -20 15 -11
0 -20 -7 -20 -15z"/>
<path d="M2090 495 c0 -8 7 -15 15 -15 8 0 15 7 15 15 0 8 -7 15 -15 15 -8 0
-15 -7 -15 -15z"/>
<path d="M2200 495 c0 -10 7 -15 18 -13 21 4 19 22 -2 26 -10 2 -16 -3 -16
-13z"/>
<path d="M2320 495 c0 -8 7 -15 15 -15 8 0 15 7 15 15 0 8 -7 15 -15 15 -8 0
-15 -7 -15 -15z"/>
<path d="M2430 495 c0 -8 7 -15 15 -15 8 0 15 7 15 15 0 8 -7 15 -15 15 -8 0
-15 -7 -15 -15z"/>
<path d="M2540 495 c0 -8 9 -15 20 -15 11 0 20 7 20 15 0 8 -9 15 -20 15 -11
0 -20 -7 -20 -15z"/>
<path d="M2660 495 c0 -8 7 -15 15 -15 8 0 15 7 15 15 0 8 -7 15 -15 15 -8 0
-15 -7 -15 -15z"/>
<path d="M2770 495 c0 -8 7 -15 15 -15 8 0 15 7 15 15 0 8 -7 15 -15 15 -8 0
-15 -7 -15 -15z"/>
<path d="M2890 495 c0 -8 7 -15 15 -15 8 0 15 7 15 15 0 8 -7 15 -15 15 -8 0
-15 -7 -15 -15z"/>
<path d="M3000 495 c0 -8 7 -15 15 -15 8 0 15 7 15 15 0 8 -7 15 -15 15 -8 0
-15 -7 -15 -15z"/>
<path d="M3117 503 c-13 -12 -7 -23 13 -23 11 0 20 7 20 15 0 15 -21 21 -33 8z"/>
<path d="M3230 495 c0 -8 7 -15 15 -15 8 0 15 7 15 15 0 8 -7 15 -15 15 -8 0
-15 -7 -15 -15z"/>
<path d="M3340 495 c0 -8 7 -15 15 -15 8 0 15 7 15 15 0 8 -7 15 -15 15 -8 0
-15 -7 -15 -15z"/>
<path d="M3460 495 c0 -8 5 -15 10 -15 6 0 10 7 10 15 0 8 -4 15 -10 15 -5 0
-10 -7 -10 -15z"/>
<path d="M3570 495 c0 -8 7 -15 15 -15 8 0 15 7 15 15 0 8 -7 15 -15 15 -8 0
-15 -7 -15 -15z"/>
<path d="M848 281 c-10 -10 -18 -21 -18 -25 0 -14 25 -32 60 -42 l35 -11 -34
-7 c-58 -14 -78 -46 -42 -66 42 -22 121 -6 121 25 0 8 5 15 10 15 6 0 10 16
10 35 0 19 -4 35 -10 35 -5 0 -10 6 -10 13 0 41 -89 62 -122 28z"/>
<path d="M1078 281 c-22 -22 -23 -41 -3 -41 8 0 15 -4 15 -9 0 -4 15 -12 33
-18 l32 -10 -32 -7 c-18 -4 -33 -12 -33 -17 0 -5 -7 -9 -15 -9 -8 0 -15 -7
-15 -15 0 -31 71 -46 123 -26 44 17 49 137 6 148 -10 3 -19 9 -19 14 0 16 -74
8 -92 -10z"/>
<path d="M3155 290 c-3 -5 -14 -10 -23 -10 -10 0 -25 -9 -35 -20 -18 -21 -24
-70 -8 -70 5 0 14 -13 19 -29 18 -50 103 -47 116 5 4 13 11 24 16 24 16 0 11
48 -7 70 -10 11 -25 20 -35 20 -10 0 -18 5 -18 10 0 6 -4 10 -9 10 -6 0 -13
-4 -16 -10z m-10 -43 c16 -5 15 -5 -4 -4 -14 1 -26 9 -28 17 -3 10 -2 11 4 4
4 -7 17 -14 28 -17z m75 13 c0 -5 -2 -10 -4 -10 -2 0 -12 -3 -22 -7 -16 -6
-17 -5 -4 10 17 19 30 22 30 7z m0 -60 c0 -5 -4 -10 -10 -10 -5 0 -10 5 -10
10 0 6 5 10 10 10 6 0 10 -4 10 -10z"/>
<path d="M3460 290 c0 -5 -15 -12 -34 -16 -19 -3 -37 -12 -40 -20 -3 -8 -17
-14 -31 -14 -15 0 -33 -6 -41 -14 -16 -17 -19 -56 -4 -56 6 0 10 -7 10 -15 0
-8 9 -15 20 -15 14 0 20 7 20 24 0 13 5 26 11 28 6 2 12 15 13 28 1 16 8 26
21 29 11 2 24 8 28 15 5 6 6 -2 2 -18 -5 -26 -4 -27 10 -13 8 9 15 20 15 26 0
6 5 11 10 11 6 0 10 7 10 15 0 8 -4 15 -10 15 -5 0 -10 -4 -10 -10z m-115
-118 c-3 -3 -11 0 -18 7 -9 10 -8 11 6 5 10 -3 15 -9 12 -12z"/>
<path d="M3396 204 c-11 -10 -16 -29 -14 -48 3 -29 6 -31 43 -31 37 0 40 2 43
30 3 36 -6 50 -34 59 -14 4 -28 1 -38 -10z m14 -49 c0 -8 5 -15 12 -15 6 0 9
-2 6 -5 -3 -3 -13 -3 -22 1 -17 7 -22 34 -6 34 6 0 10 -7 10 -15z"/>
</g>
</svg>
