<?xml version="1.0" encoding="UTF-8"?>
<svg xmlns="http://www.w3.org/2000/svg" xmlns:xlink="http://www.w3.org/1999/xlink" width="498" height="174" viewBox="0 0 498 174">
<path fill="none" stroke-width="0.4" stroke-linecap="butt" stroke-linejoin="round" stroke="rgb(0%, 0%, 0%)" stroke-opacity="1" stroke-miterlimit="10" d="M 112 772 C 109.789062 772 108 770.210938 108 768 " transform="matrix(1, 0, 0, -1, -55, 841)"/>
<path fill="none" stroke-width="0.4" stroke-linecap="butt" stroke-linejoin="round" stroke="rgb(0%, 0%, 0%)" stroke-opacity="1" stroke-miterlimit="10" d="M 108 752 C 108 749.789062 109.789062 748 112 748 " transform="matrix(1, 0, 0, -1, -55, 841)"/>
<path fill="none" stroke-width="0.4" stroke-linecap="butt" stroke-linejoin="round" stroke="rgb(0%, 0%, 0%)" stroke-opacity="1" stroke-miterlimit="10" d="M 128 748 C 130.210938 748 132 749.789062 132 752 " transform="matrix(1, 0, 0, -1, -55, 841)"/>
<path fill="none" stroke-width="0.4" stroke-linecap="butt" stroke-linejoin="round" stroke="rgb(0%, 0%, 0%)" stroke-opacity="1" stroke-miterlimit="10" d="M 132 768 C 132 770.210938 130.210938 772 128 772 " transform="matrix(1, 0, 0, -1, -55, 841)"/>
<path fill="none" stroke-width="0.4" stroke-linecap="butt" stroke-linejoin="round" stroke="rgb(0%, 0%, 0%)" stroke-opacity="1" stroke-miterlimit="10" d="M 128 772 L 112 772 " transform="matrix(1, 0, 0, -1, -55, 841)"/>
<path fill="none" stroke-width="0.4" stroke-linecap="butt" stroke-linejoin="round" stroke="rgb(0%, 0%, 0%)" stroke-opacity="1" stroke-miterlimit="10" d="M 108 768 L 108 752 " transform="matrix(1, 0, 0, -1, -55, 841)"/>
<path fill="none" stroke-width="0.4" stroke-linecap="butt" stroke-linejoin="round" stroke="rgb(0%, 0%, 0%)" stroke-opacity="1" stroke-miterlimit="10" d="M 112 748 L 128 748 " transform="matrix(1, 0, 0, -1, -55, 841)"/>
<path fill="none" stroke-width="0.4" stroke-linecap="butt" stroke-linejoin="round" stroke="rgb(0%, 0%, 0%)" stroke-opacity="1" stroke-miterlimit="10" d="M 132 752 L 132 768 " transform="matrix(1, 0, 0, -1, -55, 841)"/>
<path fill="none" stroke-width="0.4" stroke-linecap="butt" stroke-linejoin="round" stroke="rgb(0%, 0%, 0%)" stroke-opacity="1" stroke-miterlimit="10" d="M 108 764 L 132 764 " transform="matrix(1, 0, 0, -1, -55, 841)"/>
<path fill="none" stroke-width="0.4" stroke-linecap="butt" stroke-linejoin="round" stroke="rgb(0%, 0%, 0%)" stroke-opacity="1" stroke-miterlimit="10" d="M 132 756 L 108 756 " transform="matrix(1, 0, 0, -1, -55, 841)"/>
<path fill="none" stroke-width="0.4" stroke-linecap="butt" stroke-linejoin="round" stroke="rgb(0%, 0%, 0%)" stroke-opacity="1" stroke-miterlimit="10" d="M 116 772 L 116 748 " transform="matrix(1, 0, 0, -1, -55, 841)"/>
<path fill="none" stroke-width="0.4" stroke-linecap="butt" stroke-linejoin="round" stroke="rgb(0%, 0%, 0%)" stroke-opacity="1" stroke-miterlimit="10" d="M 124 772 L 124 748 " transform="matrix(1, 0, 0, -1, -55, 841)"/>
<path fill-rule="evenodd" fill="rgb(0%, 0%, 0%)" fill-opacity="1" stroke-width="0.4" stroke-linecap="butt" stroke-linejoin="round" stroke="rgb(0%, 0%, 0%)" stroke-opacity="1" stroke-miterlimit="10" d="M 116 764 L 116 756 L 124 756 L 124 764 Z M 116 764 " transform="matrix(1, 0, 0, -1, -55, 841)"/>
<path fill-rule="evenodd" fill="rgb(0%, 100%, 0%)" fill-opacity="1" d="M 73 93 C 75.210938 93 77 91.210938 77 89 "/>
<path fill-rule="evenodd" fill="rgb(0%, 100%, 0%)" fill-opacity="1" d="M 69 85 L 69 93 L 73 93 L 77 89 L 77 85 Z M 69 85 "/>
<path fill="none" stroke-width="0.4" stroke-linecap="butt" stroke-linejoin="round" stroke="rgb(0%, 0%, 0%)" stroke-opacity="1" stroke-miterlimit="10" d="M 128 748 C 130.210938 748 132 749.789062 132 752 " transform="matrix(1, 0, 0, -1, -55, 841)"/>
<path fill="none" stroke-width="0.4" stroke-linecap="butt" stroke-linejoin="round" stroke="rgb(0%, 0%, 0%)" stroke-opacity="1" stroke-miterlimit="10" d="M 132 752 L 132 756 L 124 756 L 124 748 L 128 748 " transform="matrix(1, 0, 0, -1, -55, 841)"/>
<path fill-rule="evenodd" fill="rgb(0%, 100%, 0%)" fill-opacity="1" stroke-width="0.4" stroke-linecap="butt" stroke-linejoin="round" stroke="rgb(0%, 0%, 0%)" stroke-opacity="1" stroke-miterlimit="10" d="M 124 764 L 124 756 L 132 756 L 132 764 Z M 124 764 " transform="matrix(1, 0, 0, -1, -55, 841)"/>
<path fill-rule="evenodd" fill="rgb(100%, 0%, 0%)" fill-opacity="1" d="M 66.800781 73 C 66.800781 70.601562 63.199219 70.601562 63.199219 73 C 63.199219 75.398438 66.800781 75.398438 66.800781 73 Z M 66.800781 73 "/>
<path fill="none" stroke-width="0.4" stroke-linecap="butt" stroke-linejoin="round" stroke="rgb(0%, 0%, 0%)" stroke-opacity="1" stroke-miterlimit="10" d="M 176 804 C 173.789062 804 172 802.210938 172 800 " transform="matrix(1, 0, 0, -1, -55, 841)"/>
<path fill="none" stroke-width="0.4" stroke-linecap="butt" stroke-linejoin="round" stroke="rgb(0%, 0%, 0%)" stroke-opacity="1" stroke-miterlimit="10" d="M 172 784 C 172 781.789062 173.789062 780 176 780 " transform="matrix(1, 0, 0, -1, -55, 841)"/>
<path fill="none" stroke-width="0.4" stroke-linecap="butt" stroke-linejoin="round" stroke="rgb(0%, 0%, 0%)" stroke-opacity="1" stroke-miterlimit="10" d="M 192 780 C 194.210938 780 196 781.789062 196 784 " transform="matrix(1, 0, 0, -1, -55, 841)"/>
<path fill="none" stroke-width="0.4" stroke-linecap="butt" stroke-linejoin="round" stroke="rgb(0%, 0%, 0%)" stroke-opacity="1" stroke-miterlimit="10" d="M 196 800 C 196 802.210938 194.210938 804 192 804 " transform="matrix(1, 0, 0, -1, -55, 841)"/>
<path fill="none" stroke-width="0.4" stroke-linecap="butt" stroke-linejoin="round" stroke="rgb(0%, 0%, 0%)" stroke-opacity="1" stroke-miterlimit="10" d="M 192 804 L 176 804 " transform="matrix(1, 0, 0, -1, -55, 841)"/>
<path fill="none" stroke-width="0.4" stroke-linecap="butt" stroke-linejoin="round" stroke="rgb(0%, 0%, 0%)" stroke-opacity="1" stroke-miterlimit="10" d="M 172 800 L 172 784 " transform="matrix(1, 0, 0, -1, -55, 841)"/>
<path fill="none" stroke-width="0.4" stroke-linecap="butt" stroke-linejoin="round" stroke="rgb(0%, 0%, 0%)" stroke-opacity="1" stroke-miterlimit="10" d="M 176 780 L 192 780 " transform="matrix(1, 0, 0, -1, -55, 841)"/>
<path fill="none" stroke-width="0.4" stroke-linecap="butt" stroke-linejoin="round" stroke="rgb(0%, 0%, 0%)" stroke-opacity="1" stroke-miterlimit="10" d="M 196 784 L 196 800 " transform="matrix(1, 0, 0, -1, -55, 841)"/>
<path fill="none" stroke-width="0.4" stroke-linecap="butt" stroke-linejoin="round" stroke="rgb(0%, 0%, 0%)" stroke-opacity="1" stroke-miterlimit="10" d="M 172 796 L 196 796 " transform="matrix(1, 0, 0, -1, -55, 841)"/>
<path fill="none" stroke-width="0.4" stroke-linecap="butt" stroke-linejoin="round" stroke="rgb(0%, 0%, 0%)" stroke-opacity="1" stroke-miterlimit="10" d="M 196 788 L 172 788 " transform="matrix(1, 0, 0, -1, -55, 841)"/>
<path fill="none" stroke-width="0.4" stroke-linecap="butt" stroke-linejoin="round" stroke="rgb(0%, 0%, 0%)" stroke-opacity="1" stroke-miterlimit="10" d="M 180 804 L 180 780 " transform="matrix(1, 0, 0, -1, -55, 841)"/>
<path fill="none" stroke-width="0.4" stroke-linecap="butt" stroke-linejoin="round" stroke="rgb(0%, 0%, 0%)" stroke-opacity="1" stroke-miterlimit="10" d="M 188 804 L 188 780 " transform="matrix(1, 0, 0, -1, -55, 841)"/>
<path fill-rule="evenodd" fill="rgb(0%, 0%, 0%)" fill-opacity="1" stroke-width="0.4" stroke-linecap="butt" stroke-linejoin="round" stroke="rgb(0%, 0%, 0%)" stroke-opacity="1" stroke-miterlimit="10" d="M 180 796 L 180 788 L 188 788 L 188 796 Z M 180 796 " transform="matrix(1, 0, 0, -1, -55, 841)"/>
<path fill-rule="evenodd" fill="rgb(0%, 100%, 0%)" fill-opacity="1" d="M 137 61 C 139.210938 61 141 59.210938 141 57 "/>
<path fill-rule="evenodd" fill="rgb(0%, 100%, 0%)" fill-opacity="1" d="M 133 53 L 133 61 L 137 61 L 141 57 L 141 53 Z M 133 53 "/>
<path fill="none" stroke-width="0.4" stroke-linecap="butt" stroke-linejoin="round" stroke="rgb(0%, 0%, 0%)" stroke-opacity="1" stroke-miterlimit="10" d="M 192 780 C 194.210938 780 196 781.789062 196 784 " transform="matrix(1, 0, 0, -1, -55, 841)"/>
<path fill="none" stroke-width="0.4" stroke-linecap="butt" stroke-linejoin="round" stroke="rgb(0%, 0%, 0%)" stroke-opacity="1" stroke-miterlimit="10" d="M 196 784 L 196 788 L 188 788 L 188 780 L 192 780 " transform="matrix(1, 0, 0, -1, -55, 841)"/>
<path fill-rule="evenodd" fill="rgb(0%, 100%, 0%)" fill-opacity="1" stroke-width="0.4" stroke-linecap="butt" stroke-linejoin="round" stroke="rgb(0%, 0%, 0%)" stroke-opacity="1" stroke-miterlimit="10" d="M 188 796 L 188 788 L 196 788 L 196 796 Z M 188 796 " transform="matrix(1, 0, 0, -1, -55, 841)"/>
<path fill-rule="evenodd" fill="rgb(100%, 0%, 0%)" fill-opacity="1" d="M 122.800781 41 C 122.800781 38.601562 119.199219 38.601562 119.199219 41 C 119.199219 43.398438 122.800781 43.398438 122.800781 41 Z M 122.800781 41 "/>
<path fill="none" stroke-width="0.4" stroke-linecap="butt" stroke-linejoin="round" stroke="rgb(0%, 0%, 0%)" stroke-opacity="1" stroke-miterlimit="10" d="M 304 836 C 301.789062 836 300 834.210938 300 832 " transform="matrix(1, 0, 0, -1, -55, 841)"/>
<path fill="none" stroke-width="0.4" stroke-linecap="butt" stroke-linejoin="round" stroke="rgb(0%, 0%, 0%)" stroke-opacity="1" stroke-miterlimit="10" d="M 300 816 C 300 813.789062 301.789062 812 304 812 " transform="matrix(1, 0, 0, -1, -55, 841)"/>
<path fill="none" stroke-width="0.4" stroke-linecap="butt" stroke-linejoin="round" stroke="rgb(0%, 0%, 0%)" stroke-opacity="1" stroke-miterlimit="10" d="M 320 812 C 322.210938 812 324 813.789062 324 816 " transform="matrix(1, 0, 0, -1, -55, 841)"/>
<path fill="none" stroke-width="0.4" stroke-linecap="butt" stroke-linejoin="round" stroke="rgb(0%, 0%, 0%)" stroke-opacity="1" stroke-miterlimit="10" d="M 324 832 C 324 834.210938 322.210938 836 320 836 " transform="matrix(1, 0, 0, -1, -55, 841)"/>
<path fill="none" stroke-width="0.4" stroke-linecap="butt" stroke-linejoin="round" stroke="rgb(0%, 0%, 0%)" stroke-opacity="1" stroke-miterlimit="10" d="M 320 836 L 304 836 " transform="matrix(1, 0, 0, -1, -55, 841)"/>
<path fill="none" stroke-width="0.4" stroke-linecap="butt" stroke-linejoin="round" stroke="rgb(0%, 0%, 0%)" stroke-opacity="1" stroke-miterlimit="10" d="M 300 832 L 300 816 " transform="matrix(1, 0, 0, -1, -55, 841)"/>
<path fill="none" stroke-width="0.4" stroke-linecap="butt" stroke-linejoin="round" stroke="rgb(0%, 0%, 0%)" stroke-opacity="1" stroke-miterlimit="10" d="M 304 812 L 320 812 " transform="matrix(1, 0, 0, -1, -55, 841)"/>
<path fill="none" stroke-width="0.4" stroke-linecap="butt" stroke-linejoin="round" stroke="rgb(0%, 0%, 0%)" stroke-opacity="1" stroke-miterlimit="10" d="M 324 816 L 324 832 " transform="matrix(1, 0, 0, -1, -55, 841)"/>
<path fill="none" stroke-width="0.4" stroke-linecap="butt" stroke-linejoin="round" stroke="rgb(0%, 0%, 0%)" stroke-opacity="1" stroke-miterlimit="10" d="M 300 828 L 324 828 " transform="matrix(1, 0, 0, -1, -55, 841)"/>
<path fill="none" stroke-width="0.4" stroke-linecap="butt" stroke-linejoin="round" stroke="rgb(0%, 0%, 0%)" stroke-opacity="1" stroke-miterlimit="10" d="M 324 820 L 300 820 " transform="matrix(1, 0, 0, -1, -55, 841)"/>
<path fill="none" stroke-width="0.4" stroke-linecap="butt" stroke-linejoin="round" stroke="rgb(0%, 0%, 0%)" stroke-opacity="1" stroke-miterlimit="10" d="M 308 836 L 308 812 " transform="matrix(1, 0, 0, -1, -55, 841)"/>
<path fill="none" stroke-width="0.4" stroke-linecap="butt" stroke-linejoin="round" stroke="rgb(0%, 0%, 0%)" stroke-opacity="1" stroke-miterlimit="10" d="M 316 836 L 316 812 " transform="matrix(1, 0, 0, -1, -55, 841)"/>
<path fill-rule="evenodd" fill="rgb(0%, 0%, 0%)" fill-opacity="1" stroke-width="0.4" stroke-linecap="butt" stroke-linejoin="round" stroke="rgb(0%, 0%, 0%)" stroke-opacity="1" stroke-miterlimit="10" d="M 308 828 L 308 820 L 316 820 L 316 828 Z M 308 828 " transform="matrix(1, 0, 0, -1, -55, 841)"/>
<path fill-rule="evenodd" fill="rgb(0%, 100%, 0%)" fill-opacity="1" d="M 265 29 C 267.210938 29 269 27.210938 269 25 "/>
<path fill-rule="evenodd" fill="rgb(0%, 100%, 0%)" fill-opacity="1" d="M 261 21 L 261 29 L 265 29 L 269 25 L 269 21 Z M 261 21 "/>
<path fill="none" stroke-width="0.4" stroke-linecap="butt" stroke-linejoin="round" stroke="rgb(0%, 0%, 0%)" stroke-opacity="1" stroke-miterlimit="10" d="M 320 812 C 322.210938 812 324 813.789062 324 816 " transform="matrix(1, 0, 0, -1, -55, 841)"/>
<path fill="none" stroke-width="0.4" stroke-linecap="butt" stroke-linejoin="round" stroke="rgb(0%, 0%, 0%)" stroke-opacity="1" stroke-miterlimit="10" d="M 324 816 L 324 820 L 316 820 L 316 812 L 320 812 " transform="matrix(1, 0, 0, -1, -55, 841)"/>
<path fill-rule="evenodd" fill="rgb(0%, 100%, 0%)" fill-opacity="1" stroke-width="0.4" stroke-linecap="butt" stroke-linejoin="round" stroke="rgb(0%, 0%, 0%)" stroke-opacity="1" stroke-miterlimit="10" d="M 316 828 L 316 820 L 324 820 L 324 828 Z M 316 828 " transform="matrix(1, 0, 0, -1, -55, 841)"/>
<path fill-rule="evenodd" fill="rgb(100%, 0%, 0%)" fill-opacity="1" d="M 250.800781 17 C 250.800781 14.601562 247.199219 14.601562 247.199219 17 C 247.199219 19.398438 250.800781 19.398438 250.800781 17 Z M 250.800781 17 "/>
<path fill="none" stroke-width="0.4" stroke-linecap="butt" stroke-linejoin="round" stroke="rgb(0%, 0%, 0%)" stroke-opacity="1" stroke-miterlimit="10" d="M 196 824 C 189.371094 824 184 818.628906 184 812 " transform="matrix(1, 0, 0, -1, -55, 841)"/>
<path fill="none" stroke-width="0.4" stroke-linecap="butt" stroke-linejoin="round" stroke="rgb(0%, 0%, 0%)" stroke-opacity="1" stroke-miterlimit="10" d="M 300 824 L 196 824 " transform="matrix(1, 0, 0, -1, -55, 841)"/>
<path fill="none" stroke-width="0.4" stroke-linecap="butt" stroke-linejoin="round" stroke="rgb(0%, 0%, 0%)" stroke-opacity="1" stroke-miterlimit="10" d="M 184 812 L 184 804 " transform="matrix(1, 0, 0, -1, -55, 841)"/>
<path fill-rule="evenodd" fill="rgb(0%, 0%, 0%)" fill-opacity="1" stroke-width="0.4" stroke-linecap="butt" stroke-linejoin="round" stroke="rgb(0%, 0%, 0%)" stroke-opacity="1" stroke-miterlimit="10" d="M 184 804 L 186.332031 811 L 181.667969 811 Z M 184 804 " transform="matrix(1, 0, 0, -1, -55, 841)"/>
<path fill="none" stroke-width="0.4" stroke-linecap="butt" stroke-linejoin="round" stroke="rgb(0%, 0%, 0%)" stroke-opacity="1" stroke-miterlimit="10" d="M 120 780 C 120 786.628906 125.371094 792 132 792 " transform="matrix(1, 0, 0, -1, -55, 841)"/>
<path fill="none" stroke-width="0.4" stroke-linecap="butt" stroke-linejoin="round" stroke="rgb(0%, 0%, 0%)" stroke-opacity="1" stroke-miterlimit="10" d="M 172 792 L 132 792 " transform="matrix(1, 0, 0, -1, -55, 841)"/>
<path fill="none" stroke-width="0.4" stroke-linecap="butt" stroke-linejoin="round" stroke="rgb(0%, 0%, 0%)" stroke-opacity="1" stroke-miterlimit="10" d="M 120 780 L 120 772 " transform="matrix(1, 0, 0, -1, -55, 841)"/>
<path fill-rule="evenodd" fill="rgb(0%, 0%, 0%)" fill-opacity="1" stroke-width="0.4" stroke-linecap="butt" stroke-linejoin="round" stroke="rgb(0%, 0%, 0%)" stroke-opacity="1" stroke-miterlimit="10" d="M 120 772 L 122.332031 779 L 117.667969 779 Z M 120 772 " transform="matrix(1, 0, 0, -1, -55, 841)"/>
<path fill="none" stroke-width="0.8" stroke-linecap="butt" stroke-linejoin="round" stroke="rgb(100%, 0%, 0%)" stroke-opacity="1" stroke-miterlimit="10" d="M 176 800 L 176 792 " transform="matrix(1, 0, 0, -1, -55, 841)"/>
<path fill="none" stroke-width="0.8" stroke-linecap="butt" stroke-linejoin="round" stroke="rgb(100%, 0%, 0%)" stroke-opacity="1" stroke-miterlimit="10" d="M 112 768 L 120 768 " transform="matrix(1, 0, 0, -1, -55, 841)"/>
<path fill="none" stroke-width="0.4" stroke-linecap="butt" stroke-linejoin="round" stroke="rgb(100%, 100%, 100%)" stroke-opacity="1" stroke-miterlimit="10" d="M 56 668 L 56 840 L 552 840 L 552 668 Z M 56 668 " transform="matrix(1, 0, 0, -1, -55, 841)"/>
</svg>
