<?xml version="1.0" encoding="UTF-8"?>
<svg xmlns="http://www.w3.org/2000/svg" xmlns:xlink="http://www.w3.org/1999/xlink" width="498" height="174" viewBox="0 0 498 174">
<path fill="none" stroke-width="0.4" stroke-linecap="butt" stroke-linejoin="round" stroke="rgb(0%, 0%, 0%)" stroke-opacity="1" stroke-miterlimit="10" d="M 304 836 C 301.789062 836 300 834.210938 300 832 " transform="matrix(1, 0, 0, -1, -55, 841)"/>
<path fill="none" stroke-width="0.4" stroke-linecap="butt" stroke-linejoin="round" stroke="rgb(0%, 0%, 0%)" stroke-opacity="1" stroke-miterlimit="10" d="M 300 816 C 300 813.789062 301.789062 812 304 812 " transform="matrix(1, 0, 0, -1, -55, 841)"/>
<path fill="none" stroke-width="0.4" stroke-linecap="butt" stroke-linejoin="round" stroke="rgb(0%, 0%, 0%)" stroke-opacity="1" stroke-miterlimit="10" d="M 320 812 C 322.210938 812 324 813.789062 324 816 " transform="matrix(1, 0, 0, -1, -55, 841)"/>
<path fill="none" stroke-width="0.4" stroke-linecap="butt" stroke-linejoin="round" stroke="rgb(0%, 0%, 0%)" stroke-opacity="1" stroke-miterlimit="10" d="M 324 832 C 324 834.210938 322.210938 836 320 836 " transform="matrix(1, 0, 0, -1, -55, 841)"/>
<path fill="none" stroke-width="0.4" stroke-linecap="butt" stroke-linejoin="round" stroke="rgb(0%, 0%, 0%)" stroke-opacity="1" stroke-miterlimit="10" d="M 320 836 L 304 836 " transform="matrix(1, 0, 0, -1, -55, 841)"/>
<path fill="none" stroke-width="0.4" stroke-linecap="butt" stroke-linejoin="round" stroke="rgb(0%, 0%, 0%)" stroke-opacity="1" stroke-miterlimit="10" d="M 300 832 L 300 816 " transform="matrix(1, 0, 0, -1, -55, 841)"/>
<path fill="none" stroke-width="0.4" stroke-linecap="butt" stroke-linejoin="round" stroke="rgb(0%, 0%, 0%)" stroke-opacity="1" stroke-miterlimit="10" d="M 304 812 L 320 812 " transform="matrix(1, 0, 0, -1, -55, 841)"/>
<path fill="none" stroke-width="0.4" stroke-linecap="butt" stroke-linejoin="round" stroke="rgb(0%, 0%, 0%)" stroke-opacity="1" stroke-miterlimit="10" d="M 324 816 L 324 832 " transform="matrix(1, 0, 0, -1, -55, 841)"/>
<path fill="none" stroke-width="0.4" stroke-linecap="butt" stroke-linejoin="round" stroke="rgb(0%, 0%, 0%)" stroke-opacity="1" stroke-miterlimit="10" d="M 300 828 L 324 828 " transform="matrix(1, 0, 0, -1, -55, 841)"/>
<path fill="none" stroke-width="0.4" stroke-linecap="butt" stroke-linejoin="round" stroke="rgb(0%, 0%, 0%)" stroke-opacity="1" stroke-miterlimit="10" d="M 324 820 L 300 820 " transform="matrix(1, 0, 0, -1, -55, 841)"/>
<path fill="none" stroke-width="0.4" stroke-linecap="butt" stroke-linejoin="round" stroke="rgb(0%, 0%, 0%)" stroke-opacity="1" stroke-miterlimit="10" d="M 308 836 L 308 812 " transform="matrix(1, 0, 0, -1, -55, 841)"/>
<path fill="none" stroke-width="0.4" stroke-linecap="butt" stroke-linejoin="round" stroke="rgb(0%, 0%, 0%)" stroke-opacity="1" stroke-miterlimit="10" d="M 316 836 L 316 812 " transform="matrix(1, 0, 0, -1, -55, 841)"/>
<path fill-rule="evenodd" fill="rgb(0%, 0%, 0%)" fill-opacity="1" stroke-width="0.4" stroke-linecap="butt" stroke-linejoin="round" stroke="rgb(0%, 0%, 0%)" stroke-opacity="1" stroke-miterlimit="10" d="M 308 828 L 308 820 L 316 820 L 316 828 Z M 308 828 " transform="matrix(1, 0, 0, -1, -55, 841)"/>
<path fill-rule="evenodd" fill="rgb(0%, 100%, 0%)" fill-opacity="1" d="M 265 29 C 267.210938 29 269 27.210938 269 25 "/>
<path fill-rule="evenodd" fill="rgb(0%, 100%, 0%)" fill-opacity="1" d="M 261 21 L 261 29 L 265 29 L 269 25 L 269 21 Z M 261 21 "/>
<path fill="none" stroke-width="0.4" stroke-linecap="butt" stroke-linejoin="round" stroke="rgb(0%, 0%, 0%)" stroke-opacity="1" stroke-miterlimit="10" d="M 320 812 C 322.210938 812 324 813.789062 324 816 " transform="matrix(1, 0, 0, -1, -55, 841)"/>
<path fill="none" stroke-width="0.4" stroke-linecap="butt" stroke-linejoin="round" stroke="rgb(0%, 0%, 0%)" stroke-opacity="1" stroke-miterlimit="10" d="M 324 816 L 324 820 L 316 820 L 316 812 L 320 812 " transform="matrix(1, 0, 0, -1, -55, 841)"/>
<path fill-rule="evenodd" fill="rgb(0%, 100%, 0%)" fill-opacity="1" stroke-width="0.4" stroke-linecap="butt" stroke-linejoin="round" stroke="rgb(0%, 0%, 0%)" stroke-opacity="1" stroke-miterlimit="10" d="M 316 828 L 316 820 L 324 820 L 324 828 Z M 316 828 " transform="matrix(1, 0, 0, -1, -55, 841)"/>
<path fill-rule="evenodd" fill="rgb(100%, 0%, 0%)" fill-opacity="1" d="M 250.800781 17 C 250.800781 14.601562 247.199219 14.601562 247.199219 17 C 247.199219 19.398438 250.800781 19.398438 250.800781 17 Z M 250.800781 17 "/>
<path fill="none" stroke-width="0.4" stroke-linecap="butt" stroke-linejoin="round" stroke="rgb(100%, 100%, 100%)" stroke-opacity="1" stroke-miterlimit="10" d="M 56 668 L 56 840 L 552 840 L 552 668 Z M 56 668 " transform="matrix(1, 0, 0, -1, -55, 841)"/>
</svg>
