<?xml version="1.0" standalone="no"?>
<!DOCTYPE svg PUBLIC "-//W3C//DTD SVG 20010904//EN"
 "http://www.w3.org/TR/2001/REC-SVG-20010904/DTD/svg10.dtd">
<svg version="1.0" xmlns="http://www.w3.org/2000/svg"
 width="595.000000pt" height="842.000000pt" viewBox="0 0 595.000000 842.000000"
 preserveAspectRatio="xMidYMid meet">
<metadata>
Created by potrace 1.16, written by Peter Selinger 2001-2019
</metadata>
<g transform="translate(0.000000,842.000000) scale(0.100000,-0.100000)"
fill="#000000" stroke="none">
<path d="M2190 5090 l0 -690 1060 0 1060 0 0 690 0 690 -1060 0 -1060 0 0
-690z m2070 425 l0 -225 -190 0 -189 0 -3 -82 -3 -83 -102 -3 -103 -3 0 221 0
220 25 0 c25 0 25 1 25 90 l0 90 270 0 270 0 0 -225z m-1800 130 l0 -45 -70 0
-70 0 0 45 0 45 70 0 70 0 0 -45z m160 0 l0 -45 -70 0 -70 0 0 45 0 45 70 0
70 0 0 -45z m160 0 l0 -45 -70 0 -70 0 0 45 0 45 70 0 70 0 0 -45z m320 0 l0
-45 -70 0 -70 0 0 45 0 45 70 0 70 0 0 -45z m320 0 l0 -45 -70 0 -70 0 0 45 0
45 70 0 70 0 0 -45z m-320 -110 l0 -45 -70 0 -70 0 0 45 0 45 70 0 70 0 0 -45z
m0 -105 l0 -50 -70 0 -70 0 0 50 0 50 70 0 70 0 0 -50z m0 -235 l0 -45 -70 0
-70 0 0 45 0 45 70 0 70 0 0 -45z m1110 0 l0 -45 -65 0 -65 0 0 45 0 45 65 0
65 0 0 -45z m-236 -117 c-27 -27 -29 -28 -36 -8 -7 19 -16 20 -148 20 -87 0
-140 4 -140 10 0 6 54 10 141 10 132 0 141 1 146 20 5 20 6 20 35 -1 l29 -21
-27 -30z m-1514 17 l0 -45 -70 0 -70 0 0 45 0 45 70 0 70 0 0 -45z m160 0 l0
-45 -70 0 -70 0 0 45 0 45 70 0 70 0 0 -45z m160 0 l0 -45 -70 0 -70 0 0 45 0
45 70 0 70 0 0 -45z m320 0 l0 -45 -70 0 -70 0 0 45 0 45 70 0 70 0 0 -45z
m320 0 l0 -45 -70 0 -70 0 0 45 0 45 70 0 70 0 0 -45z m790 0 l0 -45 -65 0
-65 0 0 45 0 45 65 0 65 0 0 -45z m-330 -105 l0 -90 205 0 205 0 0 -240 0
-240 -293 0 -294 0 -6 167 c-4 91 -7 240 -7 330 l0 163 95 0 95 0 0 -90z
m-780 -10 l0 -50 -70 0 -70 0 0 50 0 50 70 0 70 0 0 -50z m1110 0 l0 -50 -65
0 -65 0 0 50 0 50 65 0 65 0 0 -50z m-1110 -225 l0 -45 -70 0 -70 0 0 45 0 45
70 0 70 0 0 -45z m0 -110 l0 -45 -70 0 -70 0 0 45 0 45 70 0 70 0 0 -45z
m-640 -110 l0 -45 -70 0 -70 0 0 45 0 45 70 0 70 0 0 -45z m160 0 l0 -45 -70
0 -70 0 0 45 0 45 70 0 70 0 0 -45z m160 0 l0 -45 -70 0 -70 0 0 45 0 45 70 0
70 0 0 -45z m320 0 l0 -45 -70 0 -70 0 0 45 0 45 70 0 70 0 0 -45z m320 0 l0
-45 -70 0 -70 0 0 45 0 45 70 0 70 0 0 -45z"/>
</g>
</svg>
