<?xml version="1.0" standalone="no"?>
<!DOCTYPE svg PUBLIC "-//W3C//DTD SVG 20010904//EN"
 "http://www.w3.org/TR/2001/REC-SVG-20010904/DTD/svg10.dtd">
<svg version="1.0" xmlns="http://www.w3.org/2000/svg"
 width="287.000000pt" height="307.000000pt" viewBox="0 0 287.000000 307.000000"
 preserveAspectRatio="xMidYMid meet">
<metadata>
Created by potrace 1.16, written by Peter Selinger 2001-2019
</metadata>
<g transform="translate(0.000000,307.000000) scale(0.100000,-0.100000)"
fill="#000000" stroke="none">
<path d="M10 2586 c0 -389 2 -465 14 -469 18 -7 26 1 26 25 0 15 6 17 30 13
17 -3 30 -1 30 4 0 11 -25 21 -51 21 -11 0 -17 5 -14 10 3 6 -2 10 -12 10 -11
0 -5 7 16 17 34 17 34 17 10 24 -21 5 -22 7 -7 14 10 4 16 11 13 15 -3 4 9 10
25 14 20 3 30 11 30 23 0 12 -3 14 -8 6 -10 -16 -47 -10 -47 8 0 9 9 13 24 11
19 -2 22 0 12 12 -10 12 -8 14 11 9 18 -4 20 -2 8 6 -23 16 14 50 51 46 16 -2
29 0 29 5 0 6 -7 10 -15 10 -19 0 -19 7 -1 26 16 16 40 19 31 4 -4 -6 1 -7 11
-3 11 4 13 8 6 11 -28 9 -8 19 40 18 42 0 54 4 66 22 8 12 21 22 29 22 8 0 11
5 7 12 -4 7 -3 8 4 4 6 -3 31 -1 56 5 35 9 46 16 46 31 0 10 6 31 14 46 7 15
16 40 20 56 6 26 5 28 -17 22 -18 -4 -27 -1 -32 12 -6 17 -48 222 -60 300 -4
27 -12 42 -22 42 -11 0 -14 -9 -11 -37 3 -36 2 -38 -30 -41 -33 -3 -35 -1 -46
51 -5 20 -12 27 -31 27 -26 0 -34 -14 -12 -24 6 -3 1 -4 -13 -3 -14 1 -24 8
-23 15 2 9 -24 12 -102 12 l-105 0 0 -464z m194 410 c-3 -9 -10 -16 -15 -16
-5 0 -4 9 3 20 14 22 21 20 12 -4z m56 -1 c10 -13 9 -15 -8 -15 -22 0 -36 13
-25 24 10 10 20 7 33 -9z m-40 -35 c0 -5 -2 -10 -4 -10 -3 0 -8 5 -11 10 -3 6
-1 10 4 10 6 0 11 -4 11 -10z m171 -52 c6 -24 13 -63 15 -88 2 -25 7 -57 10
-72 4 -16 2 -28 -4 -28 -5 0 -12 15 -16 33 -4 17 -10 28 -14 22 -4 -5 -15 -11
-24 -13 -15 -2 -18 4 -16 38 1 29 6 40 17 40 10 0 7 5 -8 13 -33 16 -47 67
-24 85 32 24 52 15 64 -30z m-126 12 c3 -6 -4 -10 -17 -10 -18 0 -20 2 -8 10
19 12 18 12 25 0z m2 -36 c-3 -3 -12 -4 -19 -1 -8 3 -5 6 6 6 11 1 17 -2 13
-5z m192 -310 c-6 -7 -17 -10 -25 -7 -19 7 -8 22 16 20 14 -1 16 -5 9 -13z"/>
<path d="M475 3025 c2 -16 12 -77 20 -135 21 -135 25 -154 31 -147 8 7 -34
266 -47 292 -7 16 -8 14 -4 -10z"/>
<path d="M722 3025 c0 -16 2 -22 5 -12 2 9 2 23 0 30 -3 6 -5 -1 -5 -18z"/>
<path d="M961 3020 c0 -19 4 -53 8 -75 8 -39 9 -38 10 20 0 33 -4 67 -9 75 -7
11 -10 6 -9 -20z"/>
<path d="M1010 3031 c0 -35 12 -81 22 -81 6 0 7 13 2 33 -4 17 -8 40 -8 50 0
23 -16 22 -16 -2z"/>
<path d="M1330 3039 c0 -5 5 -7 10 -4 6 3 10 0 10 -7 0 -9 3 -9 10 2 6 10 10
11 10 3 0 -7 5 -13 10 -13 6 0 10 7 10 15 0 10 -10 15 -30 15 -16 0 -30 -5
-30 -11z"/>
<path d="M1400 3026 c0 -29 22 -49 44 -40 19 7 19 9 5 36 -9 16 -8 19 2 13 8
-5 10 -4 5 3 -4 7 -18 12 -32 12 -19 0 -24 -5 -24 -24z"/>
<path d="M1472 3018 c2 -25 8 -33 23 -33 21 0 31 25 20 53 -5 14 -7 14 -15 2
-7 -10 -10 -11 -10 -2 0 6 -5 12 -11 12 -6 0 -9 -14 -7 -32z"/>
<path d="M1540 3019 c10 -36 20 -49 20 -29 0 10 4 8 13 -4 12 -16 13 -16 14 6
2 25 -23 58 -43 58 -9 0 -10 -8 -4 -31z"/>
<path d="M1609 3048 c-1 -2 -3 -15 -5 -30 -3 -30 10 -38 20 -13 3 8 9 14 13
13 8 -3 13 5 13 22 0 8 -38 15 -41 8z"/>
<path d="M1670 3028 c0 -21 11 -23 28 -6 18 18 15 27 -8 25 -12 -1 -20 -8 -20
-19z"/>
<path d="M1820 3035 c0 -9 -4 -13 -10 -10 -5 3 -10 -3 -10 -14 0 -13 5 -19 14
-15 17 7 28 42 15 50 -5 3 -9 -2 -9 -11z"/>
<path d="M1868 3043 c6 -2 18 -2 25 0 6 3 1 5 -13 5 -14 0 -19 -2 -12 -5z"/>
<path d="M2065 3040 c-3 -5 -1 -10 4 -10 6 0 11 5 11 10 0 6 -2 10 -4 10 -3 0
-8 -4 -11 -10z"/>
<path d="M2270 3040 c19 -13 30 -13 30 0 0 6 -10 10 -22 10 -19 0 -20 -2 -8
-10z"/>
<path d="M2310 3040 c0 -5 5 -10 10 -10 6 0 10 5 10 10 0 6 -4 10 -10 10 -5 0
-10 -4 -10 -10z"/>
<path d="M2381 3018 c2 -30 2 -30 6 -6 2 15 12 29 21 31 12 3 10 5 -5 6 -20 1
-23 -4 -22 -31z"/>
<path d="M562 3015 c0 -16 2 -22 5 -12 2 9 2 23 0 30 -3 6 -5 -1 -5 -18z"/>
<path d="M1757 3029 c-9 -6 -15 -14 -12 -20 4 -5 13 -2 22 6 19 20 14 27 -10
14z"/>
<path d="M2150 3029 c0 -5 5 -7 10 -4 6 3 10 8 10 11 0 2 -4 4 -10 4 -5 0 -10
-5 -10 -11z"/>
<path d="M647 2985 c3 -27 7 -52 9 -54 7 -8 2 54 -6 79 -6 17 -7 9 -3 -25z"/>
<path d="M1945 3020 c-3 -5 -1 -10 4 -10 6 0 11 5 11 10 0 6 -2 10 -4 10 -3 0
-8 -4 -11 -10z"/>
<path d="M1765 2990 c-3 -5 -1 -10 4 -10 6 0 11 5 11 10 0 6 -2 10 -4 10 -3 0
-8 -4 -11 -10z"/>
<path d="M732 2970 c0 -14 2 -19 5 -12 2 6 2 18 0 25 -3 6 -5 1 -5 -13z"/>
<path d="M592 2815 c0 -16 2 -22 5 -12 2 9 2 23 0 30 -3 6 -5 -1 -5 -18z"/>
<path d="M672 2820 c0 -14 2 -19 5 -12 2 6 2 18 0 25 -3 6 -5 1 -5 -13z"/>
<path d="M2050 2805 c0 -14 4 -25 9 -25 5 0 9 11 9 25 0 14 -4 25 -9 25 -5 0
-9 -11 -9 -25z"/>
<path d="M1870 2790 c0 -15 7 -20 28 -20 34 0 43 7 35 26 -3 8 -18 14 -34 14
-22 0 -29 -5 -29 -20z"/>
<path d="M805 2790 c-4 -6 -16 -8 -28 -5 -17 5 -19 4 -7 -4 22 -16 50 -13 50
4 0 17 -6 19 -15 5z"/>
<path d="M1366 2735 c-16 -12 -17 -15 -4 -15 8 0 21 7 28 15 16 19 1 19 -24 0z"/>
<path d="M2040 2731 c0 -5 6 -12 13 -15 10 -5 10 -7 0 -12 -7 -3 -12 -20 -12
-37 1 -18 3 -24 6 -14 2 9 8 17 13 17 15 0 17 59 2 65 -19 7 -22 6 -22 -4z"/>
<path d="M1945 2720 c-3 -5 -1 -10 4 -10 6 0 11 5 11 10 0 6 -2 10 -4 10 -3 0
-8 -4 -11 -10z"/>
<path d="M480 2709 c0 -5 5 -7 10 -4 6 3 10 8 10 11 0 2 -4 4 -10 4 -5 0 -10
-5 -10 -11z"/>
<path d="M549 2699 c-9 -28 -5 -56 7 -56 17 0 18 9 2 26 -11 10 -7 11 17 7 17
-4 23 -3 15 0 -8 4 -21 11 -27 17 -7 5 -14 8 -14 6z"/>
<path d="M1325 2680 c10 -11 25 -20 34 -20 12 1 10 5 -8 20 -30 26 -49 26 -26
0z"/>
<path d="M1438 2633 c6 -2 18 -2 25 0 6 3 1 5 -13 5 -14 0 -19 -2 -12 -5z"/>
<path d="M1510 2620 c14 -4 34 -8 45 -8 16 0 15 2 -5 8 -14 4 -34 8 -45 8 -16
0 -15 -2 5 -8z"/>
<path d="M2035 2610 c-3 -5 1 -10 10 -10 9 0 13 5 10 10 -3 6 -8 10 -10 10 -2
0 -7 -4 -10 -10z"/>
<path d="M1588 2603 c6 -2 18 -2 25 0 6 3 1 5 -13 5 -14 0 -19 -2 -12 -5z"/>
<path d="M360 2490 c8 -5 20 -10 25 -10 6 0 3 5 -5 10 -8 5 -19 10 -25 10 -5
0 -3 -5 5 -10z"/>
<path d="M776 2461 c-29 -12 -36 -19 -24 -23 8 -4 16 -17 17 -30 3 -56 8 -75
26 -110 17 -35 44 -55 32 -25 -2 6 -15 44 -27 84 -20 60 -21 74 -11 87 8 9 20
16 27 16 8 0 14 5 14 10 0 13 -7 12 -54 -9z"/>
<path d="M215 2380 c-14 -43 -13 -204 0 -237 12 -28 12 -35 -1 -47 -21 -21
-17 -32 5 -12 17 15 19 15 25 1 9 -23 8 -25 -9 -25 -13 0 -14 -2 -3 -14 7 -8
16 -12 20 -10 3 2 22 -5 41 -16 19 -11 42 -18 51 -14 9 4 18 0 22 -9 3 -9 12
-13 21 -10 9 4 28 -8 49 -31 24 -27 42 -36 66 -37 63 -2 93 3 111 18 9 9 17
12 18 7 0 -5 4 1 9 14 11 26 47 42 98 42 20 0 42 4 48 8 13 8 15 42 2 42 -4 0
-8 7 -8 16 0 14 -3 14 -15 4 -8 -7 -16 -9 -16 -4 -1 5 -2 14 -4 19 -1 6 -3 16
-3 23 -1 7 -7 10 -12 7 -6 -4 -8 -11 -5 -16 4 -5 -1 -9 -9 -9 -9 0 -13 6 -10
14 3 7 -2 16 -12 20 -12 4 -15 2 -10 -9 3 -8 1 -15 -4 -15 -6 0 -10 -10 -10
-22 0 -17 -3 -19 -12 -10 -19 19 -27 14 -30 -20 -2 -18 -7 -31 -13 -28 -5 3
-9 8 -7 13 1 4 -2 7 -8 7 -5 0 -7 6 -4 14 6 15 -23 49 -36 41 -4 -3 -22 0 -39
6 -24 9 -35 8 -48 -2 -15 -13 -15 -12 -3 11 7 14 19 29 26 33 19 11 18 31 -1
23 -8 -3 -15 -2 -15 3 0 13 -46 30 -68 25 -11 -4 -21 0 -25 9 -4 10 -14 13
-31 10 -21 -4 -25 -2 -20 11 6 15 -6 25 -38 30 -8 1 -27 13 -42 28 -26 23 -28
31 -24 72 6 46 -5 63 -17 26z m75 -278 c0 -15 -2 -15 -10 -2 -13 20 -13 33 0
25 6 -3 10 -14 10 -23z m145 -22 c3 -5 2 -10 -4 -10 -5 0 -13 5 -16 10 -3 6
-2 10 4 10 5 0 13 -4 16 -10z m45 -65 c29 -25 65 -48 81 -52 46 -9 26 -18 -33
-15 -66 4 -94 25 -101 75 -3 20 -4 37 -2 37 3 0 27 -20 55 -45z"/>
<path d="M673 2370 c-23 -9 -32 -30 -13 -30 6 0 10 -13 10 -30 0 -23 -4 -28
-16 -23 -13 5 -15 -2 -13 -39 2 -24 -1 -50 -6 -58 -6 -10 -4 -12 9 -7 10 4 21
7 26 7 5 0 10 9 12 20 4 30 21 29 36 -2 13 -28 28 -33 70 -22 32 9 31 65 -2
91 -13 10 -26 29 -30 41 -4 12 -11 22 -16 22 -4 0 -10 9 -13 20 -6 22 -19 24
-54 10z"/>
<path d="M477 2253 c-16 -16 -16 -18 4 -29 18 -9 26 -8 40 5 11 8 19 22 19 31
-1 12 -3 12 -14 -2 -16 -22 -24 -23 -28 -3 -3 14 -5 14 -21 -2z"/>
<path d="M401 2246 c-9 -11 -8 -15 4 -20 17 -6 49 17 38 28 -11 10 -30 7 -42
-8z"/>
<path d="M95 2230 c-3 -5 -1 -10 4 -10 6 0 11 5 11 10 0 6 -2 10 -4 10 -3 0
-8 -4 -11 -10z"/>
<path d="M465 2210 c3 -5 8 -10 11 -10 2 0 4 5 4 10 0 6 -5 10 -11 10 -5 0 -7
-4 -4 -10z"/>
<path d="M814 2161 c-5 -5 -18 -11 -29 -14 l-20 -5 20 -1 c22 -1 52 15 44 23
-3 3 -10 2 -15 -3z"/>
<path d="M120 2149 c0 -5 5 -7 10 -4 6 3 10 8 10 11 0 2 -4 4 -10 4 -5 0 -10
-5 -10 -11z"/>
<path d="M11 2083 c-1 -37 6 -40 35 -18 16 12 16 14 2 9 -13 -4 -21 1 -27 17
-9 23 -10 22 -10 -8z"/>
<path d="M1340 1952 c0 -4 -14 -16 -31 -26 -28 -17 -31 -17 -49 -1 -17 15 -20
15 -44 -1 -25 -16 -26 -18 -10 -35 10 -11 27 -19 39 -19 24 0 69 -44 79 -76 4
-12 15 -29 26 -39 19 -18 20 -17 20 7 0 21 7 28 45 40 31 11 47 12 55 4 16
-16 12 -34 -11 -41 -26 -8 -20 -28 11 -35 13 -3 25 -12 28 -20 2 -10 1 -11 -5
-3 -6 8 -15 6 -32 -8 -20 -16 -21 -20 -7 -25 18 -7 66 20 66 37 0 6 3 8 8 6 4
-3 8 13 9 34 2 22 -2 39 -8 39 -6 0 -8 4 -4 10 3 5 -7 15 -22 23 -26 14 -27
15 -6 28 12 7 19 19 15 27 -4 11 -1 13 8 7 7 -4 11 -4 8 1 -26 56 -32 63 -60
62 -19 -1 -27 -5 -24 -14 2 -6 -4 -14 -14 -17 -10 -3 -21 1 -24 8 -3 8 -15 12
-28 9 -13 -2 -17 -2 -10 2 19 9 14 24 -8 24 -11 0 -20 -4 -20 -8z m127 -73
c-8 -14 -14 -15 -24 -7 -11 9 -10 14 4 30 20 23 37 4 20 -23z"/>
<path d="M1290 1939 c0 -5 5 -7 10 -4 6 3 10 8 10 11 0 2 -4 4 -10 4 -5 0 -10
-5 -10 -11z"/>
<path d="M30 1929 c0 -5 5 -7 10 -4 6 3 10 8 10 11 0 2 -4 4 -10 4 -5 0 -10
-5 -10 -11z"/>
<path d="M1075 1930 c-3 -5 1 -10 9 -10 9 0 16 5 16 10 0 6 -4 10 -9 10 -6 0
-13 -4 -16 -10z"/>
<path d="M670 1910 c0 -17 7 -20 49 -20 28 0 53 5 56 10 4 6 -6 10 -24 10 -16
0 -41 4 -55 10 -23 8 -26 7 -26 -10z"/>
<path d="M878 1906 c-15 -11 -16 -17 -5 -39 17 -37 22 -34 24 13 2 22 2 40 0
40 -1 0 -10 -7 -19 -14z"/>
<path d="M38 1886 c-19 -14 -23 -26 -10 -26 4 0 13 9 20 20 14 23 13 24 -10 6z"/>
<path d="M962 1850 c-47 -11 -91 -58 -92 -96 0 -47 19 -66 73 -69 38 -2 52 -9
80 -39 19 -20 30 -36 26 -36 -5 0 -9 -5 -9 -11 0 -6 7 -8 15 -5 9 3 25 0 37
-7 16 -9 22 -9 25 1 6 17 30 15 37 -4 3 -8 2 -12 -4 -9 -6 3 -10 1 -10 -5 0
-6 -4 -9 -9 -6 -5 3 -12 -1 -15 -10 -8 -21 -7 -31 2 -18 4 6 21 14 38 18 23 5
39 1 68 -19 20 -14 41 -25 46 -25 4 0 7 -12 5 -26 -2 -17 2 -24 11 -20 8 3 11
0 7 -10 -3 -9 1 -14 12 -14 9 0 13 5 9 11 -4 8 1 9 17 4 22 -7 22 -7 6 9 -23
24 -21 38 6 36 34 -3 60 9 85 41 29 35 26 36 -18 4 -41 -30 -71 -31 -128 -5
-45 20 -62 44 -43 63 14 14 36 -5 36 -31 0 -13 10 -18 44 -20 25 -2 48 2 55 9
8 9 7 10 -8 5 -10 -3 -25 -1 -32 5 -11 9 -11 16 2 41 8 16 24 38 35 49 21 21
25 44 9 54 -5 3 -10 -1 -10 -9 0 -9 -4 -16 -10 -16 -5 0 -10 -8 -10 -17 -1
-17 -1 -17 -14 -1 -7 10 -16 14 -20 10 -4 -4 -14 1 -21 12 -8 10 -18 15 -24
11 -6 -3 -21 1 -33 9 l-22 16 22 0 c13 0 20 4 17 10 -3 6 -14 10 -24 10 -14 0
-16 7 -13 38 2 26 0 33 -6 23 -6 -8 -10 -28 -10 -46 0 -40 -18 -75 -38 -75 -8
0 -12 -4 -9 -10 3 -5 -1 -10 -9 -10 -9 0 -16 4 -16 9 0 5 -2 16 -5 23 -3 8 2
23 12 33 21 23 25 85 6 85 -7 0 -13 6 -13 13 0 7 -3 8 -8 2 -11 -15 -37 -12
-56 7 -14 14 -21 15 -36 6 -14 -9 -16 -15 -8 -25 6 -8 8 -16 4 -20 -9 -9 -36
29 -31 45 2 6 3 12 2 11 -1 -1 -17 -5 -35 -9z m30 -107 c-24 -20 -33 -15 -26
12 4 17 2 25 -6 25 -9 0 -7 7 6 21 l18 20 12 -33 c10 -28 9 -35 -4 -45z m118
42 c0 -8 -2 -15 -4 -15 -2 0 -6 7 -10 15 -3 8 -1 15 4 15 6 0 10 -7 10 -15z
m-196 -76 c-8 -13 -21 -11 -27 5 -4 10 0 12 14 9 10 -3 16 -9 13 -14z m183
-106 c-3 -3 -11 -2 -17 2 -8 5 -7 11 2 22 12 15 13 14 16 -1 2 -10 1 -20 -1
-23z"/>
<path d="M10 1752 c0 -29 4 -52 10 -52 5 0 7 6 4 14 -3 7 2 16 10 19 9 4 16
12 16 19 0 9 -3 8 -10 -2 -5 -8 -10 -13 -11 -10 -13 74 -19 78 -19 12z"/>
<path d="M1305 1710 c3 -5 8 -10 11 -10 2 0 4 5 4 10 0 6 -5 10 -11 10 -5 0
-7 -4 -4 -10z"/>
<path d="M880 1629 c0 -5 5 -7 10 -4 6 3 10 8 10 11 0 2 -4 4 -10 4 -5 0 -10
-5 -10 -11z"/>
<path d="M1948 1627 c19 -23 10 -57 -15 -57 -13 0 -23 -4 -23 -10 0 -19 -15
-10 -31 19 -14 24 -22 28 -44 23 -20 -3 -26 -1 -21 7 4 6 2 11 -4 11 -23 0 21
-99 54 -122 13 -9 -35 -28 -49 -20 -5 4 -17 7 -25 7 -19 0 -40 44 -35 73 3 16
-3 26 -24 37 -28 14 -29 14 -34 -15 -5 -22 -10 -27 -25 -23 -11 2 -23 -1 -27
-8 -5 -8 -4 -10 3 -5 7 4 12 3 12 -2 0 -5 -20 -17 -45 -27 -47 -17 -80 -60
-70 -87 5 -12 18 -10 73 7 74 24 172 24 172 0 0 -16 -25 -26 -44 -19 -9 4 -18
-6 -25 -29 -9 -26 -16 -34 -30 -30 -10 3 -37 -5 -59 -16 -25 -13 -43 -17 -47
-11 -8 14 -35 13 -35 -1 0 -17 32 -38 57 -39 12 0 24 -4 27 -9 4 -5 19 -3 36
5 16 9 34 13 40 9 5 -3 14 5 19 18 8 20 15 23 40 19 26 -4 38 2 67 32 19 20
39 36 44 36 6 0 10 5 10 11 0 8 -4 8 -14 0 -18 -15 -37 8 -29 37 4 16 13 22
35 22 16 0 27 -4 24 -8 -3 -5 2 -18 10 -30 l15 -22 33 33 c33 32 52 82 35 93
-5 3 -9 0 -9 -6 0 -6 -8 -4 -17 5 -14 14 -14 20 -4 37 10 17 10 25 0 44 -7 13
-17 24 -22 24 -5 0 -5 -6 1 -13z m-71 -109 c-3 -7 -5 -2 -5 12 0 14 2 19 5 13
2 -7 2 -19 0 -25z m-170 2 c17 -25 -11 -58 -33 -39 -8 6 -11 16 -7 23 4 6 8
14 9 19 3 15 4 17 12 17 4 0 13 -9 19 -20z m245 -49 c-4 -11 -7 -9 -13 7 -6
15 -13 20 -25 15 -14 -5 -15 -3 -5 16 l12 22 18 -23 c10 -12 16 -29 13 -37z
m-332 19 c-19 -13 -30 -13 -30 0 0 6 10 10 23 10 18 0 19 -2 7 -10z m235 -90
c3 -5 1 -10 -4 -10 -6 0 -11 5 -11 10 0 6 2 10 4 10 3 0 8 -4 11 -10z"/>
<path d="M2010 1591 c0 -5 7 -11 15 -15 8 -3 15 -1 15 3 0 5 -7 11 -15 15 -8
3 -15 1 -15 -3z"/>
<path d="M930 1559 c0 -5 5 -7 10 -4 6 3 10 8 10 11 0 2 -4 4 -10 4 -5 0 -10
-5 -10 -11z"/>
<path d="M1180 1524 c0 -11 43 -45 48 -38 4 3 1 9 -6 11 -6 3 -10 8 -7 13 3 4
-4 10 -15 13 -11 3 -20 3 -20 1z"/>
<path d="M1805 1510 c3 -5 10 -10 16 -10 5 0 9 5 9 10 0 6 -7 10 -16 10 -8 0
-12 -4 -9 -10z"/>
<path d="M1115 1500 c-3 -5 -1 -10 4 -10 6 0 11 5 11 10 0 6 -2 10 -4 10 -3 0
-8 -4 -11 -10z"/>
<path d="M666 1414 c-31 -42 -56 -80 -56 -85 0 -4 10 -15 22 -23 21 -15 23
-14 41 14 l18 29 39 -20 c43 -22 70 -16 90 21 22 41 12 67 -39 104 -27 20 -51
36 -54 36 -3 0 -31 -34 -61 -76z m101 -10 c8 -20 -13 -42 -27 -28 -12 12 -3
44 11 44 5 0 12 -7 16 -16z"/>
<path d="M17 1463 c-4 -3 -7 -24 -7 -45 0 -36 1 -37 18 -20 12 11 14 20 8 25
-8 5 -7 10 2 15 10 7 10 11 -1 20 -8 7 -17 9 -20 5z"/>
<path d="M75 1460 c3 -5 12 -7 20 -3 21 7 19 13 -6 13 -11 0 -18 -4 -14 -10z"/>
<path d="M1750 1430 c0 -5 5 -10 10 -10 6 0 10 5 10 10 0 6 -4 10 -10 10 -5 0
-10 -4 -10 -10z"/>
<path d="M1190 1420 c0 -5 9 -10 20 -10 11 0 20 5 20 10 0 6 -9 10 -20 10 -11
0 -20 -4 -20 -10z"/>
<path d="M65 1410 c-3 -5 1 -10 10 -10 9 0 13 5 10 10 -3 6 -8 10 -10 10 -2 0
-7 -4 -10 -10z"/>
<path d="M1390 1410 c0 -5 5 -10 11 -10 5 0 7 5 4 10 -3 6 -8 10 -11 10 -2 0
-4 -4 -4 -10z"/>
<path d="M60 1379 c0 -5 5 -7 10 -4 6 3 10 8 10 11 0 2 -4 4 -10 4 -5 0 -10
-5 -10 -11z"/>
<path d="M1882 1355 c-21 -22 -38 -32 -49 -28 -11 4 -14 2 -11 -8 3 -8 10 -14
16 -14 14 0 82 63 82 76 0 13 -1 12 -38 -26z"/>
<path d="M10 1354 c0 -9 5 -14 12 -12 18 6 21 28 4 28 -9 0 -16 -7 -16 -16z"/>
<path d="M799 1274 l-42 -57 24 -18 c24 -18 24 -18 55 18 22 26 36 35 48 30
10 -4 26 -2 37 4 16 8 18 13 8 25 -6 8 -21 14 -32 14 -11 0 -17 3 -14 7 7 6
-21 32 -35 33 -4 0 -26 -25 -49 -56z"/>
<path d="M10 1310 c0 -5 4 -10 9 -10 6 0 13 5 16 10 3 6 -1 10 -9 10 -9 0 -16
-4 -16 -10z"/>
<path d="M2005 1284 c-19 -29 -19 -29 13 -38 12 -4 22 -3 22 3 0 5 7 17 16 25
14 15 14 16 0 16 -9 0 -16 5 -16 10 0 18 -17 10 -35 -16z"/>
<path d="M2136 1294 c-9 -8 -16 -20 -16 -25 0 -6 -14 -15 -31 -21 -28 -10 -29
-11 -14 -29 17 -18 13 -39 -7 -39 -7 0 -22 -9 -34 -21 -18 -17 -26 -19 -42
-10 -26 14 -82 14 -82 1 0 -15 -16 -12 -34 6 -15 14 -16 14 -16 -1 0 -9 13
-24 30 -33 16 -9 30 -23 30 -29 0 -7 4 -13 9 -13 5 0 11 -9 14 -20 3 -13 10
-18 21 -14 9 3 16 1 16 -5 0 -6 7 -8 15 -6 49 16 48 15 35 30 -10 12 -9 15 9
15 13 0 22 7 23 18 0 9 2 23 2 31 1 8 12 18 26 23 20 7 22 11 10 18 -12 8 -12
10 4 10 15 0 16 2 6 15 -19 22 3 44 25 25 9 -8 15 -8 15 -2 0 6 -4 14 -10 17
-17 11 -11 42 10 48 11 3 20 10 20 16 0 16 -16 14 -34 -5z m-100 -201 c-10
-10 -19 5 -10 18 6 11 8 11 12 0 2 -7 1 -15 -2 -18z"/>
<path d="M1762 1255 c-26 -24 -44 -45 -40 -45 4 0 28 20 55 45 26 24 44 45 40
45 -5 0 -29 -20 -55 -45z"/>
<path d="M10 1279 c0 -5 4 -8 9 -4 6 3 15 -3 21 -14 11 -21 -2 -37 -20 -26 -6
4 -10 -6 -10 -22 1 -24 2 -25 11 -10 5 9 17 17 24 17 18 0 19 9 5 44 -9 25
-40 37 -40 15z"/>
<path d="M927 1233 c-11 -10 24 -43 45 -43 10 0 18 -5 18 -11 0 -7 -7 -8 -17
-4 -70 29 -73 30 -89 13 -32 -32 6 -89 53 -80 7 2 10 -3 7 -12 -3 -9 3 -19 16
-26 18 -10 24 -8 36 7 39 51 55 84 49 104 -12 37 -96 74 -118 52z m35 -95 c-9
-9 -15 -9 -24 0 -9 9 -7 12 12 12 19 0 21 -3 12 -12z"/>
<path d="M30 1200 c0 -5 4 -10 9 -10 6 0 13 5 16 10 3 6 -1 10 -9 10 -9 0 -16
-4 -16 -10z"/>
<path d="M1490 1200 c-9 -6 -10 -10 -3 -10 6 0 15 5 18 10 8 12 4 12 -15 0z"/>
<path d="M1653 1193 c-15 -5 -17 -23 -4 -23 5 0 11 7 15 15 3 8 4 15 3 14 -1
0 -8 -3 -14 -6z"/>
<path d="M11 592 l-1 -593 977 2 c590 1 983 5 990 11 7 6 19 5 32 -1 13 -7
159 -11 436 -11 l415 0 -1 208 c-1 130 -4 196 -10 178 -4 -16 -6 -33 -3 -38 3
-4 -2 -5 -10 -2 -9 3 -16 10 -16 16 0 5 -4 7 -10 3 -14 -9 -1 -32 21 -38 10
-3 19 -13 19 -24 -1 -17 -1 -17 -11 0 -7 11 -15 15 -22 10 -7 -5 -26 -9 -43
-8 -24 1 -31 -2 -26 -13 4 -12 1 -12 -19 -1 -27 14 -89 19 -89 7 0 -8 13 -10
56 -11 16 0 20 -5 16 -20 -4 -17 -6 -18 -14 -3 -8 14 -12 15 -26 4 -12 -10
-14 -10 -8 0 4 6 2 12 -3 12 -6 0 -11 -6 -11 -12 0 -9 -3 -9 -8 -2 -4 6 -15
13 -25 17 -13 5 -20 0 -27 -18 -5 -14 -12 -25 -14 -25 -3 0 -3 6 -1 13 7 17
-11 41 -24 32 -9 -5 -9 -10 0 -21 9 -11 8 -14 -7 -14 -16 -1 -15 -3 6 -15 25
-14 25 -14 2 -15 -19 0 -21 -3 -12 -19 8 -17 7 -20 -9 -18 -11 0 -18 4 -15 8
2 4 0 10 -6 14 -5 3 -10 2 -10 -4 0 -7 -8 -7 -24 -1 -30 11 -38 3 -25 -24 l10
-21 -18 21 -19 21 -18 -24 c-13 -17 -21 -21 -30 -14 -9 7 -16 7 -24 -1 -9 -9
-12 -8 -12 5 0 19 -18 22 -40 6 -13 -9 -12 -10 2 -5 11 3 22 -2 29 -15 10 -19
9 -20 -10 -9 -12 6 -26 8 -31 5 -5 -3 -11 -1 -15 5 -8 14 -45 13 -45 -1 0 -6
7 -9 15 -5 8 3 15 1 15 -4 0 -6 8 -11 18 -11 9 -1 4 -4 -13 -8 -16 -4 -29 -12
-27 -19 3 -15 -4 -15 -29 -1 -20 10 -20 11 -3 30 17 19 27 79 13 79 -13 0 -18
-29 -6 -34 7 -2 2 -5 -10 -5 -13 -1 -23 4 -23 9 0 6 -6 6 -13 -2 -19 -17 4
-41 30 -31 16 6 16 5 4 -10 -7 -9 -22 -15 -35 -13 -11 3 -27 5 -33 5 -7 1 -13
12 -13 25 0 18 6 26 23 28 15 3 11 5 -15 9 -30 4 -35 2 -26 -8 8 -10 7 -12 -6
-7 -22 9 -20 -9 4 -31 15 -14 17 -21 8 -26 -22 -14 36 -33 61 -20 17 10 20 9
15 -4 -4 -10 0 -15 12 -15 16 0 17 -2 4 -10 -19 -12 -33 -13 -25 -1 3 5 1 12
-5 16 -6 3 -13 -1 -17 -11 -5 -14 -8 -15 -17 -2 -15 19 -41 28 -52 18 -5 -5
-18 -2 -28 6 -11 8 -16 15 -10 15 5 1 16 2 24 3 8 0 16 10 18 20 4 18 2 18
-29 -2 -19 -12 -33 -27 -31 -33 2 -7 -4 -9 -14 -5 -14 5 -15 4 -4 -9 10 -12
10 -15 -4 -15 -9 0 -16 4 -16 9 0 5 -9 11 -20 14 -13 3 -21 -1 -25 -14 -4 -11
-16 -19 -28 -19 -18 0 -19 -2 -7 -10 12 -8 11 -10 -7 -10 -19 0 -23 6 -23 30
0 25 -4 30 -25 30 -14 0 -25 5 -25 10 0 6 10 10 23 10 22 1 22 1 -3 15 -14 8
-19 14 -12 15 10 0 10 5 2 20 -6 11 -8 24 -6 29 3 5 -1 12 -10 15 -8 3 -12 11
-8 17 4 7 3 9 -3 6 -16 -10 -45 -76 -38 -87 3 -6 -1 -7 -9 -4 -9 3 -16 2 -16
-3 0 -21 -62 -36 -220 -54 -91 -10 -182 -19 -203 -19 -52 0 -102 25 -127 63
-11 18 -32 48 -45 67 -14 19 -25 43 -23 55 2 13 -5 24 -21 33 -33 17 -43 15
-36 -8 5 -14 2 -20 -10 -20 -12 0 -15 5 -9 22 6 20 5 21 -10 9 -13 -11 -16
-11 -16 1 0 8 -12 15 -31 16 -22 2 -28 -1 -23 -10 4 -7 -1 -5 -12 4 -19 17
-21 16 -45 -6 -19 -17 -30 -21 -47 -15 -17 7 -22 5 -22 -9 -1 -23 -37 -65 -50
-57 -5 3 -10 -1 -10 -9 0 -20 -14 -21 -29 -2 -8 10 -9 16 -1 21 18 11 11 23
-12 18 -21 -4 -21 -3 -5 7 15 9 22 8 36 -4 20 -18 41 -21 41 -6 0 5 -8 7 -17
4 -10 -2 -8 1 5 7 30 16 28 28 -13 68 -27 26 -38 32 -47 23 -9 -9 -8 -12 4
-12 9 0 20 -5 24 -12 5 -8 2 -9 -10 -5 -14 5 -16 3 -11 -12 4 -14 -1 -23 -17
-32 -20 -11 -22 -11 -10 3 9 11 10 18 2 23 -5 3 -10 1 -10 -4 0 -6 -4 -11 -10
-11 -5 0 -10 7 -10 15 0 17 -16 20 -25 5 -3 -5 -11 -10 -17 -10 -6 0 1 10 15
23 35 29 34 37 -3 37 -33 0 -38 14 -16 43 10 12 16 15 21 7 5 -7 12 -2 21 15
8 15 12 31 9 35 -5 8 24 25 38 21 5 -1 6 3 2 8 -8 14 16 51 33 51 7 0 10 5 7
10 -3 6 -3 15 1 21 4 8 9 7 15 -2 7 -11 9 -10 9 4 0 24 9 22 42 -10 22 -21 28
-23 28 -10 0 9 -6 17 -14 17 -7 0 -19 6 -25 13 -15 19 31 62 56 53 9 -4 14 -4
10 0 -4 4 5 18 19 31 25 23 51 32 39 13 -3 -5 -1 -10 4 -10 6 0 11 3 11 8 0 4
12 13 28 20 36 17 76 51 68 59 -3 3 -14 -1 -24 -10 -34 -31 -78 -40 -112 -24
-16 9 -30 11 -30 6 0 -6 -4 -7 -10 -4 -5 3 -10 -1 -10 -10 0 -9 -5 -13 -10
-10 -6 4 -8 11 -5 16 3 5 -1 6 -10 3 -9 -4 -14 -13 -11 -21 4 -8 1 -11 -5 -7
-6 4 -15 0 -20 -7 -7 -12 -12 -12 -29 -1 -19 11 -21 11 -18 -5 2 -12 -4 -18
-19 -19 -13 -1 -23 2 -23 6 0 4 -6 10 -14 13 -11 5 -11 0 2 -24 17 -29 32 -38
32 -18 0 5 4 8 9 5 4 -3 17 1 27 9 25 19 34 19 34 0 0 -9 -10 -20 -22 -26 -22
-9 -22 -9 2 -5 25 5 24 4 -5 -19 -16 -14 -32 -25 -35 -25 -3 0 -14 -17 -25
-37 -11 -20 -40 -49 -64 -65 -27 -17 -46 -37 -48 -50 -2 -13 -8 -25 -13 -26
-6 -2 -10 -12 -10 -21 0 -10 -7 -18 -15 -18 -20 0 -19 9 5 37 12 14 18 30 14
39 -3 9 -7 22 -7 29 0 14 -29 8 -64 -14 -12 -8 -33 -14 -45 -14 -20 1 -18 3
10 15 41 18 44 39 5 34 -5 -1 -7 -5 -5 -11 1 -5 -5 -8 -15 -6 -10 2 -19 12
-21 22 -2 10 0 16 6 12 10 -6 62 34 62 48 0 5 -11 6 -25 4 -14 -3 -25 -1 -25
4 0 5 -5 6 -10 3 -5 -3 -10 -1 -10 5 0 7 7 10 15 6 8 -3 15 -1 15 4 0 6 6 10
13 10 15 0 41 39 32 48 -3 4 -15 -4 -25 -18 -19 -24 -26 -18 -20 19 1 9 -5 12
-19 8 -14 -3 -19 -1 -16 6 3 7 -1 2 -10 -10 -14 -18 -21 -20 -47 -12 -17 4
-35 6 -39 3 -5 -3 -6 2 -3 11 5 11 10 13 19 5 9 -8 14 -6 18 4 3 8 1 17 -6 20
-8 3 -6 9 6 16 16 11 17 14 3 34 -16 25 -11 38 22 55 19 10 21 15 11 27 -15
18 -29 18 -29 -1 0 -8 -9 -24 -19 -34 -27 -27 -38 -63 -17 -55 9 3 16 3 16 0
0 -13 -39 -44 -64 -50 -16 -4 -24 -11 -20 -18 4 -7 3 -8 -4 -4 -15 9 -15 33 0
42 7 5 8 3 3 -6 -5 -9 -4 -11 3 -6 7 4 12 14 12 22 0 8 6 14 14 14 16 0 31 34
22 48 -3 5 6 15 19 22 30 16 31 22 5 45 -11 10 -20 14 -20 9 0 -5 -4 -3 -9 5
-7 11 -11 10 -19 -6 -8 -15 -18 -19 -42 -15 l-30 4 39 20 c47 23 79 55 45 44
-18 -5 -24 -1 -32 24 -6 16 -18 30 -26 30 -9 0 -16 5 -16 10 0 6 7 10 16 10
10 0 14 6 11 14 -3 7 -1 18 5 24 8 8 6 13 -7 18 -11 5 -22 1 -30 -9 -9 -12
-21 -15 -48 -10 -35 5 -51 -7 -27 -22 6 -3 10 -11 10 -17 0 -6 -10 -3 -22 8
-21 19 -21 19 -15 -1 7 -19 6 -19 -7 -2 -8 11 -12 25 -10 32 8 20 -13 27 -38
13 -40 -22 -54 -17 -23 8 l30 24 -27 0 c-31 0 -33 3 -17 32 10 18 9 20 -5 15
-19 -7 -20 -3 -6 24 9 15 7 19 -7 19 -16 1 -16 2 1 12 15 8 21 8 24 0 2 -7 9
-12 15 -12 7 1 -1 12 -18 25 -30 25 -51 33 -40 16 3 -5 1 -12 -4 -15 -5 -4
-11 4 -14 16 -2 13 -5 -244 -6 -570z m279 404 c0 -3 -4 -8 -10 -11 -5 -3 -10
-1 -10 4 0 6 5 11 10 11 6 0 10 -2 10 -4z m-16 -40 c-21 -15 -30 -14 -19 3 3
6 14 11 23 11 13 0 13 -2 -4 -14z m-34 0 c0 -2 -7 -6 -15 -10 -8 -3 -15 -1
-15 4 0 6 7 10 15 10 8 0 15 -2 15 -4z m-110 -26 c0 -5 -5 -10 -11 -10 -5 0
-7 5 -4 10 3 6 8 10 11 10 2 0 4 -4 4 -10z m48 -129 c10 -6 8 -10 -9 -14 -28
-7 -46 2 -28 14 17 11 21 11 37 0z m745 -124 c-15 -13 -40 -30 -54 -39 -26
-16 -26 -16 -26 8 0 16 4 23 12 20 7 -2 16 -2 19 2 4 3 14 7 24 8 9 2 18 8 20
13 2 6 10 11 19 11 9 0 4 -9 -14 -23z m-453 -231 c0 -3 -4 -8 -10 -11 -5 -3
-10 -1 -10 4 0 6 5 11 10 11 6 0 10 -2 10 -4z m134 -11 c5 -13 -29 -59 -44
-60 -3 -1 -15 -6 -26 -13 -19 -10 -23 -9 -27 9 -3 12 -10 18 -15 15 -6 -3 -13
1 -16 10 -4 11 -2 15 8 11 7 -3 19 0 25 6 8 8 11 6 11 -7 0 -9 4 -15 10 -11 5
3 7 12 3 20 -3 9 1 15 11 15 10 0 13 -6 9 -16 -5 -14 -3 -14 16 -3 12 8 19 20
16 26 -2 7 0 13 4 13 5 0 11 -7 15 -15z m16 -118 c0 -2 -10 -12 -22 -23 l-23
-19 19 23 c18 21 26 27 26 19z m385 -57 c-2 -16 0 -30 5 -30 6 0 10 -4 10 -10
0 -18 -15 -10 -32 18 -13 20 -18 22 -18 10 0 -20 -17 -23 -40 -8 -12 8 -11 10
8 10 13 0 22 6 22 15 0 8 6 12 14 9 8 -3 17 -1 21 5 11 18 14 12 10 -19z m95
20 c0 -5 -2 -10 -4 -10 -3 0 -8 5 -11 10 -3 6 -1 10 4 10 6 0 11 -4 11 -10z
m-459 -13 c-1 -12 -15 -9 -19 4 -3 6 1 10 8 8 6 -3 11 -8 11 -12z m31 -21
c-10 -14 -22 -23 -24 -20 -3 3 4 16 16 29 27 31 34 24 8 -9z m245 -15 c10 -16
9 -20 -13 -24 -19 -3 -22 -2 -13 9 6 7 8 18 4 24 -3 5 -2 10 2 10 5 0 14 -9
20 -19z m137 -12 c-18 -20 -7 -27 14 -9 7 5 5 2 -3 -7 -12 -14 -17 -15 -27 -4
-10 11 -10 14 0 18 6 3 12 11 12 19 0 9 5 12 11 9 7 -5 4 -14 -7 -26z m1546
11 c0 -5 -5 -10 -11 -10 -5 0 -7 5 -4 10 3 6 8 10 11 10 2 0 4 -4 4 -10z
m-2033 -6 c-3 -3 -12 -4 -19 -1 -8 3 -5 6 6 6 11 1 17 -2 13 -5z m2176 -14 c3
-11 1 -18 -4 -14 -5 3 -9 12 -9 20 0 20 7 17 13 -6z m-1882 -23 c-6 -8 -7 -18
-3 -22 4 -5 2 -5 -5 -1 -14 8 -6 36 9 36 7 0 6 -5 -1 -13z m1836 -29 c-3 -8
-6 -5 -6 6 -1 11 2 17 5 13 3 -3 4 -12 1 -19z m-1977 2 c0 -5 -5 -10 -11 -10
-5 0 -7 5 -4 10 3 6 8 10 11 10 2 0 4 -4 4 -10z m1844 1 c4 -5 -3 -7 -14 -4
-23 6 -26 13 -6 13 8 0 17 -4 20 -9z m-118 -13 c4 -7 3 -8 -4 -4 -7 4 -12 2
-12 -5 0 -7 -3 -10 -6 -6 -6 5 3 27 11 27 2 0 7 -5 11 -12z m-1621 -7 c3 -5 1
-12 -5 -16 -5 -3 -10 1 -10 9 0 18 6 21 15 7z m-85 -11 c-8 -5 -19 -10 -25
-10 -5 0 -3 5 5 10 8 5 20 10 25 10 6 0 3 -5 -5 -10z m360 -4 c0 -3 -4 -8 -10
-11 -5 -3 -10 -1 -10 4 0 6 5 11 10 11 6 0 10 -2 10 -4z m1467 -32 c-3 -3 -12
-4 -19 -1 -8 3 -5 6 6 6 11 1 17 -2 13 -5z m-703 -19 c7 -20 -20 -45 -50 -45
-14 0 -23 -4 -20 -8 3 -5 -2 -9 -10 -9 -8 0 -13 6 -10 13 5 13 -11 13 -31 1
-7 -5 -13 -4 -13 2 0 5 9 13 20 16 11 3 20 11 20 17 0 6 8 4 18 -5 17 -16 20
-15 42 8 28 29 26 29 34 10z m255 -25 c6 0 11 -4 11 -9 0 -5 -14 -4 -31 2 -27
11 -32 10 -45 -7 -8 -11 -14 -16 -14 -11 0 5 10 19 22 32 20 21 24 22 34 9 6
-9 16 -16 23 -16z m-139 12 c0 -13 -12 -22 -22 -16 -10 6 -1 24 13 24 5 0 9
-4 9 -8z m-265 -32 c3 -5 2 -10 -4 -10 -5 0 -13 5 -16 10 -3 6 -2 10 4 10 5 0
13 -4 16 -10z m253 -8 c2 -7 -2 -10 -12 -6 -9 3 -16 11 -16 16 0 13 23 5 28
-10z"/>
<path d="M1825 50 c-3 -5 -1 -10 4 -10 6 0 11 5 11 10 0 6 -2 10 -4 10 -3 0
-8 -4 -11 -10z"/>
<path d="M2130 1170 c0 -5 7 -10 15 -10 8 0 15 5 15 10 0 6 -7 10 -15 10 -8 0
-15 -4 -15 -10z"/>
<path d="M2531 1164 c0 -12 -9 -28 -18 -35 -16 -13 -17 -12 -4 4 12 15 11 17
-2 17 -18 0 -52 -43 -38 -48 6 -2 7 -10 4 -18 -3 -8 1 -14 8 -14 10 0 9 -4 -3
-16 -22 -22 -61 -10 -53 17 4 11 2 19 -4 19 -6 0 -11 9 -11 19 0 16 -5 19 -27
15 -23 -4 -25 -3 -13 11 16 20 1 19 -28 -1 -12 -8 -19 -20 -16 -26 5 -7 1 -9
-9 -5 -10 4 -17 1 -17 -5 0 -6 -3 -9 -6 -5 -4 3 -25 -3 -48 -15 -22 -11 -43
-20 -46 -18 -3 2 -15 -12 -28 -30 -22 -33 -23 -45 -6 -102 4 -12 0 -18 -10
-18 -26 0 -18 -38 11 -57 34 -23 118 -22 161 1 45 23 53 13 11 -13 -58 -35
-114 -38 -176 -7 -63 30 -62 30 -59 11 2 -16 67 -63 94 -69 9 -1 28 -8 42 -13
14 -6 45 -10 70 -8 25 1 50 -2 57 -7 14 -11 71 -14 81 -4 4 4 16 52 28 107
l21 99 -22 18 c-13 9 -26 28 -30 42 -7 22 -6 23 8 11 9 -7 15 -16 13 -20 -3
-4 4 -12 14 -19 11 -6 21 -8 23 -4 12 18 38 163 34 184 -4 21 -4 21 -6 2z
m-105 -176 c-3 -18 -7 -38 -8 -45 -1 -9 -7 -9 -20 -2 -12 6 -17 17 -14 26 3 8
6 19 6 24 0 4 7 6 15 3 8 -4 15 -2 15 4 0 6 -6 13 -12 15 -8 3 -5 6 6 6 15 1
17 -4 12 -31z m-131 -8 c3 -5 1 -10 -4 -10 -6 0 -11 5 -11 10 0 6 2 10 4 10 3
0 8 -4 11 -10z m182 -56 c0 -19 -10 -18 -24 5 -10 16 -9 18 6 14 10 -2 18 -11
18 -19z m-37 -154 c0 -5 -8 -10 -17 -10 -15 0 -16 2 -3 10 19 12 20 12 20 0z"/>
<path d="M2614 1155 c-10 -26 1 -35 13 -10 6 14 7 25 2 25 -5 0 -12 -7 -15
-15z"/>
<path d="M1595 1150 c-3 -6 1 -7 9 -4 18 7 21 14 7 14 -6 0 -13 -4 -16 -10z"/>
<path d="M2675 1140 c-3 -5 -1 -10 4 -10 6 0 11 5 11 10 0 6 -2 10 -4 10 -3 0
-8 -4 -11 -10z"/>
<path d="M1553 1112 c-11 -15 -46 -47 -77 -71 -46 -35 -59 -41 -71 -31 -14 12
-35 6 -35 -10 0 -5 -12 -22 -27 -38 -16 -16 -38 -41 -50 -56 -26 -32 -39 -33
-38 -3 2 43 16 68 34 62 24 -7 51 23 31 35 -11 7 -11 13 3 33 16 24 15 25 -13
30 -41 9 -117 -31 -91 -48 6 -3 -1 -21 -14 -42 -30 -43 -30 -45 -5 -68 11 -10
17 -22 14 -26 -3 -5 3 -6 12 -2 12 4 15 3 10 -5 -4 -7 -14 -12 -22 -12 -8 0
-14 -6 -14 -14 0 -7 -25 -32 -55 -55 -30 -23 -55 -46 -55 -51 0 -13 97 57 115
83 8 12 24 26 36 33 18 9 25 7 46 -14 l24 -24 47 62 c41 56 44 64 29 75 -9 6
-14 15 -10 18 3 4 12 2 19 -4 16 -13 34 -4 34 17 0 8 3 14 8 14 4 0 23 14 42
30 19 16 38 30 42 30 10 0 62 70 56 75 -2 3 -14 -8 -25 -23z"/>
<path d="M1060 1108 c-32 -35 -27 -82 13 -112 35 -27 62 -32 87 -16 12 7 11
12 -5 30 -11 12 -25 18 -36 15 -23 -8 -33 10 -19 35 13 24 55 28 46 5 -3 -10
5 -20 23 -30 26 -13 30 -13 35 1 3 8 1 25 -6 37 -30 58 -100 75 -138 35z"/>
<path d="M2638 1123 c7 -3 16 -2 19 1 4 3 -2 6 -13 5 -11 0 -14 -3 -6 -6z"/>
<path d="M2700 1120 c0 -5 5 -10 11 -10 5 0 7 5 4 10 -3 6 -8 10 -11 10 -2 0
-4 -4 -4 -10z"/>
<path d="M234 1105 c-18 -13 -18 -14 4 -8 12 3 25 9 28 14 8 14 -10 11 -32 -6z"/>
<path d="M1840 1110 c0 -5 5 -10 10 -10 6 0 10 5 10 10 0 6 -4 10 -10 10 -5 0
-10 -4 -10 -10z"/>
<path d="M2095 1110 c3 -5 8 -10 11 -10 2 0 4 5 4 10 0 6 -5 10 -11 10 -5 0
-7 -4 -4 -10z"/>
<path d="M2676 1107 c5 -15 -57 -19 -67 -4 -6 9 -89 -318 -89 -349 0 -8 6 -11
15 -8 8 4 15 1 15 -5 0 -8 5 -8 18 0 15 9 23 7 47 -15 30 -28 35 -28 93 -4 30
12 35 11 48 -6 7 -11 17 -17 20 -13 4 4 13 -1 21 -11 8 -9 12 -11 8 -4 -3 6
-1 12 4 12 6 0 11 -4 11 -10 0 -5 6 -10 14 -10 8 0 17 -8 19 -17 3 -10 5 28 6
85 0 59 -3 101 -8 98 -11 -7 -21 18 -21 55 0 21 4 27 15 23 10 -4 15 0 15 12
0 27 -16 49 -24 35 -4 -6 -2 -11 4 -11 8 0 7 -5 -2 -14 -7 -8 -21 -23 -30 -35
-22 -26 -38 -27 -45 -2 -3 11 -11 17 -17 15 -7 -3 -18 1 -25 9 -15 19 10 42
38 34 16 -4 18 1 16 39 -2 24 1 47 7 50 6 4 8 2 4 -4 -3 -6 -1 -14 5 -18 6 -3
15 0 20 7 7 12 9 12 9 0 0 -10 3 -11 14 -2 11 10 15 8 19 -6 3 -11 5 -6 6 12
1 26 -3 31 -24 33 -14 1 -25 -4 -25 -11 -1 -6 -6 -3 -13 8 -13 22 -29 29 -67
28 -14 -1 -33 3 -42 8 -13 7 -16 6 -12 -4z m14 -97 c0 -5 -4 -10 -10 -10 -5 0
-10 5 -10 10 0 6 5 10 10 10 6 0 10 -4 10 -10z m-60 -10 c0 -5 -5 -10 -11 -10
-5 0 -7 5 -4 10 3 6 8 10 11 10 2 0 4 -4 4 -10z m60 -234 c0 -17 -7 -25 -25
-28 -13 -3 -22 -1 -19 3 3 5 12 9 20 9 8 0 14 9 14 20 0 11 2 20 5 20 3 0 5
-11 5 -24z m-30 6 c0 -4 -10 -13 -22 -21 -23 -14 -23 -14 -4 8 20 22 26 25 26
13z"/>
<path d="M140 1069 c0 -5 5 -7 10 -4 6 3 10 8 10 11 0 2 -4 4 -10 4 -5 0 -10
-5 -10 -11z"/>
<path d="M287 1053 c-11 -11 -8 -20 8 -20 8 0 15 6 15 14 0 14 -12 17 -23 6z"/>
<path d="M190 1032 c0 -6 -6 -9 -14 -6 -8 3 -17 1 -21 -5 -3 -7 2 -11 14 -11
21 0 37 17 27 27 -3 4 -6 1 -6 -5z"/>
<path d="M330 965 c0 -8 -5 -15 -12 -15 -6 0 -9 -3 -6 -6 8 -8 48 14 48 26 0
6 -7 10 -15 10 -8 0 -15 -7 -15 -15z"/>
<path d="M1095 951 c-3 -6 -13 -7 -23 -4 -13 4 -13 2 3 -11 11 -9 14 -15 6
-14 -7 2 -16 -3 -18 -9 -3 -7 2 -13 10 -13 17 0 47 26 47 40 0 14 -18 21 -25
11z"/>
<path d="M2066 951 c-4 -5 -2 -12 3 -15 5 -4 12 -2 15 3 4 5 2 12 -3 15 -5 4
-12 2 -15 -3z"/>
<path d="M930 940 c-9 -6 -10 -10 -3 -10 6 0 15 5 18 10 8 12 4 12 -15 0z"/>
<path d="M1990 929 c-20 -15 -22 -19 -7 -19 9 0 17 4 17 9 0 5 8 11 18 13 9 2
13 6 7 10 -6 4 -22 -2 -35 -13z"/>
<path d="M2786 923 c-6 -14 -5 -15 5 -6 7 7 10 15 7 18 -3 3 -9 -2 -12 -12z"/>
<path d="M1000 911 c0 -12 -5 -21 -12 -21 -6 0 -9 -2 -6 -5 3 -3 13 -3 22 1
18 7 22 29 6 39 -5 3 -10 -3 -10 -14z"/>
<path d="M1160 910 c0 -5 5 -10 11 -10 5 0 7 5 4 10 -3 6 -8 10 -11 10 -2 0
-4 -4 -4 -10z"/>
<path d="M570 900 c-13 -9 -13 -10 0 -10 8 0 22 5 30 10 13 9 13 10 0 10 -8 0
-22 -5 -30 -10z"/>
<path d="M945 900 c-13 -5 -14 -9 -5 -9 8 0 24 4 35 9 13 5 14 9 5 9 -8 0 -24
-4 -35 -9z"/>
<path d="M1950 890 c0 -11 5 -20 10 -20 6 0 10 -7 10 -15 0 -17 26 -20 35 -4
4 6 -1 17 -11 24 -11 8 -14 15 -9 15 11 0 -15 20 -27 20 -5 0 -8 -9 -8 -20z"/>
<path d="M537 894 c-12 -13 -8 -42 8 -48 16 -6 18 7 6 37 -3 10 -10 15 -14 11z"/>
<path d="M1389 871 c-37 -38 -37 -62 2 -100 29 -30 84 -43 102 -24 12 11 -25
43 -50 43 -27 0 -30 21 -7 45 19 19 40 15 36 -7 -2 -12 35 -38 53 -38 9 0 5
41 -5 61 -12 21 -60 49 -85 49 -9 0 -30 -13 -46 -29z"/>
<path d="M1093 870 c-3 -11 -9 -17 -14 -14 -5 3 -6 -2 -3 -10 5 -12 8 -13 18
-3 7 7 13 20 13 30 0 23 -8 22 -14 -3z"/>
<path d="M2845 870 c3 -5 8 -10 11 -10 2 0 4 5 4 10 0 6 -5 10 -11 10 -5 0 -7
-4 -4 -10z"/>
<path d="M350 850 c0 -5 10 -10 23 -10 18 0 19 2 7 10 -19 13 -30 13 -30 0z"/>
<path d="M443 853 c-18 -7 -16 -20 2 -20 8 0 16 6 19 14 6 13 0 15 -21 6z"/>
<path d="M983 835 c5 -14 39 -13 44 1 2 7 -6 11 -22 10 -14 0 -23 -5 -22 -11z"/>
<path d="M1045 840 c-3 -5 -1 -10 4 -10 6 0 11 5 11 10 0 6 -2 10 -4 10 -3 0
-8 -4 -11 -10z"/>
<path d="M2000 835 c-15 -8 -19 -14 -10 -14 18 -1 46 16 40 23 -3 2 -16 -2
-30 -9z"/>
<path d="M1130 820 c0 -18 3 -19 20 -8 14 9 16 14 7 20 -20 13 -27 9 -27 -12z"/>
<path d="M1097 824 c-3 -3 -11 -7 -19 -8 -7 -2 -21 -6 -30 -11 -10 -4 -25 -4
-35 -1 -10 4 -25 -2 -40 -15 -25 -24 -31 -55 -10 -56 6 0 21 -4 32 -8 15 -5
13 -1 -8 17 -21 19 -24 27 -15 36 24 24 62 11 39 -13 -6 -6 -4 -15 5 -23 12
-11 14 -9 14 13 0 14 4 25 10 25 5 0 7 -7 4 -15 -10 -24 12 -17 24 8 9 18 11
19 11 4 1 -24 21 -11 21 13 0 10 5 20 12 22 8 3 9 6 1 11 -5 4 -13 4 -16 1z"/>
<path d="M2030 809 c0 -5 5 -7 10 -4 6 3 10 8 10 11 0 2 -4 4 -10 4 -5 0 -10
-5 -10 -11z"/>
<path d="M1546 774 c-9 -8 -21 -25 -27 -36 -23 -43 34 -108 96 -108 35 0 28
19 -13 39 -17 9 -32 22 -32 30 0 9 13 4 36 -14 42 -32 67 -26 72 19 7 59 -91
111 -132 70z m79 -44 c3 -5 -1 -10 -9 -10 -8 0 -18 5 -21 10 -3 6 1 10 9 10 8
0 18 -4 21 -10z"/>
<path d="M518 769 c-2 -6 -19 -12 -38 -13 -19 -2 -41 -4 -47 -5 -9 -1 -10 -8
-4 -23 5 -13 10 -27 11 -33 8 -33 31 -51 50 -40 14 9 0 35 -19 35 -12 0 -16 8
-15 28 3 38 3 39 13 23 7 -11 14 -10 37 6 16 11 36 23 44 26 10 4 8 6 -7 6
-12 1 -23 -4 -25 -10z"/>
<path d="M788 733 c6 -2 18 -2 25 0 6 3 1 5 -13 5 -14 0 -19 -2 -12 -5z"/>
<path d="M1220 720 c0 -5 7 -7 15 -4 8 4 15 8 15 10 0 2 -7 4 -15 4 -8 0 -15
-4 -15 -10z"/>
<path d="M2511 714 c0 -11 3 -14 6 -6 3 7 2 16 -1 19 -3 4 -6 -2 -5 -13z"/>
<path d="M2420 711 c0 -6 5 -13 10 -16 6 -3 10 1 10 9 0 9 -4 16 -10 16 -5 0
-10 -4 -10 -9z"/>
<path d="M531 686 c-10 -12 -6 -13 24 -6 48 11 56 20 18 20 -17 0 -36 -6 -42
-14z"/>
<path d="M420 660 c0 -5 5 -10 11 -10 5 0 7 5 4 10 -3 6 -8 10 -11 10 -2 0 -4
-4 -4 -10z"/>
<path d="M1033 651 c1 -15 4 -17 14 -9 10 8 13 6 13 -6 0 -9 -5 -16 -11 -16
-15 0 -1 -37 26 -66 l23 -25 13 31 c8 16 20 30 27 30 8 0 12 6 9 13 -2 6 -9
11 -15 10 -6 -2 -9 4 -6 12 4 8 9 13 13 11 3 -2 12 2 19 10 17 18 2 18 -25 -1
-20 -14 -21 -13 -16 5 5 18 3 19 -20 11 -17 -7 -28 -7 -32 -1 -11 18 -34 11
-32 -9z m73 -76 c-7 -19 -23 -19 -23 0 0 8 4 12 9 9 4 -3 8 3 9 13 0 11 3 13
6 5 3 -7 2 -19 -1 -27z"/>
<path d="M2497 648 c-6 -21 -14 -28 -33 -28 -13 0 -27 7 -30 15 -8 19 -44 20
-44 1 0 -10 -7 -12 -22 -8 -15 4 -19 2 -13 -7 4 -7 16 -11 26 -8 10 3 30 -3
43 -14 29 -23 28 -23 73 -4 26 11 33 18 25 28 -5 6 -12 21 -14 32 -3 17 -5 16
-11 -7z"/>
<path d="M600 643 c0 -15 18 -35 23 -27 3 5 -1 15 -9 22 -8 7 -14 9 -14 5z"/>
<path d="M2843 625 c-7 -8 -10 -21 -7 -29 10 -26 24 -18 24 14 0 34 0 34 -17
15z"/>
<path d="M570 606 c0 -9 5 -16 10 -16 6 0 10 4 10 9 0 6 -4 13 -10 16 -5 3
-10 -1 -10 -9z"/>
<path d="M748 603 c-26 -7 -22 -24 5 -19 12 3 26 5 30 5 5 1 5 6 2 11 -6 10
-9 11 -37 3z"/>
<path d="M924 602 c4 -7 2 -12 -3 -12 -6 0 -11 -4 -11 -10 0 -15 17 -12 23 5
4 8 1 17 -5 21 -7 4 -8 3 -4 -4z"/>
<path d="M2780 590 c-24 -15 -7 -18 20 -3 14 7 18 13 10 13 -8 0 -22 -4 -30
-10z"/>
<path d="M2817 566 c-4 -10 -1 -13 9 -9 7 3 14 9 14 14 0 14 -17 10 -23 -5z"/>
<path d="M2847 555 c-4 -8 -2 -17 3 -20 6 -4 10 3 10 14 0 25 -6 27 -13 6z"/>
<path d="M578 553 c-21 -5 -23 -14 -6 -31 9 -9 14 -7 24 6 8 9 14 20 14 25 0
7 -4 7 -32 0z"/>
<path d="M2793 540 c1 -19 -2 -24 -15 -22 -10 2 -18 -2 -18 -7 0 -14 18 -23
24 -13 3 5 18 7 33 5 l28 -4 -21 18 c-11 10 -24 25 -27 33 -4 9 -6 4 -4 -10z"/>
<path d="M671 531 c-8 -10 -21 -17 -30 -14 -11 3 -10 1 3 -7 14 -10 21 -9 33
3 9 8 14 20 12 26 -3 7 -10 4 -18 -8z"/>
<path d="M895 540 c-3 -5 -1 -10 6 -10 7 0 20 -6 28 -14 14 -12 18 -12 30 2
13 14 12 15 -7 10 -15 -4 -22 -2 -22 8 0 16 -26 19 -35 4z"/>
<path d="M827 523 c-4 -3 -7 -13 -7 -22 1 -13 3 -13 11 2 11 19 8 33 -4 20z"/>
<path d="M2690 526 c0 -2 7 -9 15 -16 9 -7 15 -8 15 -2 0 5 -7 12 -15 16 -8 3
-15 4 -15 2z"/>
<path d="M536 512 c-3 -6 -1 -14 5 -17 14 -9 20 -2 10 14 -6 8 -11 9 -15 3z"/>
<path d="M777 500 c-20 -24 -6 -27 17 -4 18 17 20 24 8 24 -4 0 -15 -9 -25
-20z"/>
<path d="M1285 510 c3 -5 8 -10 11 -10 2 0 4 5 4 10 0 6 -5 10 -11 10 -5 0 -7
-4 -4 -10z"/>
<path d="M2851 504 c0 -11 3 -14 6 -6 3 7 2 16 -1 19 -3 4 -6 -2 -5 -13z"/>
<path d="M871 476 c-16 -17 -18 -23 -6 -23 8 0 15 4 15 9 0 5 4 7 9 4 5 -3 11
1 15 9 9 25 -10 26 -33 1z"/>
<path d="M922 478 c7 -20 63 -21 79 -1 12 15 12 16 -1 8 -22 -14 -48 -16 -55
-5 -9 14 -27 12 -23 -2z"/>
<path d="M1049 479 c-12 -8 -12 -10 1 -19 11 -7 5 -8 -20 -3 -33 6 -34 5 -18
-10 12 -12 25 -15 48 -10 22 4 28 8 18 14 -10 7 -9 9 5 9 9 0 17 -4 17 -9 0
-14 26 -20 41 -9 11 8 10 9 -3 4 -10 -3 -18 -1 -18 4 0 17 -55 39 -71 29z"/>
<path d="M2790 480 c0 -5 9 -10 20 -10 16 0 19 -5 14 -24 -3 -13 -2 -26 3 -29
4 -3 9 9 10 26 2 30 -9 47 -34 47 -7 0 -13 -4 -13 -10z"/>
<path d="M2852 450 c0 -19 2 -27 5 -17 2 9 2 25 0 35 -3 9 -5 1 -5 -18z"/>
<path d="M804 455 c8 -8 18 -15 22 -15 3 0 1 7 -6 15 -7 8 -17 15 -22 15 -5 0
-3 -7 6 -15z"/>
<path d="M2536 451 c-4 -7 -5 -15 -2 -18 9 -9 19 4 14 18 -4 11 -6 11 -12 0z"/>
<path d="M1437 426 c-4 -10 1 -12 14 -9 23 6 24 9 5 16 -8 3 -17 0 -19 -7z"/>
<path d="M710 415 c-8 -9 -8 -15 -2 -15 12 0 26 19 19 26 -2 2 -10 -2 -17 -11z"/>
<path d="M737 401 c-4 -16 0 -19 26 -15 17 2 35 8 41 15 8 8 4 10 -14 8 -14
-2 -30 0 -36 4 -7 4 -14 -1 -17 -12z"/>
<path d="M850 410 c0 -13 18 -22 24 -11 3 5 -1 11 -9 15 -8 3 -15 1 -15 -4z"/>
<path d="M2486 403 c-6 -14 -5 -15 5 -6 7 7 10 15 7 18 -3 3 -9 -2 -12 -12z"/>
<path d="M886 391 c-14 -15 -15 -24 -6 -40 15 -29 22 -26 14 5 -4 17 -2 29 7
35 7 4 11 10 8 14 -3 3 -14 -4 -23 -14z"/>
<path d="M1765 400 c3 -5 8 -10 11 -10 2 0 4 5 4 10 0 6 -5 10 -11 10 -5 0 -7
-4 -4 -10z"/>
<path d="M1036 384 c-4 -11 -10 -13 -19 -7 -8 7 -17 4 -29 -8 -16 -17 -15 -18
11 -17 25 1 60 33 48 44 -3 3 -7 -3 -11 -12z"/>
<path d="M2615 390 c-3 -6 1 -7 9 -4 9 3 16 1 16 -5 0 -6 5 -11 11 -11 8 0 8
5 -1 15 -14 17 -26 19 -35 5z"/>
<path d="M835 380 c-3 -5 1 -10 10 -10 9 0 13 5 10 10 -3 6 -8 10 -10 10 -2 0
-7 -4 -10 -10z"/>
<path d="M710 360 c0 -13 18 -22 24 -11 3 5 -1 11 -9 15 -8 3 -15 1 -15 -4z"/>
<path d="M795 360 c-7 -11 12 -50 23 -49 4 1 9 0 12 -1 24 -9 47 -5 45 9 -2 9
-4 20 -4 24 -1 4 -17 5 -38 1 -31 -6 -35 -4 -30 10 7 18 2 22 -8 6z"/>
<path d="M1044 344 c3 -8 2 -12 -4 -9 -6 3 -10 1 -10 -4 0 -16 27 -13 33 3 6
15 -1 26 -16 26 -5 0 -6 -7 -3 -16z"/>
<path d="M1655 350 c28 -12 55 -12 55 0 0 6 -17 10 -37 9 -31 0 -34 -2 -18 -9z"/>
<path d="M2525 336 c0 -36 10 -40 13 -6 1 17 -1 30 -6 30 -4 0 -8 -11 -7 -24z"/>
<path d="M1140 328 c0 -4 -8 -8 -17 -8 -15 0 -16 -2 -3 -10 21 -13 24 -13 37
8 9 15 8 19 -3 19 -8 0 -14 -4 -14 -9z"/>
<path d="M1725 330 c3 -5 8 -10 11 -10 2 0 4 5 4 10 0 6 -5 10 -11 10 -5 0 -7
-4 -4 -10z"/>
<path d="M1825 329 c-11 -17 1 -21 15 -4 8 9 8 15 2 15 -6 0 -14 -5 -17 -11z"/>
<path d="M2750 330 c0 -5 5 -10 11 -10 5 0 7 5 4 10 -3 6 -8 10 -11 10 -2 0
-4 -4 -4 -10z"/>
<path d="M705 320 c-3 -5 1 -10 10 -10 9 0 13 5 10 10 -3 6 -8 10 -10 10 -2 0
-7 -4 -10 -10z"/>
<path d="M1528 323 c7 -3 16 -2 19 1 4 3 -2 6 -13 5 -11 0 -14 -3 -6 -6z"/>
<path d="M1270 290 c-13 -8 -12 -10 3 -10 9 0 17 5 17 10 0 12 -1 12 -20 0z"/>
<path d="M2030 264 c0 -8 5 -12 10 -9 6 4 8 11 5 16 -9 14 -15 11 -15 -7z"/>
<path d="M1791 254 c0 -11 3 -14 6 -6 3 7 2 16 -1 19 -3 4 -6 -2 -5 -13z"/>
<path d="M2320 256 c0 -8 -3 -16 -7 -19 -5 -2 -3 -3 2 -2 14 2 45 -32 37 -41
-4 -3 3 -2 15 5 12 6 20 17 17 25 -6 15 33 29 42 15 3 -5 9 -7 14 -4 4 3 13
-2 20 -10 16 -20 44 -20 36 0 -3 8 -1 15 3 15 5 0 12 -6 14 -12 4 -9 6 -8 6 2
1 19 -54 41 -89 35 -91 -14 -101 -15 -95 -5 3 5 1 10 -4 10 -6 0 -11 -6 -11
-14z"/>
<path d="M1751 241 c-7 -5 -10 -14 -6 -20 5 -9 10 -9 21 0 26 22 14 38 -15 20z"/>
<path d="M2027 220 c-10 -12 -23 -17 -33 -13 -14 5 -16 3 -11 -11 4 -10 3 -15
-3 -11 -6 4 -10 -7 -10 -24 0 -21 5 -31 15 -31 8 0 15 5 15 10 0 6 -5 10 -12
10 -6 0 -9 2 -6 5 3 3 18 -1 34 -9 32 -17 52 -3 31 23 -9 11 -9 15 0 18 9 3
10 10 3 22 -5 10 -6 21 -3 25 3 3 4 6 2 6 -3 0 -12 -9 -22 -20z"/>
<path d="M1190 201 c0 -11 5 -23 10 -26 6 -3 10 -2 10 4 0 5 3 16 6 25 4 11 1
16 -10 16 -9 0 -16 -8 -16 -19z"/>
<path d="M1462 200 c0 -14 2 -19 5 -12 2 6 2 18 0 25 -3 6 -5 1 -5 -13z"/>
<path d="M2287 203 c-12 -12 -7 -21 10 -19 21 3 30 26 11 26 -8 0 -18 -3 -21
-7z"/>
<path d="M1860 156 c0 -2 8 -10 18 -17 15 -13 16 -12 3 4 -13 16 -21 21 -21
13z"/>
<path d="M1413 123 c9 -2 23 -2 30 0 6 3 -1 5 -18 5 -16 0 -22 -2 -12 -5z"/>
<path d="M1318 113 c7 -3 16 -2 19 1 4 3 -2 6 -13 5 -11 0 -14 -3 -6 -6z"/>
<path d="M1900 109 c0 -5 5 -7 10 -4 6 3 10 8 10 11 0 2 -4 4 -10 4 -5 0 -10
-5 -10 -11z"/>
<path d="M1975 110 c-3 -5 -1 -10 4 -10 6 0 11 5 11 10 0 6 -2 10 -4 10 -3 0
-8 -4 -11 -10z"/>
<path d="M1890 80 c0 -5 5 -10 10 -10 6 0 10 5 10 10 0 6 -4 10 -10 10 -5 0
-10 -4 -10 -10z"/>
</g>
</svg>
