<?xml version="1.0" standalone="no"?>
<!DOCTYPE svg PUBLIC "-//W3C//DTD SVG 20010904//EN"
 "http://www.w3.org/TR/2001/REC-SVG-20010904/DTD/svg10.dtd">
<svg version="1.0" xmlns="http://www.w3.org/2000/svg"
 width="311.000000pt" height="310.000000pt" viewBox="0 0 311.000000 310.000000"
 preserveAspectRatio="xMidYMid meet">
<metadata>
Created by potrace 1.16, written by Peter Selinger 2001-2019
</metadata>
<g transform="translate(0.000000,310.000000) scale(0.100000,-0.100000)"
fill="#000000" stroke="none">
<path d="M1631 3041 c-9 -6 -6 -12 12 -24 24 -15 25 -15 20 4 -7 24 -15 30
-32 20z"/>
<path d="M1690 2986 c0 -5 139 -89 199 -120 63 -33 28 -6 -51 39 -46 26 -98
56 -115 67 -18 11 -33 17 -33 14z"/>
<path d="M593 2966 c-71 -15 -96 -40 -90 -88 3 -21 1 -38 -4 -38 -22 0 -6 -20
24 -29 l32 -9 -28 -1 c-16 -1 -37 3 -47 9 -13 7 -19 6 -24 -5 -6 -17 4 -25 64
-46 26 -10 44 -22 42 -29 -3 -11 0 -11 12 -1 25 21 70 10 74 -18 2 -13 0 -21
-5 -18 -5 3 -15 2 -23 -3 -23 -14 38 -33 90 -27 45 5 45 5 15 -8 -47 -22 -77
-18 -123 16 -32 23 -42 27 -42 15 0 -38 67 -71 182 -91 29 -4 36 -3 33 7 -5
13 18 40 65 78 23 18 24 21 8 30 -10 6 -18 16 -18 22 0 6 9 3 20 -7 19 -17 21
-17 40 0 13 12 27 15 44 11 14 -3 27 -2 30 3 3 5 -8 11 -25 15 -25 5 -30 10
-26 26 3 10 -1 24 -9 31 -8 6 -14 8 -14 5 0 -4 -7 0 -16 8 -22 22 -35 11 -24
-20 6 -14 10 -34 10 -45 0 -20 0 -20 -22 1 -12 11 -19 23 -15 26 3 4 2 15 -3
24 -12 22 -48 20 -103 -4 -22 -9 -36 -13 -34 -9 12 18 105 51 176 62 72 11 74
11 108 -15 19 -14 36 -24 39 -21 8 7 -67 68 -79 64 -7 -2 -18 3 -26 10 -11 12
-16 12 -22 2 -5 -9 -20 -2 -54 26 -37 30 -58 39 -96 43 -36 3 -49 1 -49 -8 0
-10 -4 -9 -17 2 -15 12 -27 13 -70 4z m43 -143 c6 -10 8 -27 3 -38 -5 -13 -8
-15 -8 -5 -1 12 -3 12 -10 2 -6 -11 -10 -10 -15 4 -4 10 -3 20 3 22 5 2 7 10
4 18 -7 20 10 18 23 -3z m-46 -17 c0 -2 -7 -7 -16 -10 -8 -3 -12 -2 -9 4 6 10
25 14 25 6z"/>
<path d="M2235 2930 c-3 -5 1 -10 10 -10 9 0 13 5 10 10 -3 6 -8 10 -10 10 -2
0 -7 -4 -10 -10z"/>
<path d="M2255 2860 c3 -5 10 -10 16 -10 5 0 9 5 9 10 0 6 -7 10 -16 10 -8 0
-12 -4 -9 -10z"/>
<path d="M2367 2831 c3 -12 -2 -20 -16 -24 -14 -3 -21 -13 -21 -29 1 -23 1
-23 25 5 26 29 32 52 16 61 -5 4 -7 -2 -4 -13z"/>
<path d="M2310 2720 c0 -5 7 -10 16 -10 8 0 12 5 9 10 -3 6 -10 10 -16 10 -5
0 -9 -4 -9 -10z"/>
<path d="M2360 2716 c0 -2 7 -7 16 -10 8 -3 12 -2 9 4 -6 10 -25 14 -25 6z"/>
<path d="M907 2680 c-3 -11 -1 -20 4 -20 5 0 9 9 9 20 0 11 -2 20 -4 20 -2 0
-6 -9 -9 -20z"/>
<path d="M992 2633 c-13 -44 -5 -57 29 -45 13 5 40 8 59 6 28 -3 37 0 45 19
15 31 7 57 -16 57 -13 0 -19 -6 -17 -16 2 -9 -6 -22 -18 -30 -19 -13 -23 -12
-35 3 -12 15 -12 16 1 8 9 -5 8 0 -4 13 -26 30 -31 28 -44 -15z"/>
<path d="M1065 2640 c-3 -6 1 -7 9 -4 18 7 21 14 7 14 -6 0 -13 -4 -16 -10z"/>
<path d="M798 2623 c-7 -9 -13 -35 -13 -58 0 -30 -4 -41 -12 -38 -7 3 -13 1
-13 -5 0 -12 34 -22 77 -22 25 0 36 7 54 37 25 40 40 28 18 -14 -26 -48 -124
-60 -166 -21 -24 23 -39 19 -29 -7 8 -21 83 -55 124 -55 17 0 32 -5 32 -11 0
-8 4 -8 14 0 9 8 16 8 20 2 4 -5 2 -12 -4 -16 -5 -3 -10 -17 -10 -30 0 -17 -4
-23 -14 -19 -28 11 -26 -16 3 -31 43 -21 111 -18 111 6 0 4 -7 6 -15 3 -8 -4
-15 -1 -15 5 0 6 5 11 10 11 6 0 20 10 32 22 l21 21 -6 -22 c-3 -13 -1 -34 4
-48 5 -15 5 -22 -1 -18 -5 3 -25 -1 -44 -9 -45 -19 -72 -13 -129 27 -33 22
-38 20 -26 -10 20 -55 145 -81 200 -42 15 10 36 19 47 19 12 0 24 5 27 10 10
15 28 12 22 -4 -5 -12 -1 -13 21 -3 15 7 36 18 47 24 17 11 18 14 5 22 -13 9
-13 12 -1 23 11 10 14 10 18 1 3 -7 9 -13 14 -13 5 0 1 15 -9 34 -12 24 -28
37 -54 45 -22 7 -39 20 -43 32 -5 15 -10 18 -18 10 -7 -7 -6 -15 4 -27 8 -10
9 -15 2 -11 -7 5 -9 0 -6 -13 4 -15 14 -20 40 -20 31 0 33 -2 23 -20 -8 -15
-17 -19 -31 -15 -23 7 -25 -7 -4 -25 8 -7 15 -18 15 -24 0 -6 -11 1 -24 15
-19 22 -26 25 -42 16 -18 -10 -18 -10 0 18 18 28 18 28 -4 22 -15 -4 -20 -2
-16 8 2 7 -2 16 -10 19 -8 3 -14 12 -14 21 0 21 -16 19 -40 -5 -25 -25 -31
-25 -58 0 -12 12 -22 17 -22 11 0 -5 -9 -7 -20 -4 -11 3 -20 9 -20 13 0 5 24
29 53 55 l52 47 -22 15 c-13 8 -23 22 -23 29 0 10 -7 13 -24 8 -13 -3 -39 1
-59 10 -32 13 -37 13 -49 -1z m62 -27 c0 -3 -4 -8 -10 -11 -5 -3 -10 -1 -10 4
0 6 5 11 10 11 6 0 10 -2 10 -4z m90 -196 c0 -5 -7 -7 -15 -4 -8 4 -15 8 -15
10 0 2 7 4 15 4 8 0 15 -4 15 -10z"/>
<path d="M1276 2393 c-6 -14 -5 -15 5 -6 7 7 10 15 7 18 -3 3 -9 -2 -12 -12z"/>
<path d="M1628 2253 c26 -36 29 -91 7 -107 -13 -10 -11 -13 15 -23 23 -9 28
-9 23 0 -4 7 -8 34 -9 60 -1 39 -6 53 -29 75 l-28 27 21 -32z"/>
<path d="M1166 2237 c4 -11 -1 -16 -18 -19 -15 -2 -23 -9 -22 -21 2 -21 -12
-23 -20 -2 -9 24 -24 17 -19 -9 4 -21 1 -25 -23 -28 -28 -4 -27 -5 19 -27 50
-23 94 -25 89 -3 -1 7 4 22 11 33 16 22 11 63 -9 80 -12 9 -13 9 -8 -4z m-19
-93 c-3 -3 -12 -4 -19 -1 -8 3 -5 6 6 6 11 1 17 -2 13 -5z"/>
<path d="M1240 2212 c0 -7 -6 -12 -14 -12 -11 0 -13 -10 -10 -39 6 -49 -12
-64 -76 -65 -38 -1 -56 5 -92 31 l-45 32 5 -25 c9 -48 101 -92 166 -80 17 4
37 7 44 8 6 1 12 6 12 12 0 7 4 6 11 -1 7 -7 3 -19 -16 -39 -20 -22 -25 -34
-19 -54 4 -14 6 -32 6 -41 -1 -27 40 -57 98 -73 54 -14 54 -15 17 -15 -45 -1
-70 10 -114 51 l-31 30 8 -35 c8 -37 38 -76 61 -81 36 -7 68 -27 73 -44 8 -25
41 -34 71 -20 13 6 32 7 42 3 10 -5 27 -7 38 -7 18 2 17 1 -2 -8 -34 -14 -28
-19 16 -13 36 5 39 3 49 -27 10 -27 9 -31 -3 -26 -19 7 -65 -13 -65 -29 0 -27
71 -65 120 -65 33 0 72 34 63 56 -3 8 0 14 5 14 20 0 24 -41 7 -60 -19 -21
-91 -36 -128 -26 -27 6 -104 79 -110 104 -2 9 -2 -3 0 -28 6 -56 4 -53 60 -91
32 -23 57 -32 81 -31 20 1 42 -4 49 -10 11 -9 12 -7 7 7 -5 13 -3 16 7 13 8
-3 27 4 42 14 15 11 35 17 43 14 8 -3 12 -1 9 4 -8 12 14 91 30 108 10 11 15
11 27 -1 7 -8 24 -17 35 -21 18 -6 22 -3 20 16 0 13 -5 26 -10 29 -12 8 55 49
81 49 23 0 82 -73 82 -102 0 -19 8 -23 25 -10 13 9 20 46 7 39 -4 -4 -8 4 -8
16 1 17 -4 21 -20 19 -19 -3 -22 2 -22 35 0 20 4 47 9 60 7 19 4 25 -21 38
-29 15 -31 15 -40 -10 -11 -28 -16 -30 -49 -11 -32 18 -58 10 -65 -20 -4 -14
-11 -22 -15 -19 -5 3 -8 -10 -7 -29 3 -40 -7 -65 -19 -46 -5 8 -10 6 -19 -6
-11 -14 -12 -9 -12 32 1 27 4 54 8 60 4 6 9 23 12 38 4 21 1 27 -12 24 -12 -2
-16 -14 -17 -48 0 -49 4 -47 -70 -34 -16 3 -37 6 -45 6 -8 0 -24 8 -34 17 -11
9 -16 11 -13 5 4 -7 0 -17 -9 -25 -12 -10 -18 -9 -32 6 -16 17 -16 17 1 11 14
-4 20 0 24 14 3 11 9 17 13 15 5 -3 20 6 34 20 14 14 29 25 34 25 5 0 19 22
31 49 24 57 25 61 10 61 -5 0 -7 -4 -4 -10 3 -5 2 -10 -4 -10 -21 0 -20 20 3
45 35 38 25 86 -15 64 -12 -6 -15 -16 -12 -31 6 -22 5 -22 -23 3 -23 21 -34
25 -52 18 -20 -8 -21 -6 -12 10 7 15 6 20 -6 25 -22 8 -26 8 -19 -4 3 -5 -1
-10 -10 -10 -9 0 -14 4 -10 9 3 6 -3 10 -12 9 -10 0 -32 6 -49 13 -27 11 -37
10 -69 -5 -45 -22 -59 -14 -16 9 17 8 31 19 31 23 0 5 16 6 36 4 51 -6 71 31
40 74 -13 17 -14 15 -9 -24 l6 -43 -28 7 c-47 12 -72 28 -67 44 5 13 3 13 -12
1 -9 -8 -15 -20 -12 -28 3 -7 2 -13 -3 -13 -4 0 -13 -18 -20 -39 -12 -42 -35
-58 -58 -39 -12 10 -12 13 4 22 10 6 23 11 28 11 13 0 15 75 2 75 -6 0 -21 10
-34 22 -13 12 -23 16 -23 10z m38 -50 c4 -25 -7 -28 -27 -9 -11 10 -12 9 -6
-3 8 -13 7 -13 -8 -1 -14 11 -15 17 -6 28 17 20 43 12 47 -15z m197 -92 c21
-23 4 -27 -19 -4 -18 17 -20 24 -8 24 5 0 17 -9 27 -20z m145 -60 c0 -5 -5
-10 -11 -10 -5 0 -7 5 -4 10 3 6 8 10 11 10 2 0 4 -4 4 -10z m-10 -92 l-1 -43
-13 30 c-13 31 -11 55 5 55 5 0 9 -19 9 -42z m-144 -3 c-3 -10 5 -10 36 -3 22
5 43 7 45 4 3 -3 -8 -17 -23 -33 l-28 -28 -7 25 c-4 14 -7 18 -8 8 -1 -9 -7
-19 -13 -21 -10 -4 -10 -8 1 -15 9 -7 10 -12 2 -16 -12 -8 -12 -8 -16 48 -1
22 -7 42 -14 44 -6 2 -8 8 -5 13 8 14 36 -11 30 -26z m-89 -37 c-3 -8 -6 -5
-6 6 -1 11 2 17 5 13 3 -3 4 -12 1 -19z m150 -134 c-3 -3 -12 -4 -19 -1 -8 3
-5 6 6 6 11 1 17 -2 13 -5z"/>
<path d="M2060 1790 c0 -5 10 -15 23 -21 22 -12 22 -12 3 10 -21 23 -26 26
-26 11z"/>
<path d="M1991 1734 c0 -11 3 -14 6 -6 3 7 2 16 -1 19 -3 4 -6 -2 -5 -13z"/>
<path d="M974 1675 c-4 -8 0 -22 7 -31 11 -14 7 -22 -34 -57 -46 -41 -47 -43
-32 -65 l16 -22 50 41 c46 40 50 41 68 25 16 -14 20 -15 30 -2 11 13 5 25 -35
71 -51 58 -61 64 -70 40z"/>
<path d="M1850 1659 c0 -5 5 -7 10 -4 6 3 10 8 10 11 0 2 -4 4 -10 4 -5 0 -10
-5 -10 -11z"/>
<path d="M1890 1575 c-11 -14 -10 -14 12 -6 15 5 30 6 39 0 11 -7 9 -9 -8 -9
-13 0 -32 -9 -43 -20 -11 -11 -23 -19 -27 -17 -5 1 -9 -8 -11 -20 -3 -17 1
-20 16 -16 11 2 23 0 26 -6 5 -7 -2 -11 -18 -11 -15 0 -30 8 -36 20 -12 22
-42 26 -58 8 -9 -12 -17 -65 -12 -78 1 -3 4 -17 6 -32 3 -30 -23 -52 -49 -42
-8 3 -17 -2 -21 -12 -17 -44 120 -116 159 -84 11 9 14 22 10 37 -5 23 9 63 23
63 4 0 16 -13 25 -30 17 -29 19 -29 43 -14 19 13 24 14 24 3 1 -8 6 -5 13 7 7
12 18 19 25 17 6 -3 12 2 12 11 0 18 15 21 25 6 3 -5 19 -10 36 -10 21 0 29
-5 29 -17 0 -15 2 -16 10 -3 8 13 10 13 10 -2 0 -20 31 -40 46 -30 11 8 40 67
50 102 3 14 3 22 -1 18 -4 -4 -14 0 -22 8 -8 8 -19 12 -24 9 -5 -4 -9 0 -9 8
0 7 10 19 23 26 16 9 22 20 21 44 -1 27 -5 32 -25 32 -13 0 -29 7 -36 15 -11
13 -13 13 -14 -2 -1 -10 -2 -24 -3 -30 0 -7 -11 -14 -24 -14 -23 -1 -23 4 -5
52 2 7 -1 15 -8 20 -9 5 -10 2 -5 -11 6 -18 6 -18 -12 -2 -22 20 -73 23 -68 5
16 -49 16 -67 1 -62 -11 4 -15 0 -15 -17 0 -12 -3 -19 -7 -16 -10 10 -10 57 0
57 4 0 6 4 2 10 -3 5 -13 6 -22 3 -13 -5 -15 -2 -11 15 4 16 2 19 -10 15 -10
-4 -13 -2 -8 5 11 18 -59 15 -74 -3z m119 -165 c1 -9 -5 -6 -15 8 -8 12 -12
27 -8 34 8 12 22 -13 23 -42z m19 25 c-3 -3 -9 2 -12 12 -6 14 -5 15 5 6 7 -7
10 -15 7 -18z m141 -24 c12 -16 21 -37 21 -48 0 -12 -6 -7 -17 15 -21 43 -48
58 -80 43 -30 -14 -46 -14 -38 -1 4 6 10 8 14 6 4 -3 13 -1 21 5 28 17 58 9
79 -20z"/>
<path d="M1045 1508 c-69 -58 -71 -61 -51 -77 12 -10 22 -8 51 14 27 22 35 24
35 11 0 -8 -11 -23 -25 -32 -28 -18 -32 -36 -12 -52 10 -8 23 -2 55 27 48 44
50 51 22 76 -19 17 -19 19 -3 37 14 16 15 20 2 33 -12 13 -22 8 -74 -37z"/>
<path d="M1745 1470 c3 -5 8 -10 11 -10 2 0 4 5 4 10 0 6 -5 10 -11 10 -5 0
-7 -4 -4 -10z"/>
<path d="M107 1413 c-13 -12 -7 -19 19 -21 22 -2 25 0 14 13 -14 16 -23 19
-33 8z"/>
<path d="M1121 1374 c-12 -15 -21 -32 -21 -40 0 -21 50 -74 71 -74 26 0 24 12
-6 40 -14 13 -23 26 -20 28 3 3 19 -8 36 -24 30 -28 31 -28 45 -10 20 29 17
54 -11 81 -32 33 -68 32 -94 -1z m77 -32 c6 -18 -15 -14 -22 4 -4 10 -1 14 6
12 6 -2 14 -10 16 -16z"/>
<path d="M2325 1350 c-10 -11 -16 -22 -14 -24 2 -2 12 7 22 20 22 29 17 32 -8
4z"/>
<path d="M1661 1330 c0 -14 13 -50 29 -80 17 -30 30 -51 30 -47 0 4 12 -4 27
-18 32 -29 46 -31 66 -11 7 8 32 20 55 27 22 6 43 18 46 26 4 10 1 11 -14 3
-24 -13 -91 -13 -127 1 -37 14 -82 57 -99 94 -13 29 -13 29 -13 5z"/>
<path d="M2650 1305 c-21 -25 -1 -31 23 -7 17 18 18 22 5 22 -8 0 -21 -7 -28
-15z"/>
<path d="M69 1303 c-10 -2 -19 -12 -22 -22 -3 -15 2 -17 34 -17 25 1 39 6 39
14 0 7 4 10 10 7 6 -3 7 1 4 9 -3 9 -10 16 -16 16 -5 0 -6 -4 -3 -10 3 -5 1
-10 -4 -10 -6 0 -11 5 -11 10 0 10 -4 11 -31 3z"/>
<path d="M140 1306 c0 -2 7 -9 15 -16 9 -7 15 -8 15 -2 0 5 -7 12 -15 16 -8 3
-15 4 -15 2z"/>
<path d="M2245 1298 c-11 -7 -27 -21 -37 -33 -9 -11 -33 -30 -55 -40 -21 -11
-55 -35 -76 -52 -20 -18 -42 -33 -47 -33 -6 0 -10 -4 -10 -10 0 -18 16 -11 60
27 42 36 88 66 123 79 9 3 17 11 17 16 0 5 12 20 26 33 30 27 29 30 -1 13z"/>
<path d="M1243 1279 c-23 -8 -43 -38 -43 -62 0 -22 47 -67 70 -67 32 0 73 46
64 73 -14 48 -52 71 -91 56z m51 -48 c3 -4 -3 -16 -14 -26 -26 -23 -52 -6 -30
20 14 17 36 20 44 6z"/>
<path d="M66 1234 c-8 -22 -8 -24 8 -24 12 0 26 20 26 36 0 12 -29 2 -34 -12z"/>
<path d="M486 1213 c-6 -14 -5 -15 5 -6 7 7 10 15 7 18 -3 3 -9 -2 -12 -12z"/>
<path d="M1937 1219 c7 -7 15 -10 18 -7 3 3 -2 9 -12 12 -14 6 -15 5 -6 -5z"/>
<path d="M240 1208 c0 -4 4 -8 9 -8 6 0 12 4 15 8 3 5 -1 9 -9 9 -8 0 -15 -4
-15 -9z"/>
<path d="M188 1203 c7 -3 16 -2 19 1 4 3 -2 6 -13 5 -11 0 -14 -3 -6 -6z"/>
<path d="M55 1180 c3 -6 -1 -7 -9 -4 -9 3 -16 1 -16 -5 0 -6 5 -11 11 -11 16
0 69 -59 69 -77 0 -26 -27 -45 -49 -34 -11 6 -22 16 -24 23 -3 7 -6 -7 -6 -32
-1 -65 8 -76 50 -55 30 14 31 14 14 0 -15 -12 -17 -18 -8 -23 11 -7 18 -34 22
-84 1 -5 9 -8 19 -7 10 0 12 3 4 6 -6 2 -10 9 -6 14 3 5 20 -3 39 -18 28 -22
32 -30 22 -42 -10 -12 -8 -13 13 -6 38 11 42 19 26 49 -8 16 -17 23 -21 17
-13 -21 -23 0 -15 29 5 17 5 28 0 25 -5 -3 -11 -1 -14 4 -3 5 4 12 17 16 19 6
19 8 5 12 -10 2 -18 9 -18 14 0 6 -9 7 -22 3 -20 -6 -21 -5 -9 10 7 9 11 24 8
35 -4 17 0 19 34 16 22 -2 42 1 45 6 5 8 -26 14 -50 10 -22 -4 -66 23 -66 40
0 11 5 19 10 19 18 0 11 18 -9 25 -12 4 -18 12 -14 21 4 10 -3 14 -27 14 -18
0 -29 -4 -25 -10z m75 -230 c0 -5 -4 -10 -10 -10 -5 0 -10 5 -10 10 0 6 5 10
10 10 6 0 10 -4 10 -10z"/>
<path d="M1327 1147 c-45 -40 -47 -43 -31 -59 16 -16 19 -16 46 7 31 26 48 32
48 15 0 -5 7 -10 16 -10 8 0 12 -5 9 -10 -4 -6 -11 -8 -16 -5 -5 3 -6 -2 -2
-11 4 -12 3 -15 -5 -10 -8 4 -10 2 -6 -8 3 -8 0 -24 -6 -36 -11 -21 -13 -21
-31 -4 -18 16 -19 16 -25 -1 -5 -11 2 -26 19 -42 l26 -26 48 18 c118 45 117
44 98 65 -15 17 -20 17 -51 4 l-34 -14 17 36 18 36 -33 29 c-17 16 -32 33 -32
38 0 5 -6 13 -12 19 -10 7 -26 -1 -61 -31z"/>
<path d="M120 1170 c0 -5 5 -10 10 -10 6 0 10 5 10 10 0 6 -4 10 -10 10 -5 0
-10 -4 -10 -10z"/>
<path d="M403 1165 c-17 -19 -16 -30 0 -16 8 6 17 8 21 4 4 -4 4 0 0 10 -7 20
-6 20 -21 2z"/>
<path d="M229 1154 c-8 -30 -1 -48 19 -49 27 -2 28 3 5 21 -17 12 -16 13 4 9
14 -2 20 1 17 9 -4 11 -43 20 -45 10z"/>
<path d="M2310 1154 c0 -1 7 -10 16 -19 13 -12 14 -19 5 -28 -14 -14 -15 -47
-1 -47 13 0 13 -60 0 -80 -8 -12 -11 -12 -28 3 -23 21 -46 22 -39 3 3 -8 0
-20 -8 -26 -10 -9 -15 -7 -20 9 -7 24 -32 34 -39 15 -7 -19 -36 -18 -52 4 -12
15 -14 14 -20 -15 -3 -18 -14 -35 -24 -38 -29 -9 -43 -33 -36 -60 8 -30 78
-73 126 -77 l35 -3 0 50 c0 38 4 50 15 50 8 0 21 4 29 9 19 12 41 -19 41 -59
0 -62 -63 -87 -151 -61 -53 15 -109 60 -138 111 -9 17 -10 13 -5 -20 9 -52 30
-88 65 -109 16 -10 29 -22 29 -27 0 -6 12 -8 29 -4 23 5 35 1 52 -16 14 -14
24 -18 27 -11 2 6 11 8 20 5 15 -6 16 -5 2 12 -11 14 -11 17 -1 11 8 -5 17 -3
23 5 8 11 9 10 4 -3 -3 -10 -2 -18 2 -19 4 0 18 -2 32 -5 20 -3 22 -2 8 6 -20
12 -17 67 3 61 47 -13 59 -13 59 3 0 9 -4 16 -8 16 -5 0 -9 7 -9 15 0 8 5 11
10 8 5 -3 14 1 19 8 8 11 9 11 5 -3 -3 -9 -3 -19 1 -22 8 -9 42 67 34 79 -4 5
-5 20 -4 32 3 17 -5 26 -33 37 l-36 15 17 33 c9 18 20 35 24 38 4 3 10 17 13
31 5 20 2 29 -11 35 -9 4 -20 6 -24 6 -5 -1 -8 9 -8 22 0 18 -5 24 -25 24 -14
0 -25 -2 -25 -4z m-90 -239 c-7 -9 -15 -13 -19 -10 -3 3 1 10 9 15 21 14 24
12 10 -5z"/>
<path d="M344 1139 c-4 -7 -3 -9 4 -5 6 3 13 -2 15 -11 4 -16 5 -16 6 -1 1 21
-15 32 -25 17z"/>
<path d="M160 1131 c0 -6 4 -13 10 -16 6 -3 7 1 4 9 -7 18 -14 21 -14 7z"/>
<path d="M310 1133 c0 -14 15 -29 35 -37 17 -6 17 -4 -4 18 -26 28 -31 31 -31
19z"/>
<path d="M1947 1110 c-14 -11 -30 -20 -36 -20 -7 0 -38 -26 -71 -57 -32 -32
-66 -64 -75 -71 -21 -18 -80 -42 -103 -42 -25 0 -74 -39 -66 -51 5 -9 -51 -69
-64 -69 -2 0 -13 11 -24 25 -21 27 -40 33 -37 13 3 -26 -1 -38 -15 -38 -9 0
-12 8 -8 25 2 15 0 25 -7 25 -20 0 -11 28 11 33 18 5 19 8 8 22 -11 14 -14 13
-28 -7 -9 -13 -21 -26 -26 -30 -7 -5 -4 -13 9 -23 13 -11 16 -18 8 -21 -16 -7
17 -42 34 -36 8 2 10 -5 4 -25 -5 -18 -15 -29 -29 -31 -12 -2 -22 -7 -22 -11
0 -9 -81 -63 -86 -58 -9 8 28 46 40 41 8 -3 17 -1 20 4 3 6 0 12 -8 15 -7 3
-12 18 -11 35 1 24 -2 30 -17 29 -10 -1 -18 -6 -18 -12 0 -12 -64 -12 -95 -1
-14 6 -16 5 -6 -2 8 -6 10 -15 6 -22 -5 -8 -4 -11 2 -7 6 4 13 -2 16 -13 3
-11 0 -23 -5 -27 -7 -3 -8 -1 -4 5 4 7 1 12 -9 12 -12 0 -14 -4 -5 -19 13 -25
27 -34 35 -22 3 6 12 8 19 5 7 -3 18 1 24 9 10 12 8 14 -13 12 -19 -3 -25 1
-25 16 0 10 5 19 10 19 6 0 9 -6 8 -12 -2 -8 7 -13 19 -13 29 0 31 -5 13 -31
-25 -34 -64 -54 -119 -59 -58 -5 -71 -10 -71 -28 0 -13 -71 -39 -80 -30 -3 2
3 11 13 18 11 8 21 31 24 54 5 35 3 40 -11 35 -18 -7 -20 -16 -7 -30 5 -5 5
-19 -2 -34 -8 -19 -11 -21 -14 -8 -2 9 -11 19 -20 22 -14 6 -14 4 0 -17 15
-23 10 -50 -9 -46 -25 4 -38 -1 -27 -12 8 -8 17 -8 34 1 l24 11 -24 -20 c-13
-12 -29 -21 -36 -21 -15 0 -75 -69 -75 -86 0 -21 -100 -90 -113 -78 -3 3 -5
-1 -4 -8 1 -27 -16 -78 -27 -78 -6 0 -12 -12 -13 -26 0 -15 -10 -35 -20 -46
-16 -15 -24 -17 -46 -9 -17 7 -28 7 -32 1 -4 -6 5 -10 19 -10 14 0 26 -4 26
-9 0 -13 -17 -23 -23 -14 -2 5 -3 3 -1 -3 5 -22 -36 -54 -69 -54 -18 0 -42 -7
-54 -15 -12 -8 -39 -19 -60 -24 -38 -9 -37 -9 18 -10 42 -1 58 3 63 14 4 10
20 15 51 15 25 0 45 4 45 8 0 5 22 31 49 58 26 27 58 73 71 102 17 39 28 52
44 53 20 0 20 1 2 8 -17 7 -14 11 25 38 24 17 53 45 64 62 11 17 27 31 35 31
13 0 13 2 0 10 -12 7 -12 12 4 28 17 20 62 38 81 33 6 -2 7 1 2 5 -12 13 25
44 52 44 15 0 31 8 38 19 8 12 27 20 61 23 30 3 61 13 77 26 18 14 35 20 50
16 17 -4 26 0 35 15 6 12 19 21 28 21 20 0 82 59 82 78 0 6 15 14 33 17 32 6
107 64 107 83 0 16 34 39 84 56 55 18 56 19 142 105 36 35 70 61 82 61 12 0
25 6 29 13 4 7 19 18 33 24 23 11 23 12 4 12 -12 1 -33 -8 -47 -19z m-442
-310 c-3 -5 -12 -10 -18 -10 -7 0 -6 4 3 10 19 12 23 12 15 0z"/>
<path d="M2565 1096 c-22 -29 -25 -38 -15 -56 12 -22 5 -60 -10 -60 -5 0 -26
17 -47 37 -20 21 -34 33 -30 27 6 -11 -6 -60 -24 -97 -8 -15 -5 -17 36 -13 24
3 47 1 50 -4 4 -6 18 -10 33 -10 22 0 24 2 12 11 -11 8 -12 12 -2 16 7 2 20
19 28 36 15 29 15 31 -2 44 -22 16 -25 42 -7 61 12 13 18 42 9 42 -3 0 -17
-15 -31 -34z"/>
<path d="M35 1100 c-3 -5 -1 -10 4 -10 6 0 11 5 11 10 0 6 -2 10 -4 10 -3 0
-8 -4 -11 -10z"/>
<path d="M75 1102 c-19 -13 -15 -30 5 -25 21 5 26 18 12 27 -4 2 -12 2 -17 -2z"/>
<path d="M385 1090 c8 -13 45 -19 45 -7 0 7 -11 13 -25 13 -14 1 -23 -2 -20
-6z"/>
<path d="M3052 1070 c0 -19 2 -27 5 -17 2 9 2 25 0 35 -3 9 -5 1 -5 -18z"/>
<path d="M2485 1080 c-3 -6 1 -7 9 -4 18 7 21 14 7 14 -6 0 -13 -4 -16 -10z"/>
<path d="M317 1052 c6 -24 59 -25 59 -1 0 10 -11 16 -32 17 -27 2 -31 -1 -27
-16z"/>
<path d="M2270 1062 c0 -5 7 -15 15 -22 8 -7 15 -8 15 -2 0 5 -7 15 -15 22 -8
7 -15 8 -15 2z"/>
<path d="M699 1024 c-4 -23 0 -35 13 -43 22 -14 23 0 4 44 l-13 30 -4 -31z"/>
<path d="M730 1038 c0 -11 22 -10 39 1 10 7 7 9 -12 8 -15 -1 -27 -5 -27 -9z"/>
<path d="M2240 1039 c0 -5 5 -7 10 -4 6 3 10 8 10 11 0 2 -4 4 -10 4 -5 0 -10
-5 -10 -11z"/>
<path d="M2120 1020 c0 -5 5 -10 10 -10 6 0 10 5 10 10 0 6 -4 10 -10 10 -5 0
-10 -4 -10 -10z"/>
<path d="M2171 1016 c-11 -13 -11 -20 -3 -28 8 -8 13 -7 18 5 10 27 0 41 -15
23z"/>
<path d="M292 1005 c-18 -10 -20 -14 -8 -18 8 -3 18 -2 21 3 4 7 13 7 24 0 10
-5 21 -6 25 -3 10 10 7 -6 -5 -30 l-12 -22 20 20 c24 23 21 30 -15 48 -21 11
-32 11 -50 2z"/>
<path d="M452 994 c-10 -11 -10 -19 -2 -36 l11 -23 -20 23 c-21 24 -32 28 -28
10 5 -26 80 -48 92 -27 4 5 -2 9 -12 10 -10 0 -13 3 -5 6 6 2 12 9 12 14 0 6
-5 7 -10 4 -6 -3 -14 3 -18 13 -6 17 -9 18 -20 6z"/>
<path d="M785 990 c-3 -5 -1 -10 4 -10 6 0 11 5 11 10 0 6 -2 10 -4 10 -3 0
-8 -4 -11 -10z"/>
<path d="M1150 985 c-16 -19 -1 -19 24 0 16 12 17 15 4 15 -8 0 -21 -7 -28
-15z"/>
<path d="M1260 980 c-9 -6 -10 -10 -3 -10 6 0 15 5 18 10 8 12 4 12 -15 0z"/>
<path d="M1484 967 c-4 -12 -10 -14 -18 -8 -7 6 -17 6 -26 1 -12 -8 -11 -10 6
-10 11 0 25 -5 32 -12 9 -9 12 -9 12 1 0 9 9 12 25 9 14 -3 28 0 32 6 3 6 3 8
-2 4 -4 -4 -14 -3 -22 3 -7 6 -13 8 -13 3 0 -5 -4 -2 -10 6 -8 12 -10 12 -16
-3z"/>
<path d="M755 950 c3 -5 8 -10 11 -10 2 0 4 5 4 10 0 6 -5 10 -11 10 -5 0 -7
-4 -4 -10z"/>
<path d="M1244 943 c-3 -10 -13 -31 -21 -47 l-16 -29 26 19 c17 12 26 29 27
47 0 31 -8 36 -16 10z"/>
<path d="M560 933 c0 -13 5 -23 10 -23 13 0 13 11 0 30 -8 12 -10 11 -10 -7z"/>
<path d="M965 940 c-3 -5 -1 -10 4 -10 6 0 11 5 11 10 0 6 -2 10 -4 10 -3 0
-8 -4 -11 -10z"/>
<path d="M1316 924 c-7 -25 4 -43 27 -44 7 0 11 16 8 33 -1 5 3 6 9 2 5 -3 10
-1 10 5 0 7 8 9 23 5 15 -5 19 -4 12 3 -5 6 -26 13 -46 17 -34 6 -37 5 -43
-21z"/>
<path d="M414 915 c10 -15 13 -24 7 -21 -6 4 -11 3 -11 -3 0 -14 32 -29 48
-24 25 9 10 34 -38 62 l-24 14 18 -28z"/>
<path d="M1208 933 c-10 -2 -18 -8 -18 -13 0 -12 33 -5 38 8 2 7 2 11 0 11 -1
-1 -11 -3 -20 -6z"/>
<path d="M1149 913 c-13 -15 -12 -15 9 -4 23 12 28 21 13 21 -5 0 -15 -7 -22
-17z"/>
<path d="M370 898 c0 -9 5 -20 10 -23 13 -8 13 5 0 25 -8 13 -10 13 -10 -2z"/>
<path d="M1387 895 c3 -8 9 -12 14 -9 12 7 11 11 -5 17 -10 4 -13 1 -9 -8z"/>
<path d="M2430 900 c0 -5 5 -10 11 -10 5 0 7 5 4 10 -3 6 -8 10 -11 10 -2 0
-4 -4 -4 -10z"/>
<path d="M235 889 c-4 -6 -5 -12 -2 -15 2 -3 7 2 10 11 7 17 1 20 -8 4z"/>
<path d="M345 861 c-3 -5 -1 -12 5 -16 5 -3 10 1 10 9 0 18 -6 21 -15 7z"/>
<path d="M1321 863 c-1 -6 4 -15 9 -18 6 -3 10 -11 10 -16 0 -6 -4 -7 -10 -4
-5 3 -22 -1 -37 -9 -26 -14 -27 -15 -5 -16 12 0 22 5 22 11 0 8 5 8 15 -1 11
-9 15 -9 15 -1 0 7 4 10 9 7 5 -4 7 4 3 16 -3 14 -2 19 6 14 7 -4 12 -2 12 5
0 6 -8 9 -20 6 -10 -3 -21 0 -24 7 -3 8 -5 8 -5 -1z"/>
<path d="M625 850 c-3 -5 1 -10 10 -10 9 0 13 5 10 10 -3 6 -8 10 -10 10 -2 0
-7 -4 -10 -10z"/>
<path d="M1500 850 c0 -5 5 -10 11 -10 5 0 7 5 4 10 -3 6 -8 10 -11 10 -2 0
-4 -4 -4 -10z"/>
<path d="M2758 848 c5 -5 16 -8 23 -6 8 3 3 7 -10 11 -17 4 -21 3 -13 -5z"/>
<path d="M285 840 c4 -6 11 -8 16 -5 14 9 11 15 -7 15 -8 0 -12 -5 -9 -10z"/>
<path d="M576 841 c-3 -5 1 -11 9 -14 9 -4 12 -1 8 9 -6 16 -10 17 -17 5z"/>
<path d="M1056 835 c-3 -8 -1 -15 4 -15 6 0 10 7 10 15 0 8 -2 15 -4 15 -2 0
-6 -7 -10 -15z"/>
<path d="M1191 824 c0 -11 3 -14 6 -6 3 7 2 16 -1 19 -3 4 -6 -2 -5 -13z"/>
<path d="M1245 830 c3 -6 -1 -10 -9 -10 -24 0 -19 -18 7 -26 12 -4 25 -12 29
-18 4 -6 10 -7 15 -2 4 4 0 12 -9 17 -10 5 -15 16 -12 23 3 7 -2 16 -11 20 -9
3 -13 2 -10 -4z"/>
<path d="M323 824 c3 -5 -6 -10 -20 -10 -32 -2 -41 -13 -23 -25 11 -7 8 -8
-12 -5 -14 2 -35 -2 -45 -9 -17 -13 -17 -14 2 -29 26 -20 41 -20 25 -1 -7 9
-10 18 -7 21 3 3 11 -4 17 -16 13 -24 6 -55 -11 -45 -6 4 -16 -1 -24 -11 -13
-20 -15 -41 -2 -36 4 1 7 -2 7 -8 0 -13 -23 -13 -37 1 -14 14 -28 -7 -15 -24
5 -7 12 -32 15 -57 2 -25 3 -39 0 -32 -9 23 -25 13 -19 -12 4 -15 1 -26 -7
-29 -6 -2 -9 -7 -6 -11 3 -3 14 2 25 12 10 9 24 17 29 18 6 1 20 5 33 9 21 7
22 9 7 25 -9 10 -24 16 -36 13 -14 -4 -18 -1 -13 10 7 19 41 18 49 0 3 -9 17
-12 40 -10 24 3 35 1 32 -7 -2 -6 -1 -19 2 -29 6 -16 10 -15 34 11 25 26 26
30 12 42 -12 10 -15 10 -15 -5 0 -14 -3 -15 -15 -5 -9 7 -18 10 -22 7 -3 -4
-13 -1 -21 6 -12 9 -16 9 -19 0 -7 -20 -23 -15 -20 5 4 23 16 42 28 42 6 0 7
-5 3 -12 -4 -6 -3 -8 3 -5 6 4 16 0 23 -8 8 -10 18 -11 36 -5 15 6 24 6 24 0
0 -6 5 -10 10 -10 6 0 8 10 4 24 -7 31 4 55 17 35 6 -10 9 -10 9 -2 0 17 -21
27 -30 14 -5 -9 -9 -9 -17 1 -22 28 -23 36 -6 32 20 -5 45 27 35 42 -19 26
-42 36 -56 25 -18 -15 -50 -3 -36 14 5 6 7 15 3 18 -3 4 4 7 16 7 24 0 25 20
1 28 -7 3 -10 1 -7 -4z m56 -100 c-9 -11 -15 -11 -25 -3 -18 15 -18 14 11 15
21 2 24 -1 14 -12z m-103 -90 c-9 -8 -20 -12 -26 -9 -15 9 -2 25 21 25 19 0
19 -1 5 -16z m104 -1 c0 -7 -4 -13 -10 -13 -5 0 -10 5 -10 11 0 6 -6 9 -13 6
-8 -3 -20 -1 -28 4 -10 6 -2 9 24 7 22 -1 37 -7 37 -15z m-40 -23 c0 -5 -2
-10 -4 -10 -3 0 -8 5 -11 10 -3 6 -1 10 4 10 6 0 11 -4 11 -10z"/>
<path d="M360 821 c0 -5 5 -13 10 -16 6 -3 10 -2 10 4 0 5 -4 13 -10 16 -5 3
-10 2 -10 -4z"/>
<path d="M1387 823 c-4 -3 -7 -11 -7 -17 0 -6 5 -5 12 2 6 6 9 14 7 17 -3 3
-9 2 -12 -2z"/>
<path d="M137 803 c-10 -9 -9 -23 2 -23 5 0 11 7 15 15 5 15 -5 20 -17 8z"/>
<path d="M2679 760 c-17 -17 -36 -32 -43 -33 -6 -1 -17 -10 -24 -19 -7 -10
-21 -18 -30 -18 -12 0 -13 3 -4 12 7 7 12 16 12 21 0 5 -7 2 -15 -7 -8 -8 -15
-22 -15 -31 0 -15 -1 -15 -16 -1 -21 22 -29 20 -49 -10 -17 -26 -17 -27 4 -21
11 3 19 1 15 -4 -3 -5 3 -9 13 -10 16 0 16 -1 -2 -9 -29 -13 -32 -12 -53 10
-25 28 -49 17 -47 -21 1 -16 5 -32 10 -37 4 -4 5 3 1 14 -5 16 -2 23 11 26 22
6 43 -1 43 -13 0 -4 -7 -6 -15 -3 -9 4 -15 0 -15 -9 0 -9 10 -18 23 -20 16 -3
14 -5 -10 -6 -45 -2 -53 -21 -9 -21 35 0 35 -1 29 -32 -5 -32 -40 -71 -54 -62
-13 8 -18 -41 -6 -65 17 -35 91 -89 134 -97 29 -5 39 -3 50 11 16 22 17 65 2
65 -19 0 0 18 25 22 17 4 23 1 19 -9 -6 -16 9 -17 25 -1 15 15 26 -12 20 -52
-2 -16 -1 -27 4 -24 4 3 8 16 8 30 0 33 29 76 47 70 10 -4 13 -1 9 12 -3 9 -1
24 4 32 8 12 10 12 10 1 0 -11 3 -11 16 0 13 10 20 10 45 -5 26 -15 30 -15 35
-2 3 8 4 21 1 28 -4 8 -6 6 -6 -4 -1 -10 -5 -18 -11 -18 -16 0 27 84 49 95 21
10 68 91 58 101 -3 3 -15 1 -26 -6 -23 -12 -28 -1 -9 18 9 9 9 12 -1 12 -7 0
-9 5 -5 13 5 9 4 9 -5 1 -7 -6 -13 -22 -14 -35 -1 -13 -9 -33 -19 -43 -10 -11
-18 -26 -18 -33 0 -7 -14 -28 -31 -47 -17 -20 -28 -39 -25 -44 2 -4 -4 -9 -15
-9 -14 -1 -18 2 -12 10 18 24 35 96 31 127 -4 29 -3 31 21 25 24 -6 25 -6 8
13 -9 10 -14 22 -10 26 4 4 0 12 -10 17 -9 6 -17 16 -17 24 0 16 -55 59 -88
70 -17 5 -29 -1 -53 -25z m-64 -100 c-3 -6 1 -13 9 -16 9 -3 16 -11 16 -16 0
-6 -8 -4 -17 3 -15 12 -16 12 -10 -3 3 -10 2 -18 -3 -18 -12 0 -23 37 -15 50
3 5 11 10 16 10 6 0 7 -5 4 -10z m79 -56 c18 -26 18 -26 -1 -15 -11 6 -23 7
-27 4 -3 -3 -6 3 -6 15 0 29 11 27 34 -4z m46 16 c0 -5 -5 -10 -11 -10 -5 0
-7 5 -4 10 3 6 8 10 11 10 2 0 4 -4 4 -10z m59 -14 c22 -26 -8 -102 -36 -92
-12 5 -13 3 -5 -7 8 -10 6 -13 -8 -14 -11 -1 -19 4 -17 10 1 7 -5 12 -13 11
-10 -1 -16 9 -16 30 -1 17 1 26 3 19 2 -7 11 -9 19 -6 8 3 14 -1 14 -8 0 -11
3 -11 10 1 7 11 5 19 -8 29 -16 12 -15 13 6 8 12 -3 22 -1 22 4 0 5 -6 9 -12
9 -9 0 -8 4 2 10 20 13 26 12 39 -4z m-99 -125 c0 -6 -4 -12 -8 -15 -5 -3 -9
1 -9 9 0 8 4 15 9 15 4 0 8 -4 8 -9z"/>
<path d="M1378 755 c-4 -20 -1 -25 14 -25 23 0 36 29 17 41 -22 13 -26 11 -31
-16z"/>
<path d="M123 763 c-7 -3 -13 -9 -13 -14 0 -4 6 -6 14 -3 7 3 21 -2 30 -12 9
-9 19 -14 21 -12 9 8 -40 46 -52 41z"/>
<path d="M596 755 c4 -8 11 -15 16 -15 6 0 5 6 -2 15 -7 8 -14 15 -16 15 -2 0
-1 -7 2 -15z"/>
<path d="M1090 754 c0 -8 5 -12 10 -9 6 4 8 11 5 16 -9 14 -15 11 -15 -7z"/>
<path d="M700 744 c0 -13 3 -14 14 -5 10 8 16 9 21 1 3 -6 11 -7 17 -4 6 4 5
10 -3 15 -23 14 -49 10 -49 -7z"/>
<path d="M30 740 c0 -5 5 -10 11 -10 5 0 7 5 4 10 -3 6 -8 10 -11 10 -2 0 -4
-4 -4 -10z"/>
<path d="M1200 743 c18 -9 11 -25 -10 -20 -11 3 -25 -2 -32 -12 -12 -14 -11
-15 5 -1 17 13 19 12 15 -10 -2 -13 3 -25 11 -28 9 -3 11 0 7 9 -4 8 1 4 12
-8 11 -13 26 -23 34 -23 9 0 9 3 2 8 -12 7 -27 47 -28 71 -1 8 -7 15 -14 17
-7 1 -8 0 -2 -3z"/>
<path d="M1006 726 c21 -15 30 -14 19 3 -3 6 -14 11 -23 11 -13 0 -13 -2 4
-14z"/>
<path d="M1536 725 c4 -8 10 -12 15 -9 11 6 2 24 -11 24 -5 0 -7 -7 -4 -15z"/>
<path d="M107 723 c-3 -5 6 -8 19 -8 13 0 24 3 24 8 0 4 -9 7 -19 7 -11 0 -22
-3 -24 -7z"/>
<path d="M2356 722 c-2 -4 4 -13 15 -20 22 -14 25 -7 5 14 -8 8 -17 11 -20 6z"/>
<path d="M185 700 c3 -5 8 -10 11 -10 2 0 4 5 4 10 0 6 -5 10 -11 10 -5 0 -7
-4 -4 -10z"/>
<path d="M470 684 c8 -10 15 -20 16 -22 1 -2 4 1 7 5 3 5 -4 15 -16 23 -21 12
-21 12 -7 -6z"/>
<path d="M1480 690 c0 -5 7 -10 16 -10 8 0 12 5 9 10 -3 6 -10 10 -16 10 -5 0
-9 -4 -9 -10z"/>
<path d="M597 679 c-19 -11 -40 -17 -64 -18 -7 -1 -13 -8 -13 -16 0 -8 -5 -15
-11 -15 -5 0 -7 -5 -3 -11 3 -6 0 -15 -7 -20 -11 -7 -11 -9 -1 -9 7 0 17 10
22 23 5 12 9 19 9 15 1 -4 13 -1 28 7 27 14 56 9 32 -6 -7 -4 -17 -5 -23 -2
-5 4 -7 -1 -3 -11 5 -14 3 -17 -8 -12 -8 3 -15 1 -15 -3 0 -5 7 -11 15 -15 8
-3 15 -1 15 4 0 5 10 9 23 7 17 -1 22 3 21 20 0 12 2 22 5 21 20 -2 22 4 5 17
-18 13 -18 14 -1 15 10 0 15 5 12 10 -8 12 -15 12 -38 -1z"/>
<path d="M1125 680 c3 -5 0 -7 -7 -5 -10 4 -14 -6 -15 -37 -2 -33 0 -39 8 -25
6 9 15 14 21 11 7 -5 9 -1 5 9 -6 16 12 20 23 5 3 -4 12 -3 20 2 11 7 8 10
-13 15 -15 4 -27 13 -27 21 0 8 -5 14 -11 14 -5 0 -7 -4 -4 -10z"/>
<path d="M2380 670 c0 -5 5 -10 11 -10 5 0 7 5 4 10 -3 6 -8 10 -11 10 -2 0
-4 -4 -4 -10z"/>
<path d="M56 658 c3 -4 -1 -8 -8 -8 -11 0 -10 -2 0 -9 17 -10 12 -67 -5 -63
-7 1 -13 -5 -13 -13 0 -8 3 -15 6 -15 10 0 34 28 34 39 0 6 5 11 10 11 13 0
13 -23 -1 -37 -8 -8 -7 -13 1 -18 6 -4 17 -2 23 4 6 6 7 11 2 11 -12 0 -13 55
-2 66 4 4 7 14 7 22 0 13 -3 12 -19 -2 -12 -11 -21 -13 -25 -7 -4 5 2 14 11
20 16 9 16 10 -4 8 -12 0 -19 -5 -17 -9z"/>
<path d="M968 663 c6 -2 18 -2 25 0 6 3 1 5 -13 5 -14 0 -19 -2 -12 -5z"/>
<path d="M680 646 c0 -8 -6 -16 -12 -19 -7 -2 -10 -8 -5 -12 4 -5 14 0 22 11
17 23 19 34 5 34 -5 0 -10 -6 -10 -14z"/>
<path d="M990 626 c0 -15 4 -25 9 -22 10 7 9 31 -2 42 -4 4 -7 -5 -7 -20z"/>
<path d="M1035 640 c3 -5 11 -10 16 -10 6 0 7 5 4 10 -3 6 -11 10 -16 10 -6 0
-7 -4 -4 -10z"/>
<path d="M1400 644 c0 -5 7 -18 15 -28 8 -11 15 -16 15 -10 0 5 -7 18 -15 28
-8 11 -15 16 -15 10z"/>
<path d="M935 626 c-6 -6 -9 -18 -7 -27 2 -14 7 -15 27 -5 14 6 25 15 25 19 0
5 -4 6 -9 2 -6 -3 -13 1 -18 9 -6 10 -11 11 -18 2z"/>
<path d="M406 622 c-3 -5 1 -12 9 -16 8 -3 15 -10 15 -16 0 -6 -5 -8 -11 -4
-7 4 -10 1 -7 -7 3 -8 1 -22 -4 -32 -9 -17 -7 -17 12 -7 25 13 42 4 20 -10
-12 -7 -12 -12 -2 -22 9 -9 12 -9 12 0 0 6 6 9 14 6 18 -7 32 45 15 60 -9 8
-10 8 -4 -3 5 -9 3 -12 -6 -9 -18 6 -25 58 -8 58 7 0 9 3 6 6 -4 4 -14 1 -23
-6 -13 -11 -17 -11 -24 -1 -4 8 -10 9 -14 3z"/>
<path d="M1478 608 c5 -5 16 -8 23 -6 8 3 3 7 -10 11 -17 4 -21 3 -13 -5z"/>
<path d="M1443 581 c1 -15 7 -19 27 -17 29 3 73 25 52 26 -7 0 -22 -4 -32 -10
-14 -7 -23 -6 -34 5 -13 14 -15 13 -13 -4z"/>
<path d="M1205 580 c27 -12 43 -12 25 0 -8 5 -22 9 -30 9 -10 0 -8 -3 5 -9z"/>
<path d="M1268 551 c-3 -22 -1 -28 11 -23 10 4 12 1 6 -8 -5 -9 -4 -11 3 -6 7
4 12 1 12 -8 0 -9 -5 -16 -11 -16 -16 0 -5 -80 12 -91 22 -13 40 1 28 23 -9
16 -8 19 3 12 32 -20 70 -22 73 -2 2 11 -2 15 -11 11 -8 -3 -14 -2 -13 3 4 25
-3 43 -18 47 -17 4 -17 5 0 6 9 0 17 8 17 16 0 11 -11 15 -40 15 -22 0 -40 5
-40 11 0 6 -6 17 -14 24 -12 12 -14 10 -18 -14z"/>
<path d="M610 546 c0 -2 7 -7 16 -10 8 -3 12 -2 9 4 -6 10 -25 14 -25 6z"/>
<path d="M656 541 c-4 -7 -5 -15 -2 -18 9 -9 19 4 14 18 -4 11 -6 11 -12 0z"/>
<path d="M920 540 c0 -5 5 -10 11 -10 5 0 7 5 4 10 -3 6 -8 10 -11 10 -2 0 -4
-4 -4 -10z"/>
<path d="M953 534 c-8 -22 5 -30 23 -12 14 14 14 16 -1 21 -9 4 -18 1 -22 -9z"/>
<path d="M1110 540 c0 -5 5 -10 11 -10 5 0 7 5 4 10 -3 6 -8 10 -11 10 -2 0
-4 -4 -4 -10z"/>
<path d="M2395 530 c-10 -11 -22 -17 -26 -14 -5 3 -6 -2 -3 -10 3 -8 -4 -33
-14 -55 -20 -40 -13 -59 7 -23 9 14 10 14 11 1 0 -8 -5 -20 -12 -27 -9 -9 -9
-12 1 -12 6 0 21 -22 33 -50 11 -27 25 -50 30 -50 5 0 22 -10 37 -21 16 -12
34 -19 39 -15 6 3 14 1 18 -5 4 -7 3 -9 -4 -5 -6 3 -14 1 -18 -5 -5 -9 1 -10
22 -4 16 4 41 8 57 9 15 2 37 3 50 4 13 1 32 9 43 18 18 15 18 15 -3 5 -59
-29 -154 1 -217 69 -70 75 -84 134 -45 184 24 30 20 35 -6 6z"/>
<path d="M116 511 c-10 -11 -16 -26 -14 -33 3 -7 12 2 20 20 19 37 18 39 -6
13z"/>
<path d="M383 515 c0 -8 7 -15 15 -15 12 0 12 3 2 15 -7 8 -13 15 -15 15 -1 0
-2 -7 -2 -15z"/>
<path d="M600 523 c0 -4 5 -15 10 -23 8 -13 10 -13 10 2 0 9 -4 20 -10 23 -5
3 -10 3 -10 -2z"/>
<path d="M714 518 c-3 -4 6 -8 20 -8 14 0 26 4 26 8 0 4 -9 8 -21 8 -11 0 -23
-4 -25 -8z"/>
<path d="M536 510 c-17 -6 -18 -7 -3 -13 9 -3 19 -2 23 4 9 15 2 18 -20 9z"/>
<path d="M1406 504 c18 -15 18 -15 -5 -10 -17 3 -21 2 -13 -6 6 -6 18 -8 26
-5 20 8 10 37 -12 37 -13 0 -12 -3 4 -16z"/>
<path d="M48 502 c-25 -5 -21 -72 5 -72 9 0 17 5 17 10 0 6 9 10 21 10 11 0
17 5 14 10 -4 6 -10 8 -15 5 -4 -3 -6 3 -3 14 5 20 -11 30 -39 23z m22 -22 c0
-5 -2 -10 -4 -10 -3 0 -8 5 -11 10 -3 6 -1 10 4 10 6 0 11 -4 11 -10z"/>
<path d="M471 488 c-1 -10 -1 -21 -2 -25 0 -4 5 -9 12 -12 7 -2 9 1 5 8 -4 6
-2 11 3 11 6 0 11 5 11 11 0 5 -4 8 -9 5 -5 -4 -12 0 -14 6 -3 8 -6 6 -6 -4z"/>
<path d="M128 478 c-3 -7 -4 -28 -2 -45 1 -18 -2 -33 -7 -33 -5 0 -1 -9 8 -20
9 -11 19 -17 21 -15 3 3 -1 11 -8 20 -9 11 -9 15 -1 15 8 0 10 8 6 21 -4 12
-3 19 1 16 5 -3 15 1 22 9 11 12 9 14 -9 14 -15 0 -19 5 -15 15 3 8 1 15 -3
15 -5 0 -11 -6 -13 -12z"/>
<path d="M436 475 c-3 -8 -1 -15 4 -15 13 0 22 18 11 24 -5 3 -11 -1 -15 -9z"/>
<path d="M555 480 c-3 -5 -1 -10 4 -10 6 0 11 5 11 10 0 6 -2 10 -4 10 -3 0
-8 -4 -11 -10z"/>
<path d="M850 479 c0 -5 5 -7 10 -4 6 3 10 8 10 11 0 2 -4 4 -10 4 -5 0 -10
-5 -10 -11z"/>
<path d="M995 480 c-3 -5 -1 -10 4 -10 6 0 11 5 11 10 0 6 -2 10 -4 10 -3 0
-8 -4 -11 -10z"/>
<path d="M526 465 c4 -10 0 -15 -12 -15 -9 0 -15 -3 -11 -6 11 -11 46 7 40 22
-3 7 -9 14 -14 14 -4 0 -6 -7 -3 -15z"/>
<path d="M1138 473 c-10 -2 -18 -9 -18 -14 0 -14 16 -11 30 6 7 8 11 14 9 14
-2 -1 -12 -3 -21 -6z"/>
<path d="M834 450 c0 -13 4 -16 10 -10 7 7 7 13 0 20 -6 6 -10 3 -10 -10z"/>
<path d="M1060 441 c0 -5 5 -13 10 -16 6 -3 10 -2 10 4 0 5 -4 13 -10 16 -5 3
-10 2 -10 -4z"/>
<path d="M70 426 c-14 -8 -27 -13 -30 -11 -3 2 -6 -11 -7 -29 l-1 -32 34 15
c22 10 30 19 24 25 -6 6 -16 4 -27 -5 -17 -13 -17 -13 -3 6 8 11 22 25 30 32
20 16 11 16 -20 -1z"/>
<path d="M360 420 c6 -11 12 -20 14 -20 2 0 2 9 -1 20 -3 11 -9 20 -15 20 -5
0 -4 -9 2 -20z"/>
<path d="M166 421 c-3 -5 1 -12 10 -15 22 -8 25 -4 9 11 -8 7 -16 9 -19 4z"/>
<path d="M430 412 c0 -5 7 -15 15 -22 8 -7 15 -8 15 -2 0 5 -7 15 -15 22 -8 7
-15 8 -15 2z"/>
<path d="M640 409 c0 -5 5 -7 10 -4 6 3 10 8 10 11 0 2 -4 4 -10 4 -5 0 -10
-5 -10 -11z"/>
<path d="M1110 412 c0 -4 9 -8 20 -9 11 -1 18 2 15 8 -7 11 -35 12 -35 1z"/>
<path d="M1332 395 c-20 -20 -21 -24 -6 -36 14 -11 18 -10 30 6 30 40 11 63
-24 30z"/>
<path d="M1740 406 c0 -8 4 -17 9 -20 5 -4 7 3 4 14 -6 23 -13 26 -13 6z"/>
<path d="M1025 400 c-3 -6 1 -7 9 -4 18 7 21 14 7 14 -6 0 -13 -4 -16 -10z"/>
<path d="M1560 385 c14 -8 30 -14 35 -14 6 0 -1 6 -15 14 -14 8 -29 14 -35 14
-5 0 1 -6 15 -14z"/>
<path d="M226 377 c3 -8 0 -18 -5 -22 -6 -3 -9 -11 -5 -16 3 -5 10 -7 15 -4
12 8 12 42 -1 50 -5 3 -7 0 -4 -8z"/>
<path d="M960 380 c-8 -5 -10 -10 -5 -10 6 0 17 5 25 10 8 5 11 10 5 10 -5 0
-17 -5 -25 -10z"/>
<path d="M1150 377 c0 -10 8 -17 18 -17 9 0 13 4 7 8 -5 4 -13 11 -17 16 -5 5
-8 2 -8 -7z"/>
<path d="M186 364 c-4 -10 -1 -14 6 -12 15 5 23 28 10 28 -5 0 -13 -7 -16 -16z"/>
<path d="M2635 370 c3 -5 8 -10 11 -10 2 0 4 5 4 10 0 6 -5 10 -11 10 -5 0 -7
-4 -4 -10z"/>
<path d="M80 359 c0 -5 5 -7 10 -4 6 3 10 8 10 11 0 2 -4 4 -10 4 -5 0 -10 -5
-10 -11z"/>
<path d="M110 347 c0 -15 -5 -26 -11 -24 -6 1 -14 -4 -16 -12 -4 -8 0 -12 8
-9 8 3 19 -2 25 -10 8 -12 12 -11 25 4 8 11 9 15 2 10 -21 -12 -34 3 -21 24
10 15 10 22 0 32 -9 9 -12 6 -12 -15z"/>
<path d="M48 343 c-16 -19 -18 -78 -4 -101 6 -11 11 -11 24 0 12 10 14 10 8 1
-12 -20 9 -15 29 7 18 20 17 20 -9 20 -18 0 -25 4 -20 12 5 8 2 9 -11 4 -16
-6 -16 -4 -4 11 12 15 12 16 -4 10 -16 -6 -16 -4 -2 23 18 34 15 38 -7 13z"/>
<path d="M518 343 c7 -3 16 -2 19 1 4 3 -2 6 -13 5 -11 0 -14 -3 -6 -6z"/>
<path d="M1079 333 c-13 -15 -12 -15 9 -4 23 12 28 21 13 21 -5 0 -15 -7 -22
-17z"/>
<path d="M1095 310 c-16 -17 -16 -20 -3 -15 9 4 19 13 22 21 7 19 2 18 -19 -6z"/>
<path d="M1130 320 c0 -6 6 -18 14 -25 12 -12 15 -12 20 0 3 9 -3 19 -14 25
-14 8 -20 8 -20 0z"/>
<path d="M1460 309 c0 -5 5 -7 10 -4 6 3 10 8 10 11 0 2 -4 4 -10 4 -5 0 -10
-5 -10 -11z"/>
<path d="M1380 296 c0 -2 7 -6 15 -10 8 -3 15 -1 15 4 0 6 -7 10 -15 10 -8 0
-15 -2 -15 -4z"/>
<path d="M891 281 c-8 -5 -9 -11 -3 -15 5 -3 12 1 16 9 6 17 6 18 -13 6z"/>
<path d="M1175 280 c-3 -6 1 -7 9 -4 18 7 21 14 7 14 -6 0 -13 -4 -16 -10z"/>
<path d="M1420 280 c0 -5 7 -7 15 -4 8 4 15 8 15 10 0 2 -7 4 -15 4 -8 0 -15
-4 -15 -10z"/>
<path d="M725 270 c-3 -5 -1 -10 4 -10 6 0 11 5 11 10 0 6 -2 10 -4 10 -3 0
-8 -4 -11 -10z"/>
<path d="M1278 266 c-7 -7 -20 -11 -28 -8 -12 3 -12 2 -3 -8 6 -7 9 -19 6 -26
-3 -8 0 -14 6 -14 6 0 11 7 11 16 0 8 7 22 15 30 13 14 15 14 15 -1 0 -9 5
-13 10 -10 14 9 12 22 -5 29 -8 3 -20 -1 -27 -8z"/>
<path d="M1550 263 c0 -5 8 -17 17 -28 14 -18 15 -18 9 -2 -3 10 -6 23 -6 28
0 5 -4 9 -10 9 -5 0 -10 -3 -10 -7z"/>
<path d="M684 251 c4 -5 0 -11 -6 -14 -7 -3 -3 -4 9 -4 17 1 19 4 11 14 -12
15 -22 18 -14 4z"/>
<path d="M1525 251 c-3 -5 -2 -12 3 -15 5 -3 9 1 9 9 0 17 -3 19 -12 6z"/>
<path d="M34 204 c-2 -21 -1 -21 17 -3 23 23 23 25 1 25 -10 0 -18 -8 -18 -22z"/>
<path d="M101 194 c0 -11 3 -14 6 -6 3 7 2 16 -1 19 -3 4 -6 -2 -5 -13z"/>
<path d="M1361 194 c0 -11 3 -14 6 -6 3 7 2 16 -1 19 -3 4 -6 -2 -5 -13z"/>
<path d="M558 163 c6 -2 10 -9 7 -14 -4 -5 1 -6 10 -2 13 5 14 7 3 14 -7 5
-17 8 -23 8 -5 0 -4 -3 3 -6z"/>
<path d="M226 141 c-4 -5 -3 -16 0 -25 5 -13 2 -15 -12 -9 -17 6 -18 5 -5 -11
13 -16 15 -16 24 -1 6 12 16 15 33 11 28 -7 46 20 23 35 -18 11 -56 11 -63 0z
m62 -20 c3 -10 0 -11 -9 -5 -8 5 -22 7 -33 5 -11 -2 -16 2 -11 9 9 15 47 9 53
-9z"/>
<path d="M2750 134 c0 -3 12 -23 28 -45 23 -33 32 -39 65 -39 25 0 40 5 44 15
8 23 -2 28 -25 14 -17 -10 -23 -10 -37 1 -9 7 -14 22 -12 31 3 10 -2 20 -10
23 -19 8 -53 8 -53 0z"/>
<path d="M416 99 c-25 -24 -14 -49 21 -48 l28 2 -27 4 c-32 5 -36 20 -11 39
10 7 16 14 13 17 -3 2 -13 -4 -24 -14z"/>
<path d="M1276 85 c4 -8 8 -15 10 -15 2 0 4 7 4 15 0 8 -4 15 -10 15 -5 0 -7
-7 -4 -15z"/>
<path d="M980 80 c0 -6 -10 -15 -22 -20 -20 -8 -18 -9 15 -9 35 -1 37 1 27 19
-12 22 -20 26 -20 10z"/>
<path d="M30 60 c0 -5 5 -10 11 -10 5 0 7 5 4 10 -3 6 -8 10 -11 10 -2 0 -4
-4 -4 -10z"/>
<path d="M760 60 c0 -5 5 -10 11 -10 5 0 7 5 4 10 -3 6 -8 10 -11 10 -2 0 -4
-4 -4 -10z"/>
<path d="M288 53 c18 -2 45 -2 60 0 15 2 0 4 -33 4 -33 0 -45 -2 -27 -4z"/>
<path d="M1268 53 c7 -3 16 -2 19 1 4 3 -2 6 -13 5 -11 0 -14 -3 -6 -6z"/>
<path d="M1718 53 c7 -3 16 -2 19 1 4 3 -2 6 -13 5 -11 0 -14 -3 -6 -6z"/>
</g>
</svg>
