<?xml version="1.0" standalone="no"?>
<!DOCTYPE svg PUBLIC "-//W3C//DTD SVG 20010904//EN"
 "http://www.w3.org/TR/2001/REC-SVG-20010904/DTD/svg10.dtd">
<svg version="1.0" xmlns="http://www.w3.org/2000/svg"
 width="290.000000pt" height="146.000000pt" viewBox="0 0 290.000000 146.000000"
 preserveAspectRatio="xMidYMid meet">
<metadata>
Created by potrace 1.16, written by Peter Selinger 2001-2019
</metadata>
<g transform="translate(0.000000,146.000000) scale(0.100000,-0.100000)"
fill="#000000" stroke="none">
<path d="M320 1415 c0 -28 -4 -35 -20 -35 -17 0 -20 -7 -20 -40 0 -33 -3 -40
-20 -40 -17 0 -20 -7 -20 -40 l0 -40 -40 0 -40 0 0 -40 0 -40 -40 0 -40 0 0
-40 0 -40 -40 0 c-38 0 -40 -2 -40 -30 l0 -30 1450 0 1450 0 0 30 0 30 -160 0
-160 0 0 195 c0 123 -4 195 -10 195 -6 0 -10 -72 -10 -195 l0 -195 -270 0
-270 0 0 195 c0 123 -4 195 -10 195 -6 0 -10 -72 -10 -195 l0 -195 -270 0
-270 0 0 195 c0 123 -4 195 -10 195 -6 0 -10 -72 -10 -195 l0 -195 -150 0
-150 0 0 40 0 40 -40 0 -40 0 0 40 0 40 -40 0 -40 0 0 40 c0 33 -3 40 -20 40
-17 0 -20 7 -20 40 0 33 -3 40 -20 40 -16 0 -20 7 -20 35 0 19 -4 35 -10 35
-5 0 -10 -16 -10 -35 0 -28 -4 -35 -20 -35 -17 0 -20 -7 -20 -40 0 -33 -3 -40
-20 -40 -17 0 -20 -7 -20 -40 l0 -40 -40 0 -40 0 0 -40 0 -40 -40 0 -40 0 0
-40 c0 -38 -2 -40 -30 -40 -28 0 -30 2 -30 40 l0 40 -40 0 -40 0 0 40 0 40
-40 0 -40 0 0 40 c0 33 -3 40 -20 40 -17 0 -20 7 -20 40 0 33 -3 40 -20 40
-16 0 -20 7 -20 35 0 19 -4 35 -10 35 -5 0 -10 -16 -10 -35z m40 -85 c0 -27
-3 -30 -30 -30 -27 0 -30 3 -30 30 0 27 3 30 30 30 27 0 30 -3 30 -30z m560 0
c0 -27 -3 -30 -30 -30 -27 0 -30 3 -30 30 0 27 3 30 30 30 27 0 30 -3 30 -30z
m-520 -80 l0 -30 -70 0 -70 0 0 30 0 30 70 0 70 0 0 -30z m560 0 l0 -30 -70 0
-70 0 0 30 0 30 70 0 70 0 0 -30z m-480 -80 l0 -30 -150 0 -150 0 0 30 0 30
150 0 150 0 0 -30z m560 0 l0 -30 -150 0 -150 0 0 30 0 30 150 0 150 0 0 -30z
m-480 -80 l0 -30 -230 0 -230 0 0 30 0 30 230 0 230 0 0 -30z m560 0 l0 -30
-230 0 -230 0 0 30 0 30 230 0 230 0 0 -30z m1760 -60 c0 -7 -483 -10 -1430
-10 -947 0 -1430 3 -1430 10 0 7 483 10 1430 10 947 0 1430 -3 1430 -10z"/>
<path d="M1431 921 c-17 -30 -13 -47 15 -81 l27 -31 -27 -28 c-31 -32 -34 -71
-6 -96 26 -23 25 -50 -1 -68 -19 -14 -19 -18 -8 -56 7 -23 15 -41 19 -41 11 0
22 46 26 102 3 39 -1 52 -23 78 l-26 31 27 28 c31 32 34 71 6 96 -22 20 -26
45 -9 62 7 7 7 13 0 17 -5 4 -15 -2 -20 -13z"/>
<path d="M320 255 l0 -195 -160 0 -160 0 0 -30 0 -30 1450 0 1450 0 0 30 c0
28 -2 30 -40 30 l-40 0 0 40 0 40 -40 0 -40 0 0 40 0 40 -40 0 -40 0 0 40 c0
33 -3 40 -20 40 -17 0 -20 7 -20 40 0 33 -3 40 -20 40 -16 0 -20 7 -20 35 0
19 -4 35 -10 35 -5 0 -10 -16 -10 -35 0 -28 -4 -35 -20 -35 -17 0 -20 -7 -20
-40 0 -33 -3 -40 -20 -40 -17 0 -20 -7 -20 -40 l0 -40 -40 0 -40 0 0 -40 0
-40 -40 0 -40 0 0 -40 c0 -38 -2 -40 -30 -40 -28 0 -30 2 -30 40 l0 40 -40 0
-40 0 0 40 0 40 -40 0 -40 0 0 40 c0 33 -3 40 -20 40 -17 0 -20 7 -20 40 0 33
-3 40 -20 40 -16 0 -20 7 -20 35 0 19 -4 35 -10 35 -5 0 -10 -16 -10 -35 0
-28 -4 -35 -20 -35 -17 0 -20 -7 -20 -40 0 -33 -3 -40 -20 -40 -17 0 -20 -7
-20 -40 l0 -40 -40 0 -40 0 0 -40 0 -40 -40 0 -40 0 0 -40 0 -40 -150 0 -150
0 0 195 c0 123 -4 195 -10 195 -6 0 -10 -72 -10 -195 l0 -195 -270 0 -270 0 0
195 c0 123 -4 195 -10 195 -6 0 -10 -72 -10 -195 l0 -195 -270 0 -270 0 0 195
c0 123 -4 195 -10 195 -6 0 -10 -72 -10 -195z m1720 75 c0 -27 -3 -30 -30 -30
-27 0 -30 3 -30 30 0 27 3 30 30 30 27 0 30 -3 30 -30z m560 0 c0 -27 -3 -30
-30 -30 -27 0 -30 3 -30 30 0 27 3 30 30 30 27 0 30 -3 30 -30z m-520 -80 l0
-30 -70 0 -70 0 0 30 0 30 70 0 70 0 0 -30z m560 0 l0 -30 -70 0 -70 0 0 30 0
30 70 0 70 0 0 -30z m-480 -80 l0 -30 -150 0 -150 0 0 30 0 30 150 0 150 0 0
-30z m560 0 l0 -30 -150 0 -150 0 0 30 0 30 150 0 150 0 0 -30z m-480 -80 l0
-30 -230 0 -230 0 0 30 0 30 230 0 230 0 0 -30z m560 0 l0 -30 -230 0 -230 0
0 30 0 30 230 0 230 0 0 -30z m80 -60 c0 -7 -483 -10 -1430 -10 -947 0 -1430
3 -1430 10 0 7 483 10 1430 10 947 0 1430 -3 1430 -10z"/>
</g>
</svg>
